<svg xmlns="http://www.w3.org/2000/svg" viewBox="0 0 900 1200" width="900" height="1200" role="img" preserveAspectRatio="xMidYMid slice"><defs><linearGradient id="bg3xs" x1="0" y1="0" x2="0" y2="1"><stop offset="0" stop-color="#0d0d10"/><stop offset=".55" stop-color="#08080a"/><stop offset="1" stop-color="#050505"/></linearGradient><radialGradient id="vg3xs" cx=".5" cy=".48" r=".72"><stop offset=".4" stop-color="#000" stop-opacity="0"/><stop offset=".8" stop-color="#000" stop-opacity=".42"/><stop offset="1" stop-color="#000" stop-opacity=".82"/></radialGradient><linearGradient id="fl3xs" x1="0" y1="0" x2="0" y2="1"><stop offset="0" stop-color="#000" stop-opacity=".3"/><stop offset=".22" stop-color="#000" stop-opacity="0"/><stop offset=".82" stop-color="#000" stop-opacity="0"/><stop offset="1" stop-color="#000" stop-opacity=".45"/></linearGradient><radialGradient id="sg3xs" cx=".5" cy=".5" r=".5"><stop offset="0" stop-color="#ffe07a" stop-opacity=".3"/><stop offset=".3" stop-color="#ffc531" stop-opacity=".16"/><stop offset=".62" stop-color="#ff7a18" stop-opacity=".07"/><stop offset="1" stop-color="#ff7a18" stop-opacity="0"/></radialGradient><radialGradient id="hz3xs0"><stop offset="0" stop-color="#ffc531" stop-opacity="0.1"/><stop offset=".55" stop-color="#ffc531" stop-opacity="0.02"/><stop offset="1" stop-color="#ffc531" stop-opacity="0"/></radialGradient><radialGradient id="hz3xs1"><stop offset="0" stop-color="#ff3b1f" stop-opacity="0.14"/><stop offset=".55" stop-color="#ff3b1f" stop-opacity="0.05"/><stop offset="1" stop-color="#ff3b1f" stop-opacity="0"/></radialGradient><radialGradient id="hz3xs2"><stop offset="0" stop-color="#ff3b1f" stop-opacity="0.08"/><stop offset=".55" stop-color="#ff3b1f" stop-opacity="0.04"/><stop offset="1" stop-color="#ff3b1f" stop-opacity="0"/></radialGradient><linearGradient id="bm3xs0_0" x1="0" y1="0" x2="0" y2="1"><stop offset="0" stop-color="#ff7a18" stop-opacity="0.05"/><stop offset=".35" stop-color="#ff7a18" stop-opacity="0.02"/><stop offset=".72" stop-color="#ff7a18" stop-opacity="0.01"/><stop offset="1" stop-color="#ff7a18" stop-opacity="0"/></linearGradient><linearGradient id="bm3xs0_1" x1="0" y1="0" x2="0" y2="1"><stop offset="0" stop-color="#ff7a18" stop-opacity="0.1"/><stop offset=".35" stop-color="#ff7a18" stop-opacity="0.05"/><stop offset=".72" stop-color="#ff7a18" stop-opacity="0.02"/><stop offset="1" stop-color="#ff7a18" stop-opacity="0"/></linearGradient><linearGradient id="bm3xs0_2" x1="0" y1="0" x2="0" y2="1"><stop offset="0" stop-color="#ff7a18" stop-opacity="0.2"/><stop offset=".35" stop-color="#ff7a18" stop-opacity="0.1"/><stop offset=".72" stop-color="#ff7a18" stop-opacity="0.03"/><stop offset="1" stop-color="#ff7a18" stop-opacity="0"/></linearGradient><linearGradient id="bm3xs1_0" x1="0" y1="0" x2="0" y2="1"><stop offset="0" stop-color="#ffc531" stop-opacity="0.05"/><stop offset=".35" stop-color="#ffc531" stop-opacity="0.03"/><stop offset=".72" stop-color="#ffc531" stop-opacity="0.01"/><stop offset="1" stop-color="#ffc531" stop-opacity="0"/></linearGradient><linearGradient id="bm3xs1_1" x1="0" y1="0" x2="0" y2="1"><stop offset="0" stop-color="#ffc531" stop-opacity="0.11"/><stop offset=".35" stop-color="#ffc531" stop-opacity="0.06"/><stop offset=".72" stop-color="#ffc531" stop-opacity="0.02"/><stop offset="1" stop-color="#ffc531" stop-opacity="0"/></linearGradient><linearGradient id="bm3xs1_2" x1="0" y1="0" x2="0" y2="1"><stop offset="0" stop-color="#ffc531" stop-opacity="0.23"/><stop offset=".35" stop-color="#ffc531" stop-opacity="0.12"/><stop offset=".72" stop-color="#ffc531" stop-opacity="0.04"/><stop offset="1" stop-color="#ffc531" stop-opacity="0"/></linearGradient><linearGradient id="bm3xs2_0" x1="0" y1="0" x2="0" y2="1"><stop offset="0" stop-color="#ff7a18" stop-opacity="0.05"/><stop offset=".35" stop-color="#ff7a18" stop-opacity="0.02"/><stop offset=".72" stop-color="#ff7a18" stop-opacity="0.01"/><stop offset="1" stop-color="#ff7a18" stop-opacity="0"/></linearGradient><linearGradient id="bm3xs2_1" x1="0" y1="0" x2="0" y2="1"><stop offset="0" stop-color="#ff7a18" stop-opacity="0.1"/><stop offset=".35" stop-color="#ff7a18" stop-opacity="0.05"/><stop offset=".72" stop-color="#ff7a18" stop-opacity="0.02"/><stop offset="1" stop-color="#ff7a18" stop-opacity="0"/></linearGradient><linearGradient id="bm3xs2_2" x1="0" y1="0" x2="0" y2="1"><stop offset="0" stop-color="#ff7a18" stop-opacity="0.2"/><stop offset=".35" stop-color="#ff7a18" stop-opacity="0.11"/><stop offset=".72" stop-color="#ff7a18" stop-opacity="0.03"/><stop offset="1" stop-color="#ff7a18" stop-opacity="0"/></linearGradient><linearGradient id="bm3xs3_0" x1="0" y1="0" x2="0" y2="1"><stop offset="0" stop-color="#ffc531" stop-opacity="0.03"/><stop offset=".35" stop-color="#ffc531" stop-opacity="0.02"/><stop offset=".72" stop-color="#ffc531" stop-opacity="0"/><stop offset="1" stop-color="#ffc531" stop-opacity="0"/></linearGradient><linearGradient id="bm3xs3_1" x1="0" y1="0" x2="0" y2="1"><stop offset="0" stop-color="#ffc531" stop-opacity="0.06"/><stop offset=".35" stop-color="#ffc531" stop-opacity="0.03"/><stop offset=".72" stop-color="#ffc531" stop-opacity="0.01"/><stop offset="1" stop-color="#ffc531" stop-opacity="0"/></linearGradient><linearGradient id="bm3xs3_2" x1="0" y1="0" x2="0" y2="1"><stop offset="0" stop-color="#ffc531" stop-opacity="0.13"/><stop offset=".35" stop-color="#ffc531" stop-opacity="0.07"/><stop offset=".72" stop-color="#ffc531" stop-opacity="0.02"/><stop offset="1" stop-color="#ffc531" stop-opacity="0"/></linearGradient><linearGradient id="bm3xs4_0" x1="0" y1="0" x2="0" y2="1"><stop offset="0" stop-color="#7c5cff" stop-opacity="0.05"/><stop offset=".35" stop-color="#7c5cff" stop-opacity="0.03"/><stop offset=".72" stop-color="#7c5cff" stop-opacity="0.01"/><stop offset="1" stop-color="#7c5cff" stop-opacity="0"/></linearGradient><linearGradient id="bm3xs4_1" x1="0" y1="0" x2="0" y2="1"><stop offset="0" stop-color="#7c5cff" stop-opacity="0.12"/><stop offset=".35" stop-color="#7c5cff" stop-opacity="0.06"/><stop offset=".72" stop-color="#7c5cff" stop-opacity="0.02"/><stop offset="1" stop-color="#7c5cff" stop-opacity="0"/></linearGradient><linearGradient id="bm3xs4_2" x1="0" y1="0" x2="0" y2="1"><stop offset="0" stop-color="#7c5cff" stop-opacity="0.24"/><stop offset=".35" stop-color="#7c5cff" stop-opacity="0.13"/><stop offset=".72" stop-color="#7c5cff" stop-opacity="0.04"/><stop offset="1" stop-color="#7c5cff" stop-opacity="0"/></linearGradient><linearGradient id="bm3xs5_0" x1="0" y1="0" x2="0" y2="1"><stop offset="0" stop-color="#ffc531" stop-opacity="0.05"/><stop offset=".35" stop-color="#ffc531" stop-opacity="0.02"/><stop offset=".72" stop-color="#ffc531" stop-opacity="0.01"/><stop offset="1" stop-color="#ffc531" stop-opacity="0"/></linearGradient><linearGradient id="bm3xs5_1" x1="0" y1="0" x2="0" y2="1"><stop offset="0" stop-color="#ffc531" stop-opacity="0.1"/><stop offset=".35" stop-color="#ffc531" stop-opacity="0.05"/><stop offset=".72" stop-color="#ffc531" stop-opacity="0.02"/><stop offset="1" stop-color="#ffc531" stop-opacity="0"/></linearGradient><linearGradient id="bm3xs5_2" x1="0" y1="0" x2="0" y2="1"><stop offset="0" stop-color="#ffc531" stop-opacity="0.21"/><stop offset=".35" stop-color="#ffc531" stop-opacity="0.11"/><stop offset=".72" stop-color="#ffc531" stop-opacity="0.03"/><stop offset="1" stop-color="#ffc531" stop-opacity="0"/></linearGradient><linearGradient id="bm3xs6_0" x1="0" y1="0" x2="0" y2="1"><stop offset="0" stop-color="#ffe07a" stop-opacity="0.02"/><stop offset=".35" stop-color="#ffe07a" stop-opacity="0.01"/><stop offset=".72" stop-color="#ffe07a" stop-opacity="0"/><stop offset="1" stop-color="#ffe07a" stop-opacity="0"/></linearGradient><linearGradient id="bm3xs6_1" x1="0" y1="0" x2="0" y2="1"><stop offset="0" stop-color="#ffe07a" stop-opacity="0.05"/><stop offset=".35" stop-color="#ffe07a" stop-opacity="0.03"/><stop offset=".72" stop-color="#ffe07a" stop-opacity="0.01"/><stop offset="1" stop-color="#ffe07a" stop-opacity="0"/></linearGradient><linearGradient id="bm3xs6_2" x1="0" y1="0" x2="0" y2="1"><stop offset="0" stop-color="#ffe07a" stop-opacity="0.11"/><stop offset=".35" stop-color="#ffe07a" stop-opacity="0.05"/><stop offset=".72" stop-color="#ffe07a" stop-opacity="0.02"/><stop offset="1" stop-color="#ffe07a" stop-opacity="0"/></linearGradient><linearGradient id="bm3xs7_0" x1="0" y1="0" x2="0" y2="1"><stop offset="0" stop-color="#7c5cff" stop-opacity="0.05"/><stop offset=".35" stop-color="#7c5cff" stop-opacity="0.02"/><stop offset=".72" stop-color="#7c5cff" stop-opacity="0.01"/><stop offset="1" stop-color="#7c5cff" stop-opacity="0"/></linearGradient><linearGradient id="bm3xs7_1" x1="0" y1="0" x2="0" y2="1"><stop offset="0" stop-color="#7c5cff" stop-opacity="0.1"/><stop offset=".35" stop-color="#7c5cff" stop-opacity="0.05"/><stop offset=".72" stop-color="#7c5cff" stop-opacity="0.02"/><stop offset="1" stop-color="#7c5cff" stop-opacity="0"/></linearGradient><linearGradient id="bm3xs7_2" x1="0" y1="0" x2="0" y2="1"><stop offset="0" stop-color="#7c5cff" stop-opacity="0.21"/><stop offset=".35" stop-color="#7c5cff" stop-opacity="0.11"/><stop offset=".72" stop-color="#7c5cff" stop-opacity="0.03"/><stop offset="1" stop-color="#7c5cff" stop-opacity="0"/></linearGradient><linearGradient id="bm3xs8_0" x1="0" y1="0" x2="0" y2="1"><stop offset="0" stop-color="#ffc531" stop-opacity="0.05"/><stop offset=".35" stop-color="#ffc531" stop-opacity="0.03"/><stop offset=".72" stop-color="#ffc531" stop-opacity="0.01"/><stop offset="1" stop-color="#ffc531" stop-opacity="0"/></linearGradient><linearGradient id="bm3xs8_1" x1="0" y1="0" x2="0" y2="1"><stop offset="0" stop-color="#ffc531" stop-opacity="0.11"/><stop offset=".35" stop-color="#ffc531" stop-opacity="0.06"/><stop offset=".72" stop-color="#ffc531" stop-opacity="0.02"/><stop offset="1" stop-color="#ffc531" stop-opacity="0"/></linearGradient><linearGradient id="bm3xs8_2" x1="0" y1="0" x2="0" y2="1"><stop offset="0" stop-color="#ffc531" stop-opacity="0.23"/><stop offset=".35" stop-color="#ffc531" stop-opacity="0.12"/><stop offset=".72" stop-color="#ffc531" stop-opacity="0.04"/><stop offset="1" stop-color="#ffc531" stop-opacity="0"/></linearGradient><linearGradient id="bm3xs9_0" x1="0" y1="0" x2="0" y2="1"><stop offset="0" stop-color="#ff7a18" stop-opacity="0.03"/><stop offset=".35" stop-color="#ff7a18" stop-opacity="0.01"/><stop offset=".72" stop-color="#ff7a18" stop-opacity="0"/><stop offset="1" stop-color="#ff7a18" stop-opacity="0"/></linearGradient><linearGradient id="bm3xs9_1" x1="0" y1="0" x2="0" y2="1"><stop offset="0" stop-color="#ff7a18" stop-opacity="0.06"/><stop offset=".35" stop-color="#ff7a18" stop-opacity="0.03"/><stop offset=".72" stop-color="#ff7a18" stop-opacity="0.01"/><stop offset="1" stop-color="#ff7a18" stop-opacity="0"/></linearGradient><linearGradient id="bm3xs9_2" x1="0" y1="0" x2="0" y2="1"><stop offset="0" stop-color="#ff7a18" stop-opacity="0.12"/><stop offset=".35" stop-color="#ff7a18" stop-opacity="0.06"/><stop offset=".72" stop-color="#ff7a18" stop-opacity="0.02"/><stop offset="1" stop-color="#ff7a18" stop-opacity="0"/></linearGradient><radialGradient id="bk3xs"><stop offset="0" stop-color="#fff6dd" stop-opacity=".9"/><stop offset=".4" stop-color="#ffc531" stop-opacity=".3"/><stop offset="1" stop-color="#ff7a18" stop-opacity="0"/></radialGradient></defs><rect width="900" height="1200" fill="url(#bg3xs)"/><g style="mix-blend-mode:screen"><ellipse cx="379.23" cy="696" rx="558" ry="480" fill="url(#sg3xs)"/></g><g style="mix-blend-mode:screen"><ellipse cx="782.9" cy="507.78" rx="263.52" ry="462.03" fill="url(#hz3xs0)"/><ellipse cx="548.36" cy="725.61" rx="290.96" ry="282.51" fill="url(#hz3xs1)"/><ellipse cx="603.13" cy="1013.63" rx="449.17" ry="424.57" fill="url(#hz3xs2)"/></g><g style="mix-blend-mode:screen"><polygon points="628.15,-72 655.1,-72 1526.19,1443.04 1152.9,1443.04" fill="url(#bm3xs0_0)"/><polygon points="634.66,-72 648.6,-72 1436.09,1443.04 1243,1443.04" fill="url(#bm3xs0_1)"/><polygon points="639.07,-72 644.18,-72 1374.94,1443.04 1304.15,1443.04" fill="url(#bm3xs0_2)"/><polygon points="655.28,-72 688.4,-72 1547.57,1325.25 1131.48,1325.25" fill="url(#bm3xs1_0)"/><polygon points="663.27,-72 680.4,-72 1447.13,1325.25 1231.92,1325.25" fill="url(#bm3xs1_1)"/><polygon points="668.7,-72 674.98,-72 1378.98,1325.25 1300.07,1325.25" fill="url(#bm3xs1_2)"/><polygon points="525.47,-72 547.5,-72 867.4,1097.88 466.53,1097.88" fill="url(#bm3xs2_0)"/><polygon points="530.79,-72 542.18,-72 770.64,1097.88 563.29,1097.88" fill="url(#bm3xs2_1)"/><polygon points="534.4,-72 538.57,-72 704.98,1097.88 628.95,1097.88" fill="url(#bm3xs2_2)"/><polygon points="564.8,-72 585.22,-72 472.41,1100.93 148.73,1100.93" fill="url(#bm3xs3_0)"/><polygon points="569.73,-72 580.29,-72 394.28,1100.93 226.86,1100.93" fill="url(#bm3xs3_1)"/><polygon points="573.07,-72 576.94,-72 341.26,1100.93 279.88,1100.93" fill="url(#bm3xs3_2)"/><polygon points="58.11,-72 89.34,-72 -143.06,1335.46 -503.83,1335.46" fill="url(#bm3xs4_0)"/><polygon points="65.64,-72 81.8,-72 -230.14,1335.46 -416.75,1335.46" fill="url(#bm3xs4_1)"/><polygon points="70.76,-72 76.68,-72 -289.23,1335.46 -357.66,1335.46" fill="url(#bm3xs4_2)"/><polygon points="168.98,-72 202.42,-72 -182.2,1029.4 -650.21,1029.4" fill="url(#bm3xs5_0)"/><polygon points="177.05,-72 194.35,-72 -295.17,1029.4 -537.24,1029.4" fill="url(#bm3xs5_1)"/><polygon points="182.53,-72 188.87,-72 -371.82,1029.4 -460.58,1029.4" fill="url(#bm3xs5_2)"/><polygon points="316.41,-72 342.28,-72 1354.93,1468.04 904.33,1468.04" fill="url(#bm3xs6_0)"/><polygon points="322.66,-72 336.03,-72 1246.16,1468.04 1013.09,1468.04" fill="url(#bm3xs6_1)"/><polygon points="326.89,-72 331.8,-72 1172.36,1468.04 1086.9,1468.04" fill="url(#bm3xs6_2)"/><polygon points="132.09,-72 165.26,-72 917.19,1210.69 656.19,1210.69" fill="url(#bm3xs7_0)"/><polygon points="140.1,-72 157.25,-72 854.19,1210.69 719.19,1210.69" fill="url(#bm3xs7_1)"/><polygon points="145.53,-72 151.82,-72 811.44,1210.69 761.94,1210.69" fill="url(#bm3xs7_2)"/><polygon points="426.16,-72 450.77,-72 544.66,1183.14 81.78,1183.14" fill="url(#bm3xs8_0)"/><polygon points="432.1,-72 444.83,-72 432.93,1183.14 193.51,1183.14" fill="url(#bm3xs8_1)"/><polygon points="436.13,-72 440.8,-72 357.11,1183.14 269.33,1183.14" fill="url(#bm3xs8_2)"/><polygon points="45.57,-72 71.69,-72 4.98,1457.64 -375.64,1457.64" fill="url(#bm3xs9_0)"/><polygon points="51.88,-72 65.39,-72 -86.89,1457.64 -283.77,1457.64" fill="url(#bm3xs9_1)"/><polygon points="56.16,-72 61.11,-72 -149.24,1457.64 -221.42,1457.64" fill="url(#bm3xs9_2)"/></g><g style="mix-blend-mode:screen"><circle cx="296.55" cy="115.05" r="3.09" fill="url(#bk3xs)" opacity="0.38"/><circle cx="280.35" cy="616.74" r="4.26" fill="url(#bk3xs)" opacity="0.33"/><circle cx="406.78" cy="189.98" r="1.09" fill="url(#bk3xs)" opacity="0.25"/><circle cx="893.69" cy="741.8" r="1.25" fill="url(#bk3xs)" opacity="0.62"/><circle cx="144.21" cy="268.5" r="1.91" fill="url(#bk3xs)" opacity="0.59"/><circle cx="451.29" cy="262.8" r="7.45" fill="url(#bk3xs)" opacity="0.25"/><circle cx="438.47" cy="947.3" r="1.08" fill="url(#bk3xs)" opacity="0.7"/><circle cx="445.21" cy="155.9" r="1.1" fill="url(#bk3xs)" opacity="0.54"/><circle cx="444.93" cy="863.54" r="1.16" fill="url(#bk3xs)" opacity="0.31"/><circle cx="683.74" cy="423.06" r="1.43" fill="url(#bk3xs)" opacity="0.29"/><circle cx="396.95" cy="988.52" r="1.08" fill="url(#bk3xs)" opacity="0.8"/><circle cx="134.63" cy="359.72" r="1.08" fill="url(#bk3xs)" opacity="0.84"/><circle cx="425.75" cy="766.03" r="1.2" fill="url(#bk3xs)" opacity="0.46"/><circle cx="879.89" cy="719.18" r="1.15" fill="url(#bk3xs)" opacity="0.76"/><circle cx="140.19" cy="205.22" r="9.82" fill="url(#bk3xs)" opacity="0.35"/><circle cx="659.79" cy="288.56" r="8.14" fill="url(#bk3xs)" opacity="0.56"/><circle cx="616.87" cy="777.51" r="2.92" fill="url(#bk3xs)" opacity="0.6"/><circle cx="273.57" cy="968.39" r="1.09" fill="url(#bk3xs)" opacity="0.61"/><circle cx="358.88" cy="967" r="8.97" fill="url(#bk3xs)" opacity="0.32"/><circle cx="204.53" cy="134.69" r="6.45" fill="url(#bk3xs)" opacity="0.66"/><circle cx="18.86" cy="641.8" r="8.93" fill="url(#bk3xs)" opacity="0.45"/><circle cx="779.97" cy="1002.28" r="4.74" fill="url(#bk3xs)" opacity="0.74"/><circle cx="169.71" cy="716.82" r="7.96" fill="url(#bk3xs)" opacity="0.77"/><circle cx="187.31" cy="574.45" r="5.84" fill="url(#bk3xs)" opacity="0.54"/><circle cx="237.31" cy="551.97" r="3.73" fill="url(#bk3xs)" opacity="0.65"/><circle cx="178.02" cy="562.93" r="1.53" fill="url(#bk3xs)" opacity="0.62"/><circle cx="508.04" cy="973.7" r="9.35" fill="url(#bk3xs)" opacity="0.37"/><circle cx="297.76" cy="581.13" r="10.63" fill="url(#bk3xs)" opacity="0.76"/><circle cx="499.06" cy="606.77" r="1.13" fill="url(#bk3xs)" opacity="0.63"/><circle cx="21.28" cy="370.81" r="3.84" fill="url(#bk3xs)" opacity="0.79"/><circle cx="193.34" cy="430.6" r="5.65" fill="url(#bk3xs)" opacity="0.48"/><circle cx="785.17" cy="291.1" r="3.48" fill="url(#bk3xs)" opacity="0.44"/><circle cx="45.48" cy="736.57" r="1.24" fill="url(#bk3xs)" opacity="0.51"/><circle cx="869.14" cy="241.98" r="2.1" fill="url(#bk3xs)" opacity="0.77"/><circle cx="810.62" cy="646.14" r="1.49" fill="url(#bk3xs)" opacity="0.45"/><circle cx="364.42" cy="356.16" r="9.49" fill="url(#bk3xs)" opacity="0.57"/></g><rect width="900" height="1200" fill="url(#fl3xs)"/><rect width="900" height="1200" fill="url(#vg3xs)"/></svg>