<svg xmlns="http://www.w3.org/2000/svg" viewBox="0 0 900 1200" width="900" height="1200" role="img" preserveAspectRatio="xMidYMid slice"><defs><linearGradient id="bg3xr" x1="0" y1="0" x2="0" y2="1"><stop offset="0" stop-color="#0d0d10"/><stop offset=".55" stop-color="#08080a"/><stop offset="1" stop-color="#050505"/></linearGradient><radialGradient id="vg3xr" cx=".5" cy=".48" r=".72"><stop offset=".4" stop-color="#000" stop-opacity="0"/><stop offset=".8" stop-color="#000" stop-opacity=".42"/><stop offset="1" stop-color="#000" stop-opacity=".82"/></radialGradient><linearGradient id="fl3xr" x1="0" y1="0" x2="0" y2="1"><stop offset="0" stop-color="#000" stop-opacity=".3"/><stop offset=".22" stop-color="#000" stop-opacity="0"/><stop offset=".82" stop-color="#000" stop-opacity="0"/><stop offset="1" stop-color="#000" stop-opacity=".45"/></linearGradient><radialGradient id="sg3xr" cx=".5" cy=".5" r=".5"><stop offset="0" stop-color="#ffe07a" stop-opacity=".3"/><stop offset=".3" stop-color="#ffc531" stop-opacity=".16"/><stop offset=".62" stop-color="#ff7a18" stop-opacity=".07"/><stop offset="1" stop-color="#ff7a18" stop-opacity="0"/></radialGradient><radialGradient id="hz3xr0"><stop offset="0" stop-color="#ff7a18" stop-opacity="0.1"/><stop offset=".55" stop-color="#ff7a18" stop-opacity="0.04"/><stop offset="1" stop-color="#ff7a18" stop-opacity="0"/></radialGradient><radialGradient id="hz3xr1"><stop offset="0" stop-color="#ffc531" stop-opacity="0.12"/><stop offset=".55" stop-color="#ffc531" stop-opacity="0.05"/><stop offset="1" stop-color="#ffc531" stop-opacity="0"/></radialGradient><radialGradient id="hz3xr2"><stop offset="0" stop-color="#ff7a18" stop-opacity="0.08"/><stop offset=".55" stop-color="#ff7a18" stop-opacity="0.03"/><stop offset="1" stop-color="#ff7a18" stop-opacity="0"/></radialGradient><linearGradient id="bm3xr0_0" x1="0" y1="0" x2="0" y2="1"><stop offset="0" stop-color="#ff7a18" stop-opacity="0.03"/><stop offset=".35" stop-color="#ff7a18" stop-opacity="0.01"/><stop offset=".72" stop-color="#ff7a18" stop-opacity="0"/><stop offset="1" stop-color="#ff7a18" stop-opacity="0"/></linearGradient><linearGradient id="bm3xr0_1" x1="0" y1="0" x2="0" y2="1"><stop offset="0" stop-color="#ff7a18" stop-opacity="0.05"/><stop offset=".35" stop-color="#ff7a18" stop-opacity="0.03"/><stop offset=".72" stop-color="#ff7a18" stop-opacity="0.01"/><stop offset="1" stop-color="#ff7a18" stop-opacity="0"/></linearGradient><linearGradient id="bm3xr0_2" x1="0" y1="0" x2="0" y2="1"><stop offset="0" stop-color="#ff7a18" stop-opacity="0.11"/><stop offset=".35" stop-color="#ff7a18" stop-opacity="0.06"/><stop offset=".72" stop-color="#ff7a18" stop-opacity="0.02"/><stop offset="1" stop-color="#ff7a18" stop-opacity="0"/></linearGradient><linearGradient id="bm3xr1_0" x1="0" y1="0" x2="0" y2="1"><stop offset="0" stop-color="#ff7a18" stop-opacity="0.02"/><stop offset=".35" stop-color="#ff7a18" stop-opacity="0.01"/><stop offset=".72" stop-color="#ff7a18" stop-opacity="0"/><stop offset="1" stop-color="#ff7a18" stop-opacity="0"/></linearGradient><linearGradient id="bm3xr1_1" x1="0" y1="0" x2="0" y2="1"><stop offset="0" stop-color="#ff7a18" stop-opacity="0.05"/><stop offset=".35" stop-color="#ff7a18" stop-opacity="0.03"/><stop offset=".72" stop-color="#ff7a18" stop-opacity="0.01"/><stop offset="1" stop-color="#ff7a18" stop-opacity="0"/></linearGradient><linearGradient id="bm3xr1_2" x1="0" y1="0" x2="0" y2="1"><stop offset="0" stop-color="#ff7a18" stop-opacity="0.11"/><stop offset=".35" stop-color="#ff7a18" stop-opacity="0.06"/><stop offset=".72" stop-color="#ff7a18" stop-opacity="0.02"/><stop offset="1" stop-color="#ff7a18" stop-opacity="0"/></linearGradient><linearGradient id="bm3xr2_0" x1="0" y1="0" x2="0" y2="1"><stop offset="0" stop-color="#ffe07a" stop-opacity="0.05"/><stop offset=".35" stop-color="#ffe07a" stop-opacity="0.03"/><stop offset=".72" stop-color="#ffe07a" stop-opacity="0.01"/><stop offset="1" stop-color="#ffe07a" stop-opacity="0"/></linearGradient><linearGradient id="bm3xr2_1" x1="0" y1="0" x2="0" y2="1"><stop offset="0" stop-color="#ffe07a" stop-opacity="0.11"/><stop offset=".35" stop-color="#ffe07a" stop-opacity="0.06"/><stop offset=".72" stop-color="#ffe07a" stop-opacity="0.02"/><stop offset="1" stop-color="#ffe07a" stop-opacity="0"/></linearGradient><linearGradient id="bm3xr2_2" x1="0" y1="0" x2="0" y2="1"><stop offset="0" stop-color="#ffe07a" stop-opacity="0.24"/><stop offset=".35" stop-color="#ffe07a" stop-opacity="0.12"/><stop offset=".72" stop-color="#ffe07a" stop-opacity="0.04"/><stop offset="1" stop-color="#ffe07a" stop-opacity="0"/></linearGradient><linearGradient id="bm3xr3_0" x1="0" y1="0" x2="0" y2="1"><stop offset="0" stop-color="#ffc531" stop-opacity="0.04"/><stop offset=".35" stop-color="#ffc531" stop-opacity="0.02"/><stop offset=".72" stop-color="#ffc531" stop-opacity="0.01"/><stop offset="1" stop-color="#ffc531" stop-opacity="0"/></linearGradient><linearGradient id="bm3xr3_1" x1="0" y1="0" x2="0" y2="1"><stop offset="0" stop-color="#ffc531" stop-opacity="0.08"/><stop offset=".35" stop-color="#ffc531" stop-opacity="0.04"/><stop offset=".72" stop-color="#ffc531" stop-opacity="0.01"/><stop offset="1" stop-color="#ffc531" stop-opacity="0"/></linearGradient><linearGradient id="bm3xr3_2" x1="0" y1="0" x2="0" y2="1"><stop offset="0" stop-color="#ffc531" stop-opacity="0.16"/><stop offset=".35" stop-color="#ffc531" stop-opacity="0.09"/><stop offset=".72" stop-color="#ffc531" stop-opacity="0.03"/><stop offset="1" stop-color="#ffc531" stop-opacity="0"/></linearGradient><linearGradient id="bm3xr4_0" x1="0" y1="0" x2="0" y2="1"><stop offset="0" stop-color="#ffe07a" stop-opacity="0.03"/><stop offset=".35" stop-color="#ffe07a" stop-opacity="0.01"/><stop offset=".72" stop-color="#ffe07a" stop-opacity="0"/><stop offset="1" stop-color="#ffe07a" stop-opacity="0"/></linearGradient><linearGradient id="bm3xr4_1" x1="0" y1="0" x2="0" y2="1"><stop offset="0" stop-color="#ffe07a" stop-opacity="0.06"/><stop offset=".35" stop-color="#ffe07a" stop-opacity="0.03"/><stop offset=".72" stop-color="#ffe07a" stop-opacity="0.01"/><stop offset="1" stop-color="#ffe07a" stop-opacity="0"/></linearGradient><linearGradient id="bm3xr4_2" x1="0" y1="0" x2="0" y2="1"><stop offset="0" stop-color="#ffe07a" stop-opacity="0.12"/><stop offset=".35" stop-color="#ffe07a" stop-opacity="0.06"/><stop offset=".72" stop-color="#ffe07a" stop-opacity="0.02"/><stop offset="1" stop-color="#ffe07a" stop-opacity="0"/></linearGradient><linearGradient id="bm3xr5_0" x1="0" y1="0" x2="0" y2="1"><stop offset="0" stop-color="#ffc531" stop-opacity="0.03"/><stop offset=".35" stop-color="#ffc531" stop-opacity="0.02"/><stop offset=".72" stop-color="#ffc531" stop-opacity="0"/><stop offset="1" stop-color="#ffc531" stop-opacity="0"/></linearGradient><linearGradient id="bm3xr5_1" x1="0" y1="0" x2="0" y2="1"><stop offset="0" stop-color="#ffc531" stop-opacity="0.06"/><stop offset=".35" stop-color="#ffc531" stop-opacity="0.03"/><stop offset=".72" stop-color="#ffc531" stop-opacity="0.01"/><stop offset="1" stop-color="#ffc531" stop-opacity="0"/></linearGradient><linearGradient id="bm3xr5_2" x1="0" y1="0" x2="0" y2="1"><stop offset="0" stop-color="#ffc531" stop-opacity="0.13"/><stop offset=".35" stop-color="#ffc531" stop-opacity="0.07"/><stop offset=".72" stop-color="#ffc531" stop-opacity="0.02"/><stop offset="1" stop-color="#ffc531" stop-opacity="0"/></linearGradient><linearGradient id="bm3xr6_0" x1="0" y1="0" x2="0" y2="1"><stop offset="0" stop-color="#ffc531" stop-opacity="0.05"/><stop offset=".35" stop-color="#ffc531" stop-opacity="0.03"/><stop offset=".72" stop-color="#ffc531" stop-opacity="0.01"/><stop offset="1" stop-color="#ffc531" stop-opacity="0"/></linearGradient><linearGradient id="bm3xr6_1" x1="0" y1="0" x2="0" y2="1"><stop offset="0" stop-color="#ffc531" stop-opacity="0.11"/><stop offset=".35" stop-color="#ffc531" stop-opacity="0.06"/><stop offset=".72" stop-color="#ffc531" stop-opacity="0.02"/><stop offset="1" stop-color="#ffc531" stop-opacity="0"/></linearGradient><linearGradient id="bm3xr6_2" x1="0" y1="0" x2="0" y2="1"><stop offset="0" stop-color="#ffc531" stop-opacity="0.23"/><stop offset=".35" stop-color="#ffc531" stop-opacity="0.12"/><stop offset=".72" stop-color="#ffc531" stop-opacity="0.04"/><stop offset="1" stop-color="#ffc531" stop-opacity="0"/></linearGradient><linearGradient id="bm3xr7_0" x1="0" y1="0" x2="0" y2="1"><stop offset="0" stop-color="#ff7a18" stop-opacity="0.05"/><stop offset=".35" stop-color="#ff7a18" stop-opacity="0.03"/><stop offset=".72" stop-color="#ff7a18" stop-opacity="0.01"/><stop offset="1" stop-color="#ff7a18" stop-opacity="0"/></linearGradient><linearGradient id="bm3xr7_1" x1="0" y1="0" x2="0" y2="1"><stop offset="0" stop-color="#ff7a18" stop-opacity="0.11"/><stop offset=".35" stop-color="#ff7a18" stop-opacity="0.05"/><stop offset=".72" stop-color="#ff7a18" stop-opacity="0.02"/><stop offset="1" stop-color="#ff7a18" stop-opacity="0"/></linearGradient><linearGradient id="bm3xr7_2" x1="0" y1="0" x2="0" y2="1"><stop offset="0" stop-color="#ff7a18" stop-opacity="0.22"/><stop offset=".35" stop-color="#ff7a18" stop-opacity="0.11"/><stop offset=".72" stop-color="#ff7a18" stop-opacity="0.04"/><stop offset="1" stop-color="#ff7a18" stop-opacity="0"/></linearGradient><linearGradient id="bm3xr8_0" x1="0" y1="0" x2="0" y2="1"><stop offset="0" stop-color="#ffc531" stop-opacity="0.04"/><stop offset=".35" stop-color="#ffc531" stop-opacity="0.02"/><stop offset=".72" stop-color="#ffc531" stop-opacity="0.01"/><stop offset="1" stop-color="#ffc531" stop-opacity="0"/></linearGradient><linearGradient id="bm3xr8_1" x1="0" y1="0" x2="0" y2="1"><stop offset="0" stop-color="#ffc531" stop-opacity="0.08"/><stop offset=".35" stop-color="#ffc531" stop-opacity="0.04"/><stop offset=".72" stop-color="#ffc531" stop-opacity="0.01"/><stop offset="1" stop-color="#ffc531" stop-opacity="0"/></linearGradient><linearGradient id="bm3xr8_2" x1="0" y1="0" x2="0" y2="1"><stop offset="0" stop-color="#ffc531" stop-opacity="0.17"/><stop offset=".35" stop-color="#ffc531" stop-opacity="0.09"/><stop offset=".72" stop-color="#ffc531" stop-opacity="0.03"/><stop offset="1" stop-color="#ffc531" stop-opacity="0"/></linearGradient><linearGradient id="bm3xr9_0" x1="0" y1="0" x2="0" y2="1"><stop offset="0" stop-color="#ffc531" stop-opacity="0.05"/><stop offset=".35" stop-color="#ffc531" stop-opacity="0.03"/><stop offset=".72" stop-color="#ffc531" stop-opacity="0.01"/><stop offset="1" stop-color="#ffc531" stop-opacity="0"/></linearGradient><linearGradient id="bm3xr9_1" x1="0" y1="0" x2="0" y2="1"><stop offset="0" stop-color="#ffc531" stop-opacity="0.1"/><stop offset=".35" stop-color="#ffc531" stop-opacity="0.05"/><stop offset=".72" stop-color="#ffc531" stop-opacity="0.02"/><stop offset="1" stop-color="#ffc531" stop-opacity="0"/></linearGradient><linearGradient id="bm3xr9_2" x1="0" y1="0" x2="0" y2="1"><stop offset="0" stop-color="#ffc531" stop-opacity="0.22"/><stop offset=".35" stop-color="#ffc531" stop-opacity="0.11"/><stop offset=".72" stop-color="#ffc531" stop-opacity="0.04"/><stop offset="1" stop-color="#ffc531" stop-opacity="0"/></linearGradient><radialGradient id="bk3xr"><stop offset="0" stop-color="#fff6dd" stop-opacity=".9"/><stop offset=".4" stop-color="#ffc531" stop-opacity=".3"/><stop offset="1" stop-color="#ff7a18" stop-opacity="0"/></radialGradient></defs><rect width="900" height="1200" fill="url(#bg3xr)"/><g style="mix-blend-mode:screen"><ellipse cx="525.47" cy="696" rx="558" ry="480" fill="url(#sg3xr)"/></g><g style="mix-blend-mode:screen"><ellipse cx="777.81" cy="771.42" rx="511.28" ry="370.51" fill="url(#hz3xr0)"/><ellipse cx="522.94" cy="783.44" rx="269.1" ry="446.49" fill="url(#hz3xr1)"/><ellipse cx="212.77" cy="785.01" rx="329.7" ry="314.77" fill="url(#hz3xr2)"/></g><g style="mix-blend-mode:screen"><polygon points="211.23,-72 236.18,-72 567.27,1310.46 179.09,1310.46" fill="url(#bm3xr0_0)"/><polygon points="217.25,-72 230.16,-72 473.57,1310.46 272.79,1310.46" fill="url(#bm3xr0_1)"/><polygon points="221.34,-72 226.07,-72 409.99,1310.46 336.37,1310.46" fill="url(#bm3xr0_2)"/><polygon points="395.43,-72 433.93,-72 -139.31,1384.12 -439.91,1384.12" fill="url(#bm3xr1_0)"/><polygon points="404.73,-72 424.64,-72 -211.87,1384.12 -367.35,1384.12" fill="url(#bm3xr1_1)"/><polygon points="411.03,-72 418.33,-72 -261.11,1384.12 -318.12,1384.12" fill="url(#bm3xr1_2)"/><polygon points="101.53,-72 130.99,-72 -168.37,1018.18 -577.4,1018.18" fill="url(#bm3xr2_0)"/><polygon points="108.64,-72 123.88,-72 -267.1,1018.18 -478.67,1018.18" fill="url(#bm3xr2_1)"/><polygon points="113.47,-72 119.05,-72 -334.1,1018.18 -411.67,1018.18" fill="url(#bm3xr2_2)"/><polygon points="186.27,-72 223.96,-72 262.2,1259.99 -224.66,1259.99" fill="url(#bm3xr3_0)"/><polygon points="195.37,-72 214.87,-72 144.68,1259.99 -107.14,1259.99" fill="url(#bm3xr3_1)"/><polygon points="201.54,-72 208.69,-72 64.94,1259.99 -27.4,1259.99" fill="url(#bm3xr3_2)"/><polygon points="77.27,-72 115.11,-72 22.87,1113.82 -328.7,1113.82" fill="url(#bm3xr4_0)"/><polygon points="86.41,-72 105.98,-72 -61.99,1113.82 -243.84,1113.82" fill="url(#bm3xr4_1)"/><polygon points="92.6,-72 99.78,-72 -119.58,1113.82 -186.25,1113.82" fill="url(#bm3xr4_2)"/><polygon points="455.27,-72 485.92,-72 1094.01,1032.42 778.39,1032.42" fill="url(#bm3xr5_0)"/><polygon points="462.67,-72 478.52,-72 1017.82,1032.42 854.58,1032.42" fill="url(#bm3xr5_1)"/><polygon points="467.69,-72 473.5,-72 966.13,1032.42 906.27,1032.42" fill="url(#bm3xr5_2)"/><polygon points="528.46,-72 566.97,-72 356.83,1137.24 -127.38,1137.24" fill="url(#bm3xr6_0)"/><polygon points="537.76,-72 557.68,-72 239.95,1137.24 -10.5,1137.24" fill="url(#bm3xr6_1)"/><polygon points="544.06,-72 551.37,-72 160.64,1137.24 68.81,1137.24" fill="url(#bm3xr6_2)"/><polygon points="151.91,-72 196.38,-72 21.72,1083.19 -362.09,1083.19" fill="url(#bm3xr7_0)"/><polygon points="162.64,-72 185.64,-72 -70.93,1083.19 -269.45,1083.19" fill="url(#bm3xr7_1)"/><polygon points="169.93,-72 178.36,-72 -133.79,1083.19 -206.58,1083.19" fill="url(#bm3xr7_2)"/><polygon points="747.33,-72 773.56,-72 1346.13,1294.03 887.13,1294.03" fill="url(#bm3xr8_0)"/><polygon points="753.66,-72 767.23,-72 1235.34,1294.03 997.93,1294.03" fill="url(#bm3xr8_1)"/><polygon points="757.96,-72 762.93,-72 1160.16,1294.03 1073.11,1294.03" fill="url(#bm3xr8_2)"/><polygon points="383.41,-72 429,-72 870.14,1292.16 643.55,1292.16" fill="url(#bm3xr9_0)"/><polygon points="394.41,-72 418,-72 815.44,1292.16 698.24,1292.16" fill="url(#bm3xr9_1)"/><polygon points="401.88,-72 410.53,-72 778.33,1292.16 735.36,1292.16" fill="url(#bm3xr9_2)"/></g><g style="mix-blend-mode:screen"><circle cx="861.04" cy="350.67" r="5.78" fill="url(#bk3xr)" opacity="0.8"/><circle cx="644.48" cy="496.24" r="1.08" fill="url(#bk3xr)" opacity="0.39"/><circle cx="631.09" cy="87.42" r="1.09" fill="url(#bk3xr)" opacity="0.29"/><circle cx="67.34" cy="82.94" r="1.11" fill="url(#bk3xr)" opacity="0.48"/><circle cx="622.92" cy="387.46" r="4.18" fill="url(#bk3xr)" opacity="0.66"/><circle cx="205.2" cy="368.35" r="1.76" fill="url(#bk3xr)" opacity="0.44"/><circle cx="646.87" cy="274.9" r="8.04" fill="url(#bk3xr)" opacity="0.35"/><circle cx="396.56" cy="404.58" r="1.13" fill="url(#bk3xr)" opacity="0.73"/><circle cx="148.78" cy="234.31" r="2.28" fill="url(#bk3xr)" opacity="0.65"/><circle cx="834.76" cy="648.41" r="1.22" fill="url(#bk3xr)" opacity="0.33"/><circle cx="463.93" cy="791.67" r="1.98" fill="url(#bk3xr)" opacity="0.75"/><circle cx="823.39" cy="248.73" r="1.48" fill="url(#bk3xr)" opacity="0.77"/><circle cx="773.4" cy="147.26" r="1.13" fill="url(#bk3xr)" opacity="0.79"/><circle cx="709.04" cy="391.79" r="8.45" fill="url(#bk3xr)" opacity="0.29"/><circle cx="532.08" cy="934.82" r="9.04" fill="url(#bk3xr)" opacity="0.42"/><circle cx="275.82" cy="554.12" r="10.1" fill="url(#bk3xr)" opacity="0.33"/><circle cx="725.18" cy="377.28" r="4.7" fill="url(#bk3xr)" opacity="0.51"/><circle cx="430.35" cy="127.52" r="1.28" fill="url(#bk3xr)" opacity="0.61"/><circle cx="250.51" cy="908.85" r="3.12" fill="url(#bk3xr)" opacity="0.45"/><circle cx="470.33" cy="487.07" r="1.22" fill="url(#bk3xr)" opacity="0.77"/><circle cx="570.42" cy="623.9" r="6.58" fill="url(#bk3xr)" opacity="0.54"/><circle cx="206.96" cy="836.03" r="1.14" fill="url(#bk3xr)" opacity="0.52"/><circle cx="346.2" cy="490.64" r="1.91" fill="url(#bk3xr)" opacity="0.39"/><circle cx="769.42" cy="735.3" r="8.56" fill="url(#bk3xr)" opacity="0.26"/><circle cx="724.52" cy="835.55" r="2.78" fill="url(#bk3xr)" opacity="0.38"/><circle cx="317.55" cy="457.38" r="1.16" fill="url(#bk3xr)" opacity="0.35"/><circle cx="278.59" cy="855.55" r="10.76" fill="url(#bk3xr)" opacity="0.38"/><circle cx="91.03" cy="848.42" r="3.6" fill="url(#bk3xr)" opacity="0.29"/><circle cx="291.67" cy="808.22" r="7.5" fill="url(#bk3xr)" opacity="0.43"/><circle cx="204.27" cy="164.2" r="1.33" fill="url(#bk3xr)" opacity="0.59"/><circle cx="10.95" cy="934.46" r="1.08" fill="url(#bk3xr)" opacity="0.58"/><circle cx="569.52" cy="613.44" r="2.42" fill="url(#bk3xr)" opacity="0.44"/><circle cx="319.96" cy="291.17" r="2.76" fill="url(#bk3xr)" opacity="0.69"/><circle cx="165.35" cy="106.05" r="10.39" fill="url(#bk3xr)" opacity="0.44"/><circle cx="662.66" cy="571.57" r="1.8" fill="url(#bk3xr)" opacity="0.76"/><circle cx="109.31" cy="301.68" r="1.32" fill="url(#bk3xr)" opacity="0.53"/></g><rect width="900" height="1200" fill="url(#fl3xr)"/><rect width="900" height="1200" fill="url(#vg3xr)"/></svg>