<svg xmlns="http://www.w3.org/2000/svg" viewBox="0 0 1600 1000" width="1600" height="1000" role="img" preserveAspectRatio="xMidYMid slice"><defs><linearGradient id="bg2mk" x1="0" y1="0" x2="0" y2="1"><stop offset="0" stop-color="#0d0d10"/><stop offset=".55" stop-color="#08080a"/><stop offset="1" stop-color="#050505"/></linearGradient><radialGradient id="vg2mk" cx=".5" cy=".48" r=".72"><stop offset=".4" stop-color="#000" stop-opacity="0"/><stop offset=".8" stop-color="#000" stop-opacity=".42"/><stop offset="1" stop-color="#000" stop-opacity=".82"/></radialGradient><linearGradient id="fl2mk" x1="0" y1="0" x2="0" y2="1"><stop offset="0" stop-color="#000" stop-opacity=".3"/><stop offset=".22" stop-color="#000" stop-opacity="0"/><stop offset=".82" stop-color="#000" stop-opacity="0"/><stop offset="1" stop-color="#000" stop-opacity=".45"/></linearGradient><radialGradient id="sg2mk" cx=".5" cy=".5" r=".5"><stop offset="0" stop-color="#ffe07a" stop-opacity=".3"/><stop offset=".3" stop-color="#ffc531" stop-opacity=".16"/><stop offset=".62" stop-color="#ff7a18" stop-opacity=".07"/><stop offset="1" stop-color="#ff7a18" stop-opacity="0"/></radialGradient><radialGradient id="hz2mk0"><stop offset="0" stop-color="#ff3b1f" stop-opacity="0.09"/><stop offset=".55" stop-color="#ff3b1f" stop-opacity="0.02"/><stop offset="1" stop-color="#ff3b1f" stop-opacity="0"/></radialGradient><radialGradient id="hz2mk1"><stop offset="0" stop-color="#ff7a18" stop-opacity="0.14"/><stop offset=".55" stop-color="#ff7a18" stop-opacity="0.02"/><stop offset="1" stop-color="#ff7a18" stop-opacity="0"/></radialGradient><radialGradient id="hz2mk2"><stop offset="0" stop-color="#ffc531" stop-opacity="0.06"/><stop offset=".55" stop-color="#ffc531" stop-opacity="0.02"/><stop offset="1" stop-color="#ffc531" stop-opacity="0"/></radialGradient><linearGradient id="bm2mk0_0" x1="0" y1="0" x2="0" y2="1"><stop offset="0" stop-color="#ffe07a" stop-opacity="0.03"/><stop offset=".35" stop-color="#ffe07a" stop-opacity="0.02"/><stop offset=".72" stop-color="#ffe07a" stop-opacity="0"/><stop offset="1" stop-color="#ffe07a" stop-opacity="0"/></linearGradient><linearGradient id="bm2mk0_1" x1="0" y1="0" x2="0" y2="1"><stop offset="0" stop-color="#ffe07a" stop-opacity="0.06"/><stop offset=".35" stop-color="#ffe07a" stop-opacity="0.03"/><stop offset=".72" stop-color="#ffe07a" stop-opacity="0.01"/><stop offset="1" stop-color="#ffe07a" stop-opacity="0"/></linearGradient><linearGradient id="bm2mk0_2" x1="0" y1="0" x2="0" y2="1"><stop offset="0" stop-color="#ffe07a" stop-opacity="0.13"/><stop offset=".35" stop-color="#ffe07a" stop-opacity="0.07"/><stop offset=".72" stop-color="#ffe07a" stop-opacity="0.02"/><stop offset="1" stop-color="#ffe07a" stop-opacity="0"/></linearGradient><linearGradient id="bm2mk1_0" x1="0" y1="0" x2="0" y2="1"><stop offset="0" stop-color="#7c5cff" stop-opacity="0.04"/><stop offset=".35" stop-color="#7c5cff" stop-opacity="0.02"/><stop offset=".72" stop-color="#7c5cff" stop-opacity="0.01"/><stop offset="1" stop-color="#7c5cff" stop-opacity="0"/></linearGradient><linearGradient id="bm2mk1_1" x1="0" y1="0" x2="0" y2="1"><stop offset="0" stop-color="#7c5cff" stop-opacity="0.09"/><stop offset=".35" stop-color="#7c5cff" stop-opacity="0.05"/><stop offset=".72" stop-color="#7c5cff" stop-opacity="0.01"/><stop offset="1" stop-color="#7c5cff" stop-opacity="0"/></linearGradient><linearGradient id="bm2mk1_2" x1="0" y1="0" x2="0" y2="1"><stop offset="0" stop-color="#7c5cff" stop-opacity="0.18"/><stop offset=".35" stop-color="#7c5cff" stop-opacity="0.09"/><stop offset=".72" stop-color="#7c5cff" stop-opacity="0.03"/><stop offset="1" stop-color="#7c5cff" stop-opacity="0"/></linearGradient><linearGradient id="bm2mk2_0" x1="0" y1="0" x2="0" y2="1"><stop offset="0" stop-color="#ff7a18" stop-opacity="0.04"/><stop offset=".35" stop-color="#ff7a18" stop-opacity="0.02"/><stop offset=".72" stop-color="#ff7a18" stop-opacity="0.01"/><stop offset="1" stop-color="#ff7a18" stop-opacity="0"/></linearGradient><linearGradient id="bm2mk2_1" x1="0" y1="0" x2="0" y2="1"><stop offset="0" stop-color="#ff7a18" stop-opacity="0.09"/><stop offset=".35" stop-color="#ff7a18" stop-opacity="0.05"/><stop offset=".72" stop-color="#ff7a18" stop-opacity="0.01"/><stop offset="1" stop-color="#ff7a18" stop-opacity="0"/></linearGradient><linearGradient id="bm2mk2_2" x1="0" y1="0" x2="0" y2="1"><stop offset="0" stop-color="#ff7a18" stop-opacity="0.19"/><stop offset=".35" stop-color="#ff7a18" stop-opacity="0.1"/><stop offset=".72" stop-color="#ff7a18" stop-opacity="0.03"/><stop offset="1" stop-color="#ff7a18" stop-opacity="0"/></linearGradient><linearGradient id="bm2mk3_0" x1="0" y1="0" x2="0" y2="1"><stop offset="0" stop-color="#ff7a18" stop-opacity="0.03"/><stop offset=".35" stop-color="#ff7a18" stop-opacity="0.02"/><stop offset=".72" stop-color="#ff7a18" stop-opacity="0.01"/><stop offset="1" stop-color="#ff7a18" stop-opacity="0"/></linearGradient><linearGradient id="bm2mk3_1" x1="0" y1="0" x2="0" y2="1"><stop offset="0" stop-color="#ff7a18" stop-opacity="0.07"/><stop offset=".35" stop-color="#ff7a18" stop-opacity="0.04"/><stop offset=".72" stop-color="#ff7a18" stop-opacity="0.01"/><stop offset="1" stop-color="#ff7a18" stop-opacity="0"/></linearGradient><linearGradient id="bm2mk3_2" x1="0" y1="0" x2="0" y2="1"><stop offset="0" stop-color="#ff7a18" stop-opacity="0.14"/><stop offset=".35" stop-color="#ff7a18" stop-opacity="0.07"/><stop offset=".72" stop-color="#ff7a18" stop-opacity="0.02"/><stop offset="1" stop-color="#ff7a18" stop-opacity="0"/></linearGradient><linearGradient id="bm2mk4_0" x1="0" y1="0" x2="0" y2="1"><stop offset="0" stop-color="#ffc531" stop-opacity="0.04"/><stop offset=".35" stop-color="#ffc531" stop-opacity="0.02"/><stop offset=".72" stop-color="#ffc531" stop-opacity="0.01"/><stop offset="1" stop-color="#ffc531" stop-opacity="0"/></linearGradient><linearGradient id="bm2mk4_1" x1="0" y1="0" x2="0" y2="1"><stop offset="0" stop-color="#ffc531" stop-opacity="0.09"/><stop offset=".35" stop-color="#ffc531" stop-opacity="0.05"/><stop offset=".72" stop-color="#ffc531" stop-opacity="0.01"/><stop offset="1" stop-color="#ffc531" stop-opacity="0"/></linearGradient><linearGradient id="bm2mk4_2" x1="0" y1="0" x2="0" y2="1"><stop offset="0" stop-color="#ffc531" stop-opacity="0.19"/><stop offset=".35" stop-color="#ffc531" stop-opacity="0.1"/><stop offset=".72" stop-color="#ffc531" stop-opacity="0.03"/><stop offset="1" stop-color="#ffc531" stop-opacity="0"/></linearGradient><linearGradient id="bm2mk5_0" x1="0" y1="0" x2="0" y2="1"><stop offset="0" stop-color="#ffc531" stop-opacity="0.05"/><stop offset=".35" stop-color="#ffc531" stop-opacity="0.03"/><stop offset=".72" stop-color="#ffc531" stop-opacity="0.01"/><stop offset="1" stop-color="#ffc531" stop-opacity="0"/></linearGradient><linearGradient id="bm2mk5_1" x1="0" y1="0" x2="0" y2="1"><stop offset="0" stop-color="#ffc531" stop-opacity="0.1"/><stop offset=".35" stop-color="#ffc531" stop-opacity="0.05"/><stop offset=".72" stop-color="#ffc531" stop-opacity="0.02"/><stop offset="1" stop-color="#ffc531" stop-opacity="0"/></linearGradient><linearGradient id="bm2mk5_2" x1="0" y1="0" x2="0" y2="1"><stop offset="0" stop-color="#ffc531" stop-opacity="0.21"/><stop offset=".35" stop-color="#ffc531" stop-opacity="0.11"/><stop offset=".72" stop-color="#ffc531" stop-opacity="0.03"/><stop offset="1" stop-color="#ffc531" stop-opacity="0"/></linearGradient><linearGradient id="bm2mk6_0" x1="0" y1="0" x2="0" y2="1"><stop offset="0" stop-color="#ffc531" stop-opacity="0.04"/><stop offset=".35" stop-color="#ffc531" stop-opacity="0.02"/><stop offset=".72" stop-color="#ffc531" stop-opacity="0.01"/><stop offset="1" stop-color="#ffc531" stop-opacity="0"/></linearGradient><linearGradient id="bm2mk6_1" x1="0" y1="0" x2="0" y2="1"><stop offset="0" stop-color="#ffc531" stop-opacity="0.08"/><stop offset=".35" stop-color="#ffc531" stop-opacity="0.04"/><stop offset=".72" stop-color="#ffc531" stop-opacity="0.01"/><stop offset="1" stop-color="#ffc531" stop-opacity="0"/></linearGradient><linearGradient id="bm2mk6_2" x1="0" y1="0" x2="0" y2="1"><stop offset="0" stop-color="#ffc531" stop-opacity="0.17"/><stop offset=".35" stop-color="#ffc531" stop-opacity="0.09"/><stop offset=".72" stop-color="#ffc531" stop-opacity="0.03"/><stop offset="1" stop-color="#ffc531" stop-opacity="0"/></linearGradient><linearGradient id="bm2mk7_0" x1="0" y1="0" x2="0" y2="1"><stop offset="0" stop-color="#ffe07a" stop-opacity="0.05"/><stop offset=".35" stop-color="#ffe07a" stop-opacity="0.02"/><stop offset=".72" stop-color="#ffe07a" stop-opacity="0.01"/><stop offset="1" stop-color="#ffe07a" stop-opacity="0"/></linearGradient><linearGradient id="bm2mk7_1" x1="0" y1="0" x2="0" y2="1"><stop offset="0" stop-color="#ffe07a" stop-opacity="0.1"/><stop offset=".35" stop-color="#ffe07a" stop-opacity="0.05"/><stop offset=".72" stop-color="#ffe07a" stop-opacity="0.02"/><stop offset="1" stop-color="#ffe07a" stop-opacity="0"/></linearGradient><linearGradient id="bm2mk7_2" x1="0" y1="0" x2="0" y2="1"><stop offset="0" stop-color="#ffe07a" stop-opacity="0.21"/><stop offset=".35" stop-color="#ffe07a" stop-opacity="0.11"/><stop offset=".72" stop-color="#ffe07a" stop-opacity="0.03"/><stop offset="1" stop-color="#ffe07a" stop-opacity="0"/></linearGradient><linearGradient id="bm2mk8_0" x1="0" y1="0" x2="0" y2="1"><stop offset="0" stop-color="#ff7a18" stop-opacity="0.05"/><stop offset=".35" stop-color="#ff7a18" stop-opacity="0.03"/><stop offset=".72" stop-color="#ff7a18" stop-opacity="0.01"/><stop offset="1" stop-color="#ff7a18" stop-opacity="0"/></linearGradient><linearGradient id="bm2mk8_1" x1="0" y1="0" x2="0" y2="1"><stop offset="0" stop-color="#ff7a18" stop-opacity="0.1"/><stop offset=".35" stop-color="#ff7a18" stop-opacity="0.05"/><stop offset=".72" stop-color="#ff7a18" stop-opacity="0.02"/><stop offset="1" stop-color="#ff7a18" stop-opacity="0"/></linearGradient><linearGradient id="bm2mk8_2" x1="0" y1="0" x2="0" y2="1"><stop offset="0" stop-color="#ff7a18" stop-opacity="0.22"/><stop offset=".35" stop-color="#ff7a18" stop-opacity="0.11"/><stop offset=".72" stop-color="#ff7a18" stop-opacity="0.04"/><stop offset="1" stop-color="#ff7a18" stop-opacity="0"/></linearGradient><radialGradient id="bk2mk"><stop offset="0" stop-color="#fff6dd" stop-opacity=".9"/><stop offset=".4" stop-color="#ffc531" stop-opacity=".3"/><stop offset="1" stop-color="#ff7a18" stop-opacity="0"/></radialGradient></defs><rect width="1600" height="1000" fill="url(#bg2mk)"/><g style="mix-blend-mode:screen"><ellipse cx="984.11" cy="580" rx="992" ry="400" fill="url(#sg2mk)"/></g><g style="mix-blend-mode:screen"><ellipse cx="353.81" cy="485.71" rx="475.06" ry="196.43" fill="url(#hz2mk0)"/><ellipse cx="1327.68" cy="574.42" rx="933.67" ry="398.44" fill="url(#hz2mk1)"/><ellipse cx="1386.82" cy="410.74" rx="926.22" ry="187.85" fill="url(#hz2mk2)"/></g><g style="mix-blend-mode:screen"><polygon points="120.28,-60 156.41,-60 336.18,1248.58 -356.63,1248.58" fill="url(#bm2mk0_0)"/><polygon points="129,-60 147.69,-60 168.95,1248.58 -189.4,1248.58" fill="url(#bm2mk0_1)"/><polygon points="134.92,-60 141.77,-60 55.47,1248.58 -75.92,1248.58" fill="url(#bm2mk0_2)"/><polygon points="784.19,-60 815.86,-60 634.1,1057.58 -141.11,1057.58" fill="url(#bm2mk1_0)"/><polygon points="791.83,-60 808.21,-60 446.98,1057.58 46.01,1057.58" fill="url(#bm2mk1_1)"/><polygon points="797.02,-60 803.03,-60 320.01,1057.58 172.99,1057.58" fill="url(#bm2mk1_2)"/><polygon points="406.2,-60 480.97,-60 90.92,1202.51 -462.99,1202.51" fill="url(#bm2mk2_0)"/><polygon points="424.25,-60 462.92,-60 -42.78,1202.51 -329.29,1202.51" fill="url(#bm2mk2_1)"/><polygon points="436.49,-60 450.67,-60 -133.51,1202.51 -238.56,1202.51" fill="url(#bm2mk2_2)"/><polygon points="497.55,-60 535.46,-60 324.19,1153.82 28.27,1153.82" fill="url(#bm2mk3_0)"/><polygon points="506.7,-60 526.31,-60 252.76,1153.82 99.7,1153.82" fill="url(#bm2mk3_1)"/><polygon points="512.91,-60 520.1,-60 204.29,1153.82 148.17,1153.82" fill="url(#bm2mk3_2)"/><polygon points="921.01,-60 963.4,-60 1123.7,852.71 706.66,852.71" fill="url(#bm2mk4_0)"/><polygon points="931.24,-60 953.17,-60 1023.03,852.71 807.32,852.71" fill="url(#bm2mk4_1)"/><polygon points="938.18,-60 946.22,-60 954.72,852.71 875.63,852.71" fill="url(#bm2mk4_2)"/><polygon points="1067.05,-60 1143.15,-60 1813.21,884.24 1100.29,884.24" fill="url(#bm2mk5_0)"/><polygon points="1085.42,-60 1124.78,-60 1641.13,884.24 1272.37,884.24" fill="url(#bm2mk5_1)"/><polygon points="1097.88,-60 1112.32,-60 1524.36,884.24 1389.15,884.24" fill="url(#bm2mk5_2)"/><polygon points="334.86,-60 383.88,-60 1099.8,1155.31 678.76,1155.31" fill="url(#bm2mk6_0)"/><polygon points="346.69,-60 372.05,-60 998.17,1155.31 780.39,1155.31" fill="url(#bm2mk6_1)"/><polygon points="354.72,-60 364.02,-60 929.21,1155.31 849.35,1155.31" fill="url(#bm2mk6_2)"/><polygon points="1438.17,-60 1474.86,-60 1594.08,905.81 795.13,905.81" fill="url(#bm2mk7_0)"/><polygon points="1447.02,-60 1466,-60 1401.23,905.81 987.98,905.81" fill="url(#bm2mk7_1)"/><polygon points="1453.03,-60 1459.99,-60 1270.37,905.81 1118.84,905.81" fill="url(#bm2mk7_2)"/><polygon points="167.03,-60 249.38,-60 544.4,906.42 133.85,906.42" fill="url(#bm2mk8_0)"/><polygon points="186.91,-60 229.5,-60 445.3,906.42 232.94,906.42" fill="url(#bm2mk8_1)"/><polygon points="200.4,-60 216.02,-60 378.05,906.42 300.19,906.42" fill="url(#bm2mk8_2)"/></g><g style="mix-blend-mode:screen"><circle cx="1295.77" cy="718.82" r="6.8" fill="url(#bk2mk)" opacity="0.67"/><circle cx="21.27" cy="699.67" r="5.66" fill="url(#bk2mk)" opacity="0.35"/><circle cx="802.19" cy="839.29" r="9.62" fill="url(#bk2mk)" opacity="0.68"/><circle cx="492.78" cy="437.28" r="3.62" fill="url(#bk2mk)" opacity="0.5"/><circle cx="1297.05" cy="283.81" r="2.2" fill="url(#bk2mk)" opacity="0.74"/><circle cx="514.64" cy="238.54" r="9.19" fill="url(#bk2mk)" opacity="0.41"/><circle cx="883.17" cy="458.4" r="18.03" fill="url(#bk2mk)" opacity="0.71"/><circle cx="77.56" cy="371.31" r="9.65" fill="url(#bk2mk)" opacity="0.52"/><circle cx="1484.06" cy="818.4" r="7.5" fill="url(#bk2mk)" opacity="0.31"/><circle cx="594.98" cy="386.2" r="14.49" fill="url(#bk2mk)" opacity="0.82"/><circle cx="849.98" cy="234.15" r="2.75" fill="url(#bk2mk)" opacity="0.4"/><circle cx="1239.86" cy="784.27" r="18.14" fill="url(#bk2mk)" opacity="0.76"/><circle cx="855.95" cy="111.64" r="5.41" fill="url(#bk2mk)" opacity="0.32"/><circle cx="1374.71" cy="670.59" r="7.11" fill="url(#bk2mk)" opacity="0.78"/><circle cx="31.06" cy="82.59" r="7.33" fill="url(#bk2mk)" opacity="0.44"/><circle cx="366.34" cy="743.93" r="2.12" fill="url(#bk2mk)" opacity="0.65"/><circle cx="958.58" cy="190.04" r="13.74" fill="url(#bk2mk)" opacity="0.74"/><circle cx="689.89" cy="512.4" r="2.02" fill="url(#bk2mk)" opacity="0.67"/><circle cx="1325.14" cy="304.91" r="3.36" fill="url(#bk2mk)" opacity="0.52"/><circle cx="307.88" cy="352.24" r="3.94" fill="url(#bk2mk)" opacity="0.27"/><circle cx="526.12" cy="249.6" r="11.67" fill="url(#bk2mk)" opacity="0.4"/><circle cx="633.11" cy="513.83" r="12.23" fill="url(#bk2mk)" opacity="0.5"/><circle cx="931.29" cy="360.64" r="3.74" fill="url(#bk2mk)" opacity="0.34"/><circle cx="800.89" cy="628.23" r="2.1" fill="url(#bk2mk)" opacity="0.3"/><circle cx="1560.25" cy="260.17" r="2.95" fill="url(#bk2mk)" opacity="0.73"/><circle cx="892.09" cy="428.93" r="1.93" fill="url(#bk2mk)" opacity="0.46"/><circle cx="953.8" cy="601.69" r="2.16" fill="url(#bk2mk)" opacity="0.33"/><circle cx="927.84" cy="817.84" r="6.54" fill="url(#bk2mk)" opacity="0.54"/><circle cx="466.13" cy="72.92" r="16.46" fill="url(#bk2mk)" opacity="0.45"/><circle cx="1097.58" cy="80.66" r="19.5" fill="url(#bk2mk)" opacity="0.84"/><circle cx="970.04" cy="453.85" r="1.94" fill="url(#bk2mk)" opacity="0.44"/><circle cx="1477.13" cy="433.12" r="2.09" fill="url(#bk2mk)" opacity="0.29"/><circle cx="632.74" cy="127.36" r="6.16" fill="url(#bk2mk)" opacity="0.79"/></g><rect width="1600" height="1000" fill="url(#fl2mk)"/><rect width="1600" height="1000" fill="url(#vg2mk)"/></svg>