<svg xmlns="http://www.w3.org/2000/svg" viewBox="0 0 1200 1200" width="1200" height="1200" role="img" preserveAspectRatio="xMidYMid slice"><defs><linearGradient id="bg38p" x1="0" y1="0" x2="0" y2="1"><stop offset="0" stop-color="#0d0d10"/><stop offset=".55" stop-color="#08080a"/><stop offset="1" stop-color="#050505"/></linearGradient><radialGradient id="vg38p" cx=".5" cy=".48" r=".72"><stop offset=".4" stop-color="#000" stop-opacity="0"/><stop offset=".8" stop-color="#000" stop-opacity=".42"/><stop offset="1" stop-color="#000" stop-opacity=".82"/></radialGradient><linearGradient id="fl38p" x1="0" y1="0" x2="0" y2="1"><stop offset="0" stop-color="#000" stop-opacity=".3"/><stop offset=".22" stop-color="#000" stop-opacity="0"/><stop offset=".82" stop-color="#000" stop-opacity="0"/><stop offset="1" stop-color="#000" stop-opacity=".45"/></linearGradient><radialGradient id="sg38p" cx=".5" cy=".5" r=".5"><stop offset="0" stop-color="#ffe07a" stop-opacity=".3"/><stop offset=".3" stop-color="#ffc531" stop-opacity=".16"/><stop offset=".62" stop-color="#ff7a18" stop-opacity=".07"/><stop offset="1" stop-color="#ff7a18" stop-opacity="0"/></radialGradient><radialGradient id="hz38p0"><stop offset="0" stop-color="#ff3b1f" stop-opacity="0.13"/><stop offset=".55" stop-color="#ff3b1f" stop-opacity="0.02"/><stop offset="1" stop-color="#ff3b1f" stop-opacity="0"/></radialGradient><radialGradient id="hz38p1"><stop offset="0" stop-color="#ff7a18" stop-opacity="0.12"/><stop offset=".55" stop-color="#ff7a18" stop-opacity="0.03"/><stop offset="1" stop-color="#ff7a18" stop-opacity="0"/></radialGradient><radialGradient id="hz38p2"><stop offset="0" stop-color="#ffc531" stop-opacity="0.08"/><stop offset=".55" stop-color="#ffc531" stop-opacity="0.04"/><stop offset="1" stop-color="#ffc531" stop-opacity="0"/></radialGradient><radialGradient id="hz38p3"><stop offset="0" stop-color="#ff3b1f" stop-opacity="0.06"/><stop offset=".55" stop-color="#ff3b1f" stop-opacity="0.04"/><stop offset="1" stop-color="#ff3b1f" stop-opacity="0"/></radialGradient><linearGradient id="bm38p0_0" x1="0" y1="0" x2="0" y2="1"><stop offset="0" stop-color="#ff7a18" stop-opacity="0.05"/><stop offset=".35" stop-color="#ff7a18" stop-opacity="0.03"/><stop offset=".72" stop-color="#ff7a18" stop-opacity="0.01"/><stop offset="1" stop-color="#ff7a18" stop-opacity="0"/></linearGradient><linearGradient id="bm38p0_1" x1="0" y1="0" x2="0" y2="1"><stop offset="0" stop-color="#ff7a18" stop-opacity="0.11"/><stop offset=".35" stop-color="#ff7a18" stop-opacity="0.06"/><stop offset=".72" stop-color="#ff7a18" stop-opacity="0.02"/><stop offset="1" stop-color="#ff7a18" stop-opacity="0"/></linearGradient><linearGradient id="bm38p0_2" x1="0" y1="0" x2="0" y2="1"><stop offset="0" stop-color="#ff7a18" stop-opacity="0.23"/><stop offset=".35" stop-color="#ff7a18" stop-opacity="0.12"/><stop offset=".72" stop-color="#ff7a18" stop-opacity="0.04"/><stop offset="1" stop-color="#ff7a18" stop-opacity="0"/></linearGradient><linearGradient id="bm38p1_0" x1="0" y1="0" x2="0" y2="1"><stop offset="0" stop-color="#ff7a18" stop-opacity="0.04"/><stop offset=".35" stop-color="#ff7a18" stop-opacity="0.02"/><stop offset=".72" stop-color="#ff7a18" stop-opacity="0.01"/><stop offset="1" stop-color="#ff7a18" stop-opacity="0"/></linearGradient><linearGradient id="bm38p1_1" x1="0" y1="0" x2="0" y2="1"><stop offset="0" stop-color="#ff7a18" stop-opacity="0.09"/><stop offset=".35" stop-color="#ff7a18" stop-opacity="0.05"/><stop offset=".72" stop-color="#ff7a18" stop-opacity="0.01"/><stop offset="1" stop-color="#ff7a18" stop-opacity="0"/></linearGradient><linearGradient id="bm38p1_2" x1="0" y1="0" x2="0" y2="1"><stop offset="0" stop-color="#ff7a18" stop-opacity="0.19"/><stop offset=".35" stop-color="#ff7a18" stop-opacity="0.1"/><stop offset=".72" stop-color="#ff7a18" stop-opacity="0.03"/><stop offset="1" stop-color="#ff7a18" stop-opacity="0"/></linearGradient><linearGradient id="bm38p2_0" x1="0" y1="0" x2="0" y2="1"><stop offset="0" stop-color="#ffc531" stop-opacity="0.03"/><stop offset=".35" stop-color="#ffc531" stop-opacity="0.02"/><stop offset=".72" stop-color="#ffc531" stop-opacity="0.01"/><stop offset="1" stop-color="#ffc531" stop-opacity="0"/></linearGradient><linearGradient id="bm38p2_1" x1="0" y1="0" x2="0" y2="1"><stop offset="0" stop-color="#ffc531" stop-opacity="0.07"/><stop offset=".35" stop-color="#ffc531" stop-opacity="0.04"/><stop offset=".72" stop-color="#ffc531" stop-opacity="0.01"/><stop offset="1" stop-color="#ffc531" stop-opacity="0"/></linearGradient><linearGradient id="bm38p2_2" x1="0" y1="0" x2="0" y2="1"><stop offset="0" stop-color="#ffc531" stop-opacity="0.14"/><stop offset=".35" stop-color="#ffc531" stop-opacity="0.07"/><stop offset=".72" stop-color="#ffc531" stop-opacity="0.02"/><stop offset="1" stop-color="#ffc531" stop-opacity="0"/></linearGradient><linearGradient id="bm38p3_0" x1="0" y1="0" x2="0" y2="1"><stop offset="0" stop-color="#ffe07a" stop-opacity="0.03"/><stop offset=".35" stop-color="#ffe07a" stop-opacity="0.02"/><stop offset=".72" stop-color="#ffe07a" stop-opacity="0.01"/><stop offset="1" stop-color="#ffe07a" stop-opacity="0"/></linearGradient><linearGradient id="bm38p3_1" x1="0" y1="0" x2="0" y2="1"><stop offset="0" stop-color="#ffe07a" stop-opacity="0.07"/><stop offset=".35" stop-color="#ffe07a" stop-opacity="0.03"/><stop offset=".72" stop-color="#ffe07a" stop-opacity="0.01"/><stop offset="1" stop-color="#ffe07a" stop-opacity="0"/></linearGradient><linearGradient id="bm38p3_2" x1="0" y1="0" x2="0" y2="1"><stop offset="0" stop-color="#ffe07a" stop-opacity="0.14"/><stop offset=".35" stop-color="#ffe07a" stop-opacity="0.07"/><stop offset=".72" stop-color="#ffe07a" stop-opacity="0.02"/><stop offset="1" stop-color="#ffe07a" stop-opacity="0"/></linearGradient><linearGradient id="bm38p4_0" x1="0" y1="0" x2="0" y2="1"><stop offset="0" stop-color="#ffe07a" stop-opacity="0.05"/><stop offset=".35" stop-color="#ffe07a" stop-opacity="0.03"/><stop offset=".72" stop-color="#ffe07a" stop-opacity="0.01"/><stop offset="1" stop-color="#ffe07a" stop-opacity="0"/></linearGradient><linearGradient id="bm38p4_1" x1="0" y1="0" x2="0" y2="1"><stop offset="0" stop-color="#ffe07a" stop-opacity="0.11"/><stop offset=".35" stop-color="#ffe07a" stop-opacity="0.05"/><stop offset=".72" stop-color="#ffe07a" stop-opacity="0.02"/><stop offset="1" stop-color="#ffe07a" stop-opacity="0"/></linearGradient><linearGradient id="bm38p4_2" x1="0" y1="0" x2="0" y2="1"><stop offset="0" stop-color="#ffe07a" stop-opacity="0.22"/><stop offset=".35" stop-color="#ffe07a" stop-opacity="0.11"/><stop offset=".72" stop-color="#ffe07a" stop-opacity="0.04"/><stop offset="1" stop-color="#ffe07a" stop-opacity="0"/></linearGradient><linearGradient id="bm38p5_0" x1="0" y1="0" x2="0" y2="1"><stop offset="0" stop-color="#ff7a18" stop-opacity="0.04"/><stop offset=".35" stop-color="#ff7a18" stop-opacity="0.02"/><stop offset=".72" stop-color="#ff7a18" stop-opacity="0.01"/><stop offset="1" stop-color="#ff7a18" stop-opacity="0"/></linearGradient><linearGradient id="bm38p5_1" x1="0" y1="0" x2="0" y2="1"><stop offset="0" stop-color="#ff7a18" stop-opacity="0.09"/><stop offset=".35" stop-color="#ff7a18" stop-opacity="0.05"/><stop offset=".72" stop-color="#ff7a18" stop-opacity="0.01"/><stop offset="1" stop-color="#ff7a18" stop-opacity="0"/></linearGradient><linearGradient id="bm38p5_2" x1="0" y1="0" x2="0" y2="1"><stop offset="0" stop-color="#ff7a18" stop-opacity="0.19"/><stop offset=".35" stop-color="#ff7a18" stop-opacity="0.1"/><stop offset=".72" stop-color="#ff7a18" stop-opacity="0.03"/><stop offset="1" stop-color="#ff7a18" stop-opacity="0"/></linearGradient><linearGradient id="bm38p6_0" x1="0" y1="0" x2="0" y2="1"><stop offset="0" stop-color="#ff7a18" stop-opacity="0.02"/><stop offset=".35" stop-color="#ff7a18" stop-opacity="0.01"/><stop offset=".72" stop-color="#ff7a18" stop-opacity="0"/><stop offset="1" stop-color="#ff7a18" stop-opacity="0"/></linearGradient><linearGradient id="bm38p6_1" x1="0" y1="0" x2="0" y2="1"><stop offset="0" stop-color="#ff7a18" stop-opacity="0.05"/><stop offset=".35" stop-color="#ff7a18" stop-opacity="0.03"/><stop offset=".72" stop-color="#ff7a18" stop-opacity="0.01"/><stop offset="1" stop-color="#ff7a18" stop-opacity="0"/></linearGradient><linearGradient id="bm38p6_2" x1="0" y1="0" x2="0" y2="1"><stop offset="0" stop-color="#ff7a18" stop-opacity="0.1"/><stop offset=".35" stop-color="#ff7a18" stop-opacity="0.05"/><stop offset=".72" stop-color="#ff7a18" stop-opacity="0.02"/><stop offset="1" stop-color="#ff7a18" stop-opacity="0"/></linearGradient><linearGradient id="bm38p7_0" x1="0" y1="0" x2="0" y2="1"><stop offset="0" stop-color="#ff7a18" stop-opacity="0.04"/><stop offset=".35" stop-color="#ff7a18" stop-opacity="0.02"/><stop offset=".72" stop-color="#ff7a18" stop-opacity="0.01"/><stop offset="1" stop-color="#ff7a18" stop-opacity="0"/></linearGradient><linearGradient id="bm38p7_1" x1="0" y1="0" x2="0" y2="1"><stop offset="0" stop-color="#ff7a18" stop-opacity="0.09"/><stop offset=".35" stop-color="#ff7a18" stop-opacity="0.04"/><stop offset=".72" stop-color="#ff7a18" stop-opacity="0.01"/><stop offset="1" stop-color="#ff7a18" stop-opacity="0"/></linearGradient><linearGradient id="bm38p7_2" x1="0" y1="0" x2="0" y2="1"><stop offset="0" stop-color="#ff7a18" stop-opacity="0.18"/><stop offset=".35" stop-color="#ff7a18" stop-opacity="0.09"/><stop offset=".72" stop-color="#ff7a18" stop-opacity="0.03"/><stop offset="1" stop-color="#ff7a18" stop-opacity="0"/></linearGradient><linearGradient id="bm38p8_0" x1="0" y1="0" x2="0" y2="1"><stop offset="0" stop-color="#ffc531" stop-opacity="0.05"/><stop offset=".35" stop-color="#ffc531" stop-opacity="0.02"/><stop offset=".72" stop-color="#ffc531" stop-opacity="0.01"/><stop offset="1" stop-color="#ffc531" stop-opacity="0"/></linearGradient><linearGradient id="bm38p8_1" x1="0" y1="0" x2="0" y2="1"><stop offset="0" stop-color="#ffc531" stop-opacity="0.1"/><stop offset=".35" stop-color="#ffc531" stop-opacity="0.05"/><stop offset=".72" stop-color="#ffc531" stop-opacity="0.02"/><stop offset="1" stop-color="#ffc531" stop-opacity="0"/></linearGradient><linearGradient id="bm38p8_2" x1="0" y1="0" x2="0" y2="1"><stop offset="0" stop-color="#ffc531" stop-opacity="0.2"/><stop offset=".35" stop-color="#ffc531" stop-opacity="0.11"/><stop offset=".72" stop-color="#ffc531" stop-opacity="0.03"/><stop offset="1" stop-color="#ffc531" stop-opacity="0"/></linearGradient><linearGradient id="bm38p9_0" x1="0" y1="0" x2="0" y2="1"><stop offset="0" stop-color="#ffe07a" stop-opacity="0.04"/><stop offset=".35" stop-color="#ffe07a" stop-opacity="0.02"/><stop offset=".72" stop-color="#ffe07a" stop-opacity="0.01"/><stop offset="1" stop-color="#ffe07a" stop-opacity="0"/></linearGradient><linearGradient id="bm38p9_1" x1="0" y1="0" x2="0" y2="1"><stop offset="0" stop-color="#ffe07a" stop-opacity="0.09"/><stop offset=".35" stop-color="#ffe07a" stop-opacity="0.05"/><stop offset=".72" stop-color="#ffe07a" stop-opacity="0.01"/><stop offset="1" stop-color="#ffe07a" stop-opacity="0"/></linearGradient><linearGradient id="bm38p9_2" x1="0" y1="0" x2="0" y2="1"><stop offset="0" stop-color="#ffe07a" stop-opacity="0.18"/><stop offset=".35" stop-color="#ffe07a" stop-opacity="0.1"/><stop offset=".72" stop-color="#ffe07a" stop-opacity="0.03"/><stop offset="1" stop-color="#ffe07a" stop-opacity="0"/></linearGradient><linearGradient id="bm38p10_0" x1="0" y1="0" x2="0" y2="1"><stop offset="0" stop-color="#ff7a18" stop-opacity="0.03"/><stop offset=".35" stop-color="#ff7a18" stop-opacity="0.02"/><stop offset=".72" stop-color="#ff7a18" stop-opacity="0.01"/><stop offset="1" stop-color="#ff7a18" stop-opacity="0"/></linearGradient><linearGradient id="bm38p10_1" x1="0" y1="0" x2="0" y2="1"><stop offset="0" stop-color="#ff7a18" stop-opacity="0.07"/><stop offset=".35" stop-color="#ff7a18" stop-opacity="0.04"/><stop offset=".72" stop-color="#ff7a18" stop-opacity="0.01"/><stop offset="1" stop-color="#ff7a18" stop-opacity="0"/></linearGradient><linearGradient id="bm38p10_2" x1="0" y1="0" x2="0" y2="1"><stop offset="0" stop-color="#ff7a18" stop-opacity="0.14"/><stop offset=".35" stop-color="#ff7a18" stop-opacity="0.07"/><stop offset=".72" stop-color="#ff7a18" stop-opacity="0.02"/><stop offset="1" stop-color="#ff7a18" stop-opacity="0"/></linearGradient><linearGradient id="bm38p11_0" x1="0" y1="0" x2="0" y2="1"><stop offset="0" stop-color="#ffc531" stop-opacity="0.03"/><stop offset=".35" stop-color="#ffc531" stop-opacity="0.02"/><stop offset=".72" stop-color="#ffc531" stop-opacity="0"/><stop offset="1" stop-color="#ffc531" stop-opacity="0"/></linearGradient><linearGradient id="bm38p11_1" x1="0" y1="0" x2="0" y2="1"><stop offset="0" stop-color="#ffc531" stop-opacity="0.06"/><stop offset=".35" stop-color="#ffc531" stop-opacity="0.03"/><stop offset=".72" stop-color="#ffc531" stop-opacity="0.01"/><stop offset="1" stop-color="#ffc531" stop-opacity="0"/></linearGradient><linearGradient id="bm38p11_2" x1="0" y1="0" x2="0" y2="1"><stop offset="0" stop-color="#ffc531" stop-opacity="0.13"/><stop offset=".35" stop-color="#ffc531" stop-opacity="0.07"/><stop offset=".72" stop-color="#ffc531" stop-opacity="0.02"/><stop offset="1" stop-color="#ffc531" stop-opacity="0"/></linearGradient><radialGradient id="bk38p"><stop offset="0" stop-color="#fff6dd" stop-opacity=".9"/><stop offset=".4" stop-color="#ffc531" stop-opacity=".3"/><stop offset="1" stop-color="#ff7a18" stop-opacity="0"/></radialGradient></defs><rect width="1200" height="1200" fill="url(#bg38p)"/><g style="mix-blend-mode:screen"><ellipse cx="623.52" cy="696" rx="744" ry="480" fill="url(#sg38p)"/></g><g style="mix-blend-mode:screen"><ellipse cx="947.07" cy="607.01" rx="454.22" ry="293.56" fill="url(#hz38p0)"/><ellipse cx="242.18" cy="711.31" rx="611.52" ry="185.75" fill="url(#hz38p1)"/><ellipse cx="633.1" cy="435.38" rx="590.12" ry="424.97" fill="url(#hz38p2)"/><ellipse cx="569.18" cy="769.91" rx="591.9" ry="175.13" fill="url(#hz38p3)"/></g><g style="mix-blend-mode:screen"><polygon points="311.73,-72 358.77,-72 934.89,1357.96 374.67,1357.96" fill="url(#bm38p0_0)"/><polygon points="323.08,-72 347.42,-72 799.67,1357.96 509.9,1357.96" fill="url(#bm38p0_1)"/><polygon points="330.79,-72 339.71,-72 707.91,1357.96 601.66,1357.96" fill="url(#bm38p0_2)"/><polygon points="184.43,-72 206.93,-72 -351.99,1455.18 -569.66,1455.18" fill="url(#bm38p1_0)"/><polygon points="189.86,-72 201.5,-72 -404.53,1455.18 -517.12,1455.18" fill="url(#bm38p1_1)"/><polygon points="193.54,-72 197.81,-72 -440.18,1455.18 -481.46,1455.18" fill="url(#bm38p1_2)"/><polygon points="558.53,-72 600.58,-72 560.22,1127.58 212.24,1127.58" fill="url(#bm38p2_0)"/><polygon points="568.68,-72 590.43,-72 476.23,1127.58 296.24,1127.58" fill="url(#bm38p2_1)"/><polygon points="575.57,-72 583.54,-72 419.23,1127.58 353.23,1127.58" fill="url(#bm38p2_2)"/><polygon points="1081.61,-72 1109.64,-72 1747.65,1256.33 1342.24,1256.33" fill="url(#bm38p3_0)"/><polygon points="1088.38,-72 1102.88,-72 1649.79,1256.33 1440.1,1256.33" fill="url(#bm38p3_1)"/><polygon points="1092.97,-72 1098.28,-72 1583.39,1256.33 1506.5,1256.33" fill="url(#bm38p3_2)"/><polygon points="809.24,-72 864.94,-72 804.36,1485.24 582.17,1485.24" fill="url(#bm38p4_0)"/><polygon points="822.68,-72 851.49,-72 750.73,1485.24 635.8,1485.24" fill="url(#bm38p4_1)"/><polygon points="831.8,-72 842.37,-72 714.33,1485.24 672.19,1485.24" fill="url(#bm38p4_2)"/><polygon points="193.67,-72 219.29,-72 290.23,1037.14 -204.56,1037.14" fill="url(#bm38p5_0)"/><polygon points="199.86,-72 213.11,-72 170.8,1037.14 -85.13,1037.14" fill="url(#bm38p5_1)"/><polygon points="204.05,-72 208.91,-72 89.76,1037.14 -4.08,1037.14" fill="url(#bm38p5_2)"/><polygon points="839.03,-72 863.41,-72 1861.38,1234.55 1299.31,1234.55" fill="url(#bm38p6_0)"/><polygon points="844.92,-72 857.53,-72 1725.71,1234.55 1434.98,1234.55" fill="url(#bm38p6_1)"/><polygon points="848.91,-72 853.53,-72 1633.65,1234.55 1527.05,1234.55" fill="url(#bm38p6_2)"/><polygon points="312.4,-72 339.34,-72 -36.05,1296.75 -302.36,1296.75" fill="url(#bm38p7_0)"/><polygon points="318.9,-72 332.84,-72 -100.33,1296.75 -238.07,1296.75" fill="url(#bm38p7_1)"/><polygon points="323.32,-72 328.43,-72 -143.95,1296.75 -194.46,1296.75" fill="url(#bm38p7_2)"/><polygon points="1003.71,-72 1062.1,-72 1047.69,1364.99 431.69,1364.99" fill="url(#bm38p8_0)"/><polygon points="1017.8,-72 1048,-72 899,1364.99 580.38,1364.99" fill="url(#bm38p8_1)"/><polygon points="1027.36,-72 1038.44,-72 798.11,1364.99 681.28,1364.99" fill="url(#bm38p8_2)"/><polygon points="680.82,-72 738.91,-72 1044.66,1114.81 647.11,1114.81" fill="url(#bm38p9_0)"/><polygon points="694.84,-72 724.89,-72 948.7,1114.81 743.07,1114.81" fill="url(#bm38p9_1)"/><polygon points="704.36,-72 715.37,-72 883.58,1114.81 808.18,1114.81" fill="url(#bm38p9_2)"/><polygon points="265.38,-72 324.76,-72 625.81,1495.67 -100.74,1495.67" fill="url(#bm38p10_0)"/><polygon points="279.72,-72 310.43,-72 450.44,1495.67 74.63,1495.67" fill="url(#bm38p10_1)"/><polygon points="289.44,-72 300.7,-72 331.43,1495.67 193.64,1495.67" fill="url(#bm38p10_2)"/><polygon points="374.53,-72 413.76,-72 1240.21,1505.32 791.16,1505.32" fill="url(#bm38p11_0)"/><polygon points="384,-72 404.29,-72 1131.81,1505.32 899.55,1505.32" fill="url(#bm38p11_1)"/><polygon points="390.42,-72 397.86,-72 1058.26,1505.32 973.1,1505.32" fill="url(#bm38p11_2)"/></g><g style="mix-blend-mode:screen"><circle cx="503.45" cy="614.89" r="2.44" fill="url(#bk38p)" opacity="0.5"/><circle cx="1015.13" cy="519.47" r="1.5" fill="url(#bk38p)" opacity="0.61"/><circle cx="401.83" cy="893.73" r="1.6" fill="url(#bk38p)" opacity="0.76"/><circle cx="324.18" cy="744.64" r="4.54" fill="url(#bk38p)" opacity="0.71"/><circle cx="105.98" cy="137.66" r="6.97" fill="url(#bk38p)" opacity="0.73"/><circle cx="479.99" cy="845.07" r="11.55" fill="url(#bk38p)" opacity="0.85"/><circle cx="85.37" cy="298.79" r="2.61" fill="url(#bk38p)" opacity="0.8"/><circle cx="40.95" cy="792.49" r="3.12" fill="url(#bk38p)" opacity="0.28"/><circle cx="642.67" cy="208.73" r="2.74" fill="url(#bk38p)" opacity="0.62"/><circle cx="86.02" cy="687.13" r="6.46" fill="url(#bk38p)" opacity="0.73"/><circle cx="162.22" cy="856.53" r="2.17" fill="url(#bk38p)" opacity="0.47"/><circle cx="433.55" cy="118.52" r="10.1" fill="url(#bk38p)" opacity="0.81"/><circle cx="418.9" cy="961.1" r="11.56" fill="url(#bk38p)" opacity="0.65"/><circle cx="1114.92" cy="598.43" r="1.5" fill="url(#bk38p)" opacity="0.55"/><circle cx="462.13" cy="693.52" r="5.34" fill="url(#bk38p)" opacity="0.67"/><circle cx="4.05" cy="335.56" r="10.16" fill="url(#bk38p)" opacity="0.56"/><circle cx="548.1" cy="124.61" r="8.35" fill="url(#bk38p)" opacity="0.56"/><circle cx="1096.83" cy="330.57" r="1.62" fill="url(#bk38p)" opacity="0.62"/><circle cx="1100.39" cy="833.31" r="1.66" fill="url(#bk38p)" opacity="0.66"/><circle cx="60.07" cy="335.59" r="12.88" fill="url(#bk38p)" opacity="0.6"/><circle cx="1058.43" cy="170.37" r="1.84" fill="url(#bk38p)" opacity="0.31"/><circle cx="298.07" cy="210.71" r="1.6" fill="url(#bk38p)" opacity="0.61"/><circle cx="781.15" cy="135.22" r="2.16" fill="url(#bk38p)" opacity="0.59"/><circle cx="344.79" cy="821.01" r="2.5" fill="url(#bk38p)" opacity="0.41"/><circle cx="846.12" cy="635.66" r="1.84" fill="url(#bk38p)" opacity="0.69"/><circle cx="1095.42" cy="557.89" r="2.31" fill="url(#bk38p)" opacity="0.29"/><circle cx="890.29" cy="768.56" r="1.74" fill="url(#bk38p)" opacity="0.32"/><circle cx="760.02" cy="315.42" r="3.65" fill="url(#bk38p)" opacity="0.69"/><circle cx="1124.64" cy="529.8" r="1.58" fill="url(#bk38p)" opacity="0.51"/><circle cx="747.32" cy="882.81" r="13.44" fill="url(#bk38p)" opacity="0.59"/><circle cx="808.15" cy="583.65" r="5.59" fill="url(#bk38p)" opacity="0.58"/><circle cx="156.03" cy="1001.57" r="3" fill="url(#bk38p)" opacity="0.65"/><circle cx="360.65" cy="837.43" r="1.46" fill="url(#bk38p)" opacity="0.54"/><circle cx="779.19" cy="74.28" r="4.03" fill="url(#bk38p)" opacity="0.29"/><circle cx="219.83" cy="184.38" r="1.92" fill="url(#bk38p)" opacity="0.33"/><circle cx="1094.17" cy="337.27" r="1.44" fill="url(#bk38p)" opacity="0.46"/><circle cx="847.97" cy="375.65" r="1.44" fill="url(#bk38p)" opacity="0.64"/><circle cx="1194.03" cy="837.39" r="3.53" fill="url(#bk38p)" opacity="0.38"/><circle cx="1034.17" cy="428.24" r="3.03" fill="url(#bk38p)" opacity="0.35"/><circle cx="404.52" cy="380.13" r="2.2" fill="url(#bk38p)" opacity="0.84"/><circle cx="675.58" cy="357.53" r="1.72" fill="url(#bk38p)" opacity="0.74"/><circle cx="162.15" cy="840.93" r="4.95" fill="url(#bk38p)" opacity="0.72"/><circle cx="586.31" cy="603.76" r="2.41" fill="url(#bk38p)" opacity="0.32"/><circle cx="1088.65" cy="999.81" r="1.5" fill="url(#bk38p)" opacity="0.67"/><circle cx="27.65" cy="320.11" r="3.03" fill="url(#bk38p)" opacity="0.77"/></g><rect width="1200" height="1200" fill="url(#fl38p)"/><rect width="1200" height="1200" fill="url(#vg38p)"/></svg>