<svg xmlns="http://www.w3.org/2000/svg" viewBox="0 0 1600 1067" width="1600" height="1067" role="img" preserveAspectRatio="xMidYMid slice"><defs><linearGradient id="bg35y" x1="0" y1="0" x2="0" y2="1"><stop offset="0" stop-color="#0d0d10"/><stop offset=".55" stop-color="#08080a"/><stop offset="1" stop-color="#050505"/></linearGradient><radialGradient id="vg35y" cx=".5" cy=".48" r=".72"><stop offset=".4" stop-color="#000" stop-opacity="0"/><stop offset=".8" stop-color="#000" stop-opacity=".42"/><stop offset="1" stop-color="#000" stop-opacity=".82"/></radialGradient><linearGradient id="fl35y" x1="0" y1="0" x2="0" y2="1"><stop offset="0" stop-color="#000" stop-opacity=".3"/><stop offset=".22" stop-color="#000" stop-opacity="0"/><stop offset=".82" stop-color="#000" stop-opacity="0"/><stop offset="1" stop-color="#000" stop-opacity=".45"/></linearGradient><radialGradient id="sg35y" cx=".5" cy=".5" r=".5"><stop offset="0" stop-color="#ffe07a" stop-opacity=".3"/><stop offset=".3" stop-color="#ffc531" stop-opacity=".16"/><stop offset=".62" stop-color="#ff7a18" stop-opacity=".07"/><stop offset="1" stop-color="#ff7a18" stop-opacity="0"/></radialGradient><radialGradient id="hz35y0"><stop offset="0" stop-color="#ffc531" stop-opacity="0.06"/><stop offset=".55" stop-color="#ffc531" stop-opacity="0.02"/><stop offset="1" stop-color="#ffc531" stop-opacity="0"/></radialGradient><radialGradient id="hz35y1"><stop offset="0" stop-color="#ff7a18" stop-opacity="0.12"/><stop offset=".55" stop-color="#ff7a18" stop-opacity="0.03"/><stop offset="1" stop-color="#ff7a18" stop-opacity="0"/></radialGradient><radialGradient id="hz35y2"><stop offset="0" stop-color="#ff7a18" stop-opacity="0.08"/><stop offset=".55" stop-color="#ff7a18" stop-opacity="0.06"/><stop offset="1" stop-color="#ff7a18" stop-opacity="0"/></radialGradient><linearGradient id="bm35y0_0" x1="0" y1="0" x2="0" y2="1"><stop offset="0" stop-color="#ff7a18" stop-opacity="0.04"/><stop offset=".35" stop-color="#ff7a18" stop-opacity="0.02"/><stop offset=".72" stop-color="#ff7a18" stop-opacity="0.01"/><stop offset="1" stop-color="#ff7a18" stop-opacity="0"/></linearGradient><linearGradient id="bm35y0_1" x1="0" y1="0" x2="0" y2="1"><stop offset="0" stop-color="#ff7a18" stop-opacity="0.09"/><stop offset=".35" stop-color="#ff7a18" stop-opacity="0.05"/><stop offset=".72" stop-color="#ff7a18" stop-opacity="0.01"/><stop offset="1" stop-color="#ff7a18" stop-opacity="0"/></linearGradient><linearGradient id="bm35y0_2" x1="0" y1="0" x2="0" y2="1"><stop offset="0" stop-color="#ff7a18" stop-opacity="0.19"/><stop offset=".35" stop-color="#ff7a18" stop-opacity="0.1"/><stop offset=".72" stop-color="#ff7a18" stop-opacity="0.03"/><stop offset="1" stop-color="#ff7a18" stop-opacity="0"/></linearGradient><linearGradient id="bm35y1_0" x1="0" y1="0" x2="0" y2="1"><stop offset="0" stop-color="#ff7a18" stop-opacity="0.05"/><stop offset=".35" stop-color="#ff7a18" stop-opacity="0.03"/><stop offset=".72" stop-color="#ff7a18" stop-opacity="0.01"/><stop offset="1" stop-color="#ff7a18" stop-opacity="0"/></linearGradient><linearGradient id="bm35y1_1" x1="0" y1="0" x2="0" y2="1"><stop offset="0" stop-color="#ff7a18" stop-opacity="0.11"/><stop offset=".35" stop-color="#ff7a18" stop-opacity="0.06"/><stop offset=".72" stop-color="#ff7a18" stop-opacity="0.02"/><stop offset="1" stop-color="#ff7a18" stop-opacity="0"/></linearGradient><linearGradient id="bm35y1_2" x1="0" y1="0" x2="0" y2="1"><stop offset="0" stop-color="#ff7a18" stop-opacity="0.24"/><stop offset=".35" stop-color="#ff7a18" stop-opacity="0.12"/><stop offset=".72" stop-color="#ff7a18" stop-opacity="0.04"/><stop offset="1" stop-color="#ff7a18" stop-opacity="0"/></linearGradient><linearGradient id="bm35y2_0" x1="0" y1="0" x2="0" y2="1"><stop offset="0" stop-color="#ffc531" stop-opacity="0.05"/><stop offset=".35" stop-color="#ffc531" stop-opacity="0.03"/><stop offset=".72" stop-color="#ffc531" stop-opacity="0.01"/><stop offset="1" stop-color="#ffc531" stop-opacity="0"/></linearGradient><linearGradient id="bm35y2_1" x1="0" y1="0" x2="0" y2="1"><stop offset="0" stop-color="#ffc531" stop-opacity="0.11"/><stop offset=".35" stop-color="#ffc531" stop-opacity="0.06"/><stop offset=".72" stop-color="#ffc531" stop-opacity="0.02"/><stop offset="1" stop-color="#ffc531" stop-opacity="0"/></linearGradient><linearGradient id="bm35y2_2" x1="0" y1="0" x2="0" y2="1"><stop offset="0" stop-color="#ffc531" stop-opacity="0.24"/><stop offset=".35" stop-color="#ffc531" stop-opacity="0.12"/><stop offset=".72" stop-color="#ffc531" stop-opacity="0.04"/><stop offset="1" stop-color="#ffc531" stop-opacity="0"/></linearGradient><linearGradient id="bm35y3_0" x1="0" y1="0" x2="0" y2="1"><stop offset="0" stop-color="#ff7a18" stop-opacity="0.03"/><stop offset=".35" stop-color="#ff7a18" stop-opacity="0.02"/><stop offset=".72" stop-color="#ff7a18" stop-opacity="0.01"/><stop offset="1" stop-color="#ff7a18" stop-opacity="0"/></linearGradient><linearGradient id="bm35y3_1" x1="0" y1="0" x2="0" y2="1"><stop offset="0" stop-color="#ff7a18" stop-opacity="0.07"/><stop offset=".35" stop-color="#ff7a18" stop-opacity="0.03"/><stop offset=".72" stop-color="#ff7a18" stop-opacity="0.01"/><stop offset="1" stop-color="#ff7a18" stop-opacity="0"/></linearGradient><linearGradient id="bm35y3_2" x1="0" y1="0" x2="0" y2="1"><stop offset="0" stop-color="#ff7a18" stop-opacity="0.14"/><stop offset=".35" stop-color="#ff7a18" stop-opacity="0.07"/><stop offset=".72" stop-color="#ff7a18" stop-opacity="0.02"/><stop offset="1" stop-color="#ff7a18" stop-opacity="0"/></linearGradient><linearGradient id="bm35y4_0" x1="0" y1="0" x2="0" y2="1"><stop offset="0" stop-color="#ffe07a" stop-opacity="0.03"/><stop offset=".35" stop-color="#ffe07a" stop-opacity="0.02"/><stop offset=".72" stop-color="#ffe07a" stop-opacity="0"/><stop offset="1" stop-color="#ffe07a" stop-opacity="0"/></linearGradient><linearGradient id="bm35y4_1" x1="0" y1="0" x2="0" y2="1"><stop offset="0" stop-color="#ffe07a" stop-opacity="0.06"/><stop offset=".35" stop-color="#ffe07a" stop-opacity="0.03"/><stop offset=".72" stop-color="#ffe07a" stop-opacity="0.01"/><stop offset="1" stop-color="#ffe07a" stop-opacity="0"/></linearGradient><linearGradient id="bm35y4_2" x1="0" y1="0" x2="0" y2="1"><stop offset="0" stop-color="#ffe07a" stop-opacity="0.13"/><stop offset=".35" stop-color="#ffe07a" stop-opacity="0.07"/><stop offset=".72" stop-color="#ffe07a" stop-opacity="0.02"/><stop offset="1" stop-color="#ffe07a" stop-opacity="0"/></linearGradient><linearGradient id="bm35y5_0" x1="0" y1="0" x2="0" y2="1"><stop offset="0" stop-color="#ffe07a" stop-opacity="0.03"/><stop offset=".35" stop-color="#ffe07a" stop-opacity="0.02"/><stop offset=".72" stop-color="#ffe07a" stop-opacity="0"/><stop offset="1" stop-color="#ffe07a" stop-opacity="0"/></linearGradient><linearGradient id="bm35y5_1" x1="0" y1="0" x2="0" y2="1"><stop offset="0" stop-color="#ffe07a" stop-opacity="0.06"/><stop offset=".35" stop-color="#ffe07a" stop-opacity="0.03"/><stop offset=".72" stop-color="#ffe07a" stop-opacity="0.01"/><stop offset="1" stop-color="#ffe07a" stop-opacity="0"/></linearGradient><linearGradient id="bm35y5_2" x1="0" y1="0" x2="0" y2="1"><stop offset="0" stop-color="#ffe07a" stop-opacity="0.13"/><stop offset=".35" stop-color="#ffe07a" stop-opacity="0.07"/><stop offset=".72" stop-color="#ffe07a" stop-opacity="0.02"/><stop offset="1" stop-color="#ffe07a" stop-opacity="0"/></linearGradient><linearGradient id="bm35y6_0" x1="0" y1="0" x2="0" y2="1"><stop offset="0" stop-color="#ffc531" stop-opacity="0.05"/><stop offset=".35" stop-color="#ffc531" stop-opacity="0.03"/><stop offset=".72" stop-color="#ffc531" stop-opacity="0.01"/><stop offset="1" stop-color="#ffc531" stop-opacity="0"/></linearGradient><linearGradient id="bm35y6_1" x1="0" y1="0" x2="0" y2="1"><stop offset="0" stop-color="#ffc531" stop-opacity="0.11"/><stop offset=".35" stop-color="#ffc531" stop-opacity="0.06"/><stop offset=".72" stop-color="#ffc531" stop-opacity="0.02"/><stop offset="1" stop-color="#ffc531" stop-opacity="0"/></linearGradient><linearGradient id="bm35y6_2" x1="0" y1="0" x2="0" y2="1"><stop offset="0" stop-color="#ffc531" stop-opacity="0.23"/><stop offset=".35" stop-color="#ffc531" stop-opacity="0.12"/><stop offset=".72" stop-color="#ffc531" stop-opacity="0.04"/><stop offset="1" stop-color="#ffc531" stop-opacity="0"/></linearGradient><linearGradient id="bm35y7_0" x1="0" y1="0" x2="0" y2="1"><stop offset="0" stop-color="#ff7a18" stop-opacity="0.04"/><stop offset=".35" stop-color="#ff7a18" stop-opacity="0.02"/><stop offset=".72" stop-color="#ff7a18" stop-opacity="0.01"/><stop offset="1" stop-color="#ff7a18" stop-opacity="0"/></linearGradient><linearGradient id="bm35y7_1" x1="0" y1="0" x2="0" y2="1"><stop offset="0" stop-color="#ff7a18" stop-opacity="0.09"/><stop offset=".35" stop-color="#ff7a18" stop-opacity="0.05"/><stop offset=".72" stop-color="#ff7a18" stop-opacity="0.01"/><stop offset="1" stop-color="#ff7a18" stop-opacity="0"/></linearGradient><linearGradient id="bm35y7_2" x1="0" y1="0" x2="0" y2="1"><stop offset="0" stop-color="#ff7a18" stop-opacity="0.18"/><stop offset=".35" stop-color="#ff7a18" stop-opacity="0.09"/><stop offset=".72" stop-color="#ff7a18" stop-opacity="0.03"/><stop offset="1" stop-color="#ff7a18" stop-opacity="0"/></linearGradient><linearGradient id="bm35y8_0" x1="0" y1="0" x2="0" y2="1"><stop offset="0" stop-color="#ffc531" stop-opacity="0.03"/><stop offset=".35" stop-color="#ffc531" stop-opacity="0.01"/><stop offset=".72" stop-color="#ffc531" stop-opacity="0"/><stop offset="1" stop-color="#ffc531" stop-opacity="0"/></linearGradient><linearGradient id="bm35y8_1" x1="0" y1="0" x2="0" y2="1"><stop offset="0" stop-color="#ffc531" stop-opacity="0.06"/><stop offset=".35" stop-color="#ffc531" stop-opacity="0.03"/><stop offset=".72" stop-color="#ffc531" stop-opacity="0.01"/><stop offset="1" stop-color="#ffc531" stop-opacity="0"/></linearGradient><linearGradient id="bm35y8_2" x1="0" y1="0" x2="0" y2="1"><stop offset="0" stop-color="#ffc531" stop-opacity="0.12"/><stop offset=".35" stop-color="#ffc531" stop-opacity="0.06"/><stop offset=".72" stop-color="#ffc531" stop-opacity="0.02"/><stop offset="1" stop-color="#ffc531" stop-opacity="0"/></linearGradient><linearGradient id="bm35y9_0" x1="0" y1="0" x2="0" y2="1"><stop offset="0" stop-color="#ffe07a" stop-opacity="0.05"/><stop offset=".35" stop-color="#ffe07a" stop-opacity="0.03"/><stop offset=".72" stop-color="#ffe07a" stop-opacity="0.01"/><stop offset="1" stop-color="#ffe07a" stop-opacity="0"/></linearGradient><linearGradient id="bm35y9_1" x1="0" y1="0" x2="0" y2="1"><stop offset="0" stop-color="#ffe07a" stop-opacity="0.11"/><stop offset=".35" stop-color="#ffe07a" stop-opacity="0.06"/><stop offset=".72" stop-color="#ffe07a" stop-opacity="0.02"/><stop offset="1" stop-color="#ffe07a" stop-opacity="0"/></linearGradient><linearGradient id="bm35y9_2" x1="0" y1="0" x2="0" y2="1"><stop offset="0" stop-color="#ffe07a" stop-opacity="0.24"/><stop offset=".35" stop-color="#ffe07a" stop-opacity="0.12"/><stop offset=".72" stop-color="#ffe07a" stop-opacity="0.04"/><stop offset="1" stop-color="#ffe07a" stop-opacity="0"/></linearGradient><radialGradient id="bk35y"><stop offset="0" stop-color="#fff6dd" stop-opacity=".9"/><stop offset=".4" stop-color="#ffc531" stop-opacity=".3"/><stop offset="1" stop-color="#ff7a18" stop-opacity="0"/></radialGradient></defs><rect width="1600" height="1067" fill="url(#bg35y)"/><g style="mix-blend-mode:screen"><ellipse cx="1008.79" cy="533.5" rx="992" ry="426.8" fill="url(#sg35y)"/></g><g style="mix-blend-mode:screen"><ellipse cx="1262.66" cy="542.4" rx="940.86" ry="186.18" fill="url(#hz35y0)"/><ellipse cx="970.88" cy="683.87" rx="521.53" ry="332.66" fill="url(#hz35y1)"/><ellipse cx="1202.38" cy="761.72" rx="504.73" ry="186.15" fill="url(#hz35y2)"/></g><g style="mix-blend-mode:screen"><polygon points="361.99,-64.02 443.09,-64.02 1139.32,1007.96 400.26,1007.96" fill="url(#bm35y0_0)"/><polygon points="381.57,-64.02 423.52,-64.02 960.92,1007.96 578.65,1007.96" fill="url(#bm35y0_1)"/><polygon points="394.85,-64.02 410.23,-64.02 839.87,1007.96 699.7,1007.96" fill="url(#bm35y0_2)"/><polygon points="355.62,-64.02 399.38,-64.02 471.31,1264.18 -120.17,1264.18" fill="url(#bm35y1_0)"/><polygon points="366.18,-64.02 388.81,-64.02 328.54,1264.18 22.6,1264.18" fill="url(#bm35y1_1)"/><polygon points="373.35,-64.02 381.65,-64.02 231.66,1264.18 119.48,1264.18" fill="url(#bm35y1_2)"/><polygon points="1114.75,-64.02 1175.92,-64.02 1262.65,1007.74 511.03,1007.74" fill="url(#bm35y2_0)"/><polygon points="1129.52,-64.02 1161.16,-64.02 1081.22,1007.74 692.45,1007.74" fill="url(#bm35y2_1)"/><polygon points="1139.54,-64.02 1151.14,-64.02 958.11,1007.74 815.56,1007.74" fill="url(#bm35y2_2)"/><polygon points="612.45,-64.02 684.28,-64.02 231.34,1222.59 -82.45,1222.59" fill="url(#bm35y3_0)"/><polygon points="629.79,-64.02 666.94,-64.02 155.6,1222.59 -6.71,1222.59" fill="url(#bm35y3_1)"/><polygon points="641.56,-64.02 655.18,-64.02 104.2,1222.59 44.69,1222.59" fill="url(#bm35y3_2)"/><polygon points="808.83,-64.02 886.29,-64.02 1146.21,1269.44 578.29,1269.44" fill="url(#bm35y4_0)"/><polygon points="827.53,-64.02 867.59,-64.02 1009.13,1269.44 715.38,1269.44" fill="url(#bm35y4_1)"/><polygon points="840.21,-64.02 854.9,-64.02 916.11,1269.44 808.4,1269.44" fill="url(#bm35y4_2)"/><polygon points="356,-64.02 410.64,-64.02 83.31,1198.38 -316.13,1198.38" fill="url(#bm35y5_0)"/><polygon points="369.19,-64.02 397.45,-64.02 -13.11,1198.38 -219.71,1198.38" fill="url(#bm35y5_1)"/><polygon points="378.14,-64.02 388.5,-64.02 -78.53,1198.38 -154.29,1198.38" fill="url(#bm35y5_2)"/><polygon points="193.94,-64.02 261.37,-64.02 243.16,1096.12 -44.56,1096.12" fill="url(#bm35y6_0)"/><polygon points="210.22,-64.02 245.09,-64.02 173.71,1096.12 24.89,1096.12" fill="url(#bm35y6_1)"/><polygon points="221.26,-64.02 234.05,-64.02 126.58,1096.12 72.02,1096.12" fill="url(#bm35y6_2)"/><polygon points="447.15,-64.02 482.73,-64.02 1123.76,1172.16 513.51,1172.16" fill="url(#bm35y7_0)"/><polygon points="455.74,-64.02 474.14,-64.02 976.46,1172.16 660.81,1172.16" fill="url(#bm35y7_1)"/><polygon points="461.57,-64.02 468.31,-64.02 876.5,1172.16 760.77,1172.16" fill="url(#bm35y7_2)"/><polygon points="803.22,-64.02 832.7,-64.02 1360.73,1120.16 823.59,1120.16" fill="url(#bm35y8_0)"/><polygon points="810.34,-64.02 825.59,-64.02 1231.07,1120.16 953.24,1120.16" fill="url(#bm35y8_1)"/><polygon points="815.17,-64.02 820.76,-64.02 1143.09,1120.16 1041.22,1120.16" fill="url(#bm35y8_2)"/><polygon points="1055.13,-64.02 1095.28,-64.02 1800.78,1008.9 1410.39,1008.9" fill="url(#bm35y9_0)"/><polygon points="1064.82,-64.02 1085.59,-64.02 1706.55,1008.9 1504.62,1008.9" fill="url(#bm35y9_1)"/><polygon points="1071.4,-64.02 1079.01,-64.02 1642.61,1008.9 1568.56,1008.9" fill="url(#bm35y9_2)"/></g><g style="mix-blend-mode:screen"><circle cx="316" cy="687.64" r="11.33" fill="url(#bk35y)" opacity="0.49"/><circle cx="1460.53" cy="672.36" r="3.53" fill="url(#bk35y)" opacity="0.4"/><circle cx="478.58" cy="130.51" r="1.97" fill="url(#bk35y)" opacity="0.38"/><circle cx="650.92" cy="368.98" r="4.15" fill="url(#bk35y)" opacity="0.6"/><circle cx="1066.45" cy="309.5" r="4.87" fill="url(#bk35y)" opacity="0.57"/><circle cx="208.06" cy="758.96" r="8.81" fill="url(#bk35y)" opacity="0.59"/><circle cx="17.78" cy="655.2" r="9.53" fill="url(#bk35y)" opacity="0.32"/><circle cx="177.74" cy="324.36" r="11.76" fill="url(#bk35y)" opacity="0.38"/><circle cx="316.87" cy="102.39" r="8.16" fill="url(#bk35y)" opacity="0.6"/><circle cx="1545.49" cy="299.6" r="2.17" fill="url(#bk35y)" opacity="0.79"/><circle cx="1296.37" cy="364.83" r="8.96" fill="url(#bk35y)" opacity="0.37"/><circle cx="1368.91" cy="107.08" r="16.96" fill="url(#bk35y)" opacity="0.29"/><circle cx="534.94" cy="588.46" r="1.98" fill="url(#bk35y)" opacity="0.68"/><circle cx="259.79" cy="280.66" r="16.18" fill="url(#bk35y)" opacity="0.39"/><circle cx="582.48" cy="335.38" r="4.55" fill="url(#bk35y)" opacity="0.37"/><circle cx="393.1" cy="328.72" r="1.92" fill="url(#bk35y)" opacity="0.77"/><circle cx="809.55" cy="206.72" r="8.61" fill="url(#bk35y)" opacity="0.82"/><circle cx="581.62" cy="768.02" r="1.96" fill="url(#bk35y)" opacity="0.27"/><circle cx="800.8" cy="731.33" r="1.92" fill="url(#bk35y)" opacity="0.34"/><circle cx="1154.27" cy="123.49" r="4" fill="url(#bk35y)" opacity="0.58"/><circle cx="81.71" cy="304.96" r="1.96" fill="url(#bk35y)" opacity="0.25"/><circle cx="53.66" cy="770.7" r="4.75" fill="url(#bk35y)" opacity="0.31"/><circle cx="1462.09" cy="372.96" r="3.63" fill="url(#bk35y)" opacity="0.81"/><circle cx="699.74" cy="641.98" r="9.31" fill="url(#bk35y)" opacity="0.59"/><circle cx="133.52" cy="740.14" r="8.65" fill="url(#bk35y)" opacity="0.35"/><circle cx="438.59" cy="797.24" r="1.93" fill="url(#bk35y)" opacity="0.74"/><circle cx="170.17" cy="339.07" r="6.67" fill="url(#bk35y)" opacity="0.78"/><circle cx="984.88" cy="238.81" r="2.41" fill="url(#bk35y)" opacity="0.3"/><circle cx="266.07" cy="811.13" r="6.66" fill="url(#bk35y)" opacity="0.69"/><circle cx="1009.76" cy="549.83" r="7.29" fill="url(#bk35y)" opacity="0.31"/><circle cx="1163.13" cy="234.6" r="15.16" fill="url(#bk35y)" opacity="0.3"/><circle cx="689.39" cy="737.21" r="14.19" fill="url(#bk35y)" opacity="0.73"/><circle cx="1108.34" cy="591.55" r="8.11" fill="url(#bk35y)" opacity="0.37"/><circle cx="1334.58" cy="427.54" r="10.6" fill="url(#bk35y)" opacity="0.72"/><circle cx="113.94" cy="246.01" r="1.96" fill="url(#bk35y)" opacity="0.38"/><circle cx="701.54" cy="197.69" r="6.19" fill="url(#bk35y)" opacity="0.41"/></g><rect x="88" y="64.02" width="35.2" height="1002.98" fill="#08080a" opacity=".9"/><path d="M88,64.02 L123.2,99.22 M123.2,64.02 L88,99.22" stroke="#08080a" stroke-width="5.6" fill="none" opacity=".95"/><path d="M88,99.22 L123.2,134.42 M123.2,99.22 L88,134.42" stroke="#08080a" stroke-width="5.6" fill="none" opacity=".95"/><path d="M88,134.42 L123.2,169.62 M123.2,134.42 L88,169.62" stroke="#08080a" stroke-width="5.6" fill="none" opacity=".95"/><path d="M88,169.62 L123.2,204.82 M123.2,169.62 L88,204.82" stroke="#08080a" stroke-width="5.6" fill="none" opacity=".95"/><path d="M88,204.82 L123.2,240.02 M123.2,204.82 L88,240.02" stroke="#08080a" stroke-width="5.6" fill="none" opacity=".95"/><path d="M88,240.02 L123.2,275.22 M123.2,240.02 L88,275.22" stroke="#08080a" stroke-width="5.6" fill="none" opacity=".95"/><path d="M88,275.22 L123.2,310.42 M123.2,275.22 L88,310.42" stroke="#08080a" stroke-width="5.6" fill="none" opacity=".95"/><path d="M88,310.42 L123.2,345.62 M123.2,310.42 L88,345.62" stroke="#08080a" stroke-width="5.6" fill="none" opacity=".95"/><path d="M88,345.62 L123.2,380.82 M123.2,345.62 L88,380.82" stroke="#08080a" stroke-width="5.6" fill="none" opacity=".95"/><path d="M88,380.82 L123.2,416.02 M123.2,380.82 L88,416.02" stroke="#08080a" stroke-width="5.6" fill="none" opacity=".95"/><path d="M88,416.02 L123.2,451.22 M123.2,416.02 L88,451.22" stroke="#08080a" stroke-width="5.6" fill="none" opacity=".95"/><path d="M88,451.22 L123.2,486.42 M123.2,451.22 L88,486.42" stroke="#08080a" stroke-width="5.6" fill="none" opacity=".95"/><path d="M88,486.42 L123.2,521.62 M123.2,486.42 L88,521.62" stroke="#08080a" stroke-width="5.6" fill="none" opacity=".95"/><path d="M88,521.62 L123.2,556.82 M123.2,521.62 L88,556.82" stroke="#08080a" stroke-width="5.6" fill="none" opacity=".95"/><path d="M88,556.82 L123.2,592.02 M123.2,556.82 L88,592.02" stroke="#08080a" stroke-width="5.6" fill="none" opacity=".95"/><path d="M88,592.02 L123.2,627.22 M123.2,592.02 L88,627.22" stroke="#08080a" stroke-width="5.6" fill="none" opacity=".95"/><path d="M88,627.22 L123.2,662.42 M123.2,627.22 L88,662.42" stroke="#08080a" stroke-width="5.6" fill="none" opacity=".95"/><path d="M88,662.42 L123.2,697.62 M123.2,662.42 L88,697.62" stroke="#08080a" stroke-width="5.6" fill="none" opacity=".95"/><path d="M88,697.62 L123.2,732.82 M123.2,697.62 L88,732.82" stroke="#08080a" stroke-width="5.6" fill="none" opacity=".95"/><path d="M88,732.82 L123.2,768.02 M123.2,732.82 L88,768.02" stroke="#08080a" stroke-width="5.6" fill="none" opacity=".95"/><path d="M88,768.02 L123.2,803.22 M123.2,768.02 L88,803.22" stroke="#08080a" stroke-width="5.6" fill="none" opacity=".95"/><path d="M88,803.22 L123.2,838.42 M123.2,803.22 L88,838.42" stroke="#08080a" stroke-width="5.6" fill="none" opacity=".95"/><path d="M88,838.42 L123.2,873.62 M123.2,838.42 L88,873.62" stroke="#08080a" stroke-width="5.6" fill="none" opacity=".95"/><path d="M88,873.62 L123.2,908.82 M123.2,873.62 L88,908.82" stroke="#08080a" stroke-width="5.6" fill="none" opacity=".95"/><path d="M88,908.82 L123.2,944.02 M123.2,908.82 L88,944.02" stroke="#08080a" stroke-width="5.6" fill="none" opacity=".95"/><path d="M88,944.02 L123.2,979.22 M123.2,944.02 L88,979.22" stroke="#08080a" stroke-width="5.6" fill="none" opacity=".95"/><path d="M88,979.22 L123.2,1014.42 M123.2,979.22 L88,1014.42" stroke="#08080a" stroke-width="5.6" fill="none" opacity=".95"/><path d="M88,1014.42 L123.2,1049.62 M123.2,1014.42 L88,1049.62" stroke="#08080a" stroke-width="5.6" fill="none" opacity=".95"/><path d="M88,1049.62 L123.2,1084.82 M123.2,1049.62 L88,1084.82" stroke="#08080a" stroke-width="5.6" fill="none" opacity=".95"/><rect x="1476.8" y="64.02" width="35.2" height="1002.98" fill="#08080a" opacity=".9"/><path d="M1476.8,64.02 L1512,99.22 M1512,64.02 L1476.8,99.22" stroke="#08080a" stroke-width="5.6" fill="none" opacity=".95"/><path d="M1476.8,99.22 L1512,134.42 M1512,99.22 L1476.8,134.42" stroke="#08080a" stroke-width="5.6" fill="none" opacity=".95"/><path d="M1476.8,134.42 L1512,169.62 M1512,134.42 L1476.8,169.62" stroke="#08080a" stroke-width="5.6" fill="none" opacity=".95"/><path d="M1476.8,169.62 L1512,204.82 M1512,169.62 L1476.8,204.82" stroke="#08080a" stroke-width="5.6" fill="none" opacity=".95"/><path d="M1476.8,204.82 L1512,240.02 M1512,204.82 L1476.8,240.02" stroke="#08080a" stroke-width="5.6" fill="none" opacity=".95"/><path d="M1476.8,240.02 L1512,275.22 M1512,240.02 L1476.8,275.22" stroke="#08080a" stroke-width="5.6" fill="none" opacity=".95"/><path d="M1476.8,275.22 L1512,310.42 M1512,275.22 L1476.8,310.42" stroke="#08080a" stroke-width="5.6" fill="none" opacity=".95"/><path d="M1476.8,310.42 L1512,345.62 M1512,310.42 L1476.8,345.62" stroke="#08080a" stroke-width="5.6" fill="none" opacity=".95"/><path d="M1476.8,345.62 L1512,380.82 M1512,345.62 L1476.8,380.82" stroke="#08080a" stroke-width="5.6" fill="none" opacity=".95"/><path d="M1476.8,380.82 L1512,416.02 M1512,380.82 L1476.8,416.02" stroke="#08080a" stroke-width="5.6" fill="none" opacity=".95"/><path d="M1476.8,416.02 L1512,451.22 M1512,416.02 L1476.8,451.22" stroke="#08080a" stroke-width="5.6" fill="none" opacity=".95"/><path d="M1476.8,451.22 L1512,486.42 M1512,451.22 L1476.8,486.42" stroke="#08080a" stroke-width="5.6" fill="none" opacity=".95"/><path d="M1476.8,486.42 L1512,521.62 M1512,486.42 L1476.8,521.62" stroke="#08080a" stroke-width="5.6" fill="none" opacity=".95"/><path d="M1476.8,521.62 L1512,556.82 M1512,521.62 L1476.8,556.82" stroke="#08080a" stroke-width="5.6" fill="none" opacity=".95"/><path d="M1476.8,556.82 L1512,592.02 M1512,556.82 L1476.8,592.02" stroke="#08080a" stroke-width="5.6" fill="none" opacity=".95"/><path d="M1476.8,592.02 L1512,627.22 M1512,592.02 L1476.8,627.22" stroke="#08080a" stroke-width="5.6" fill="none" opacity=".95"/><path d="M1476.8,627.22 L1512,662.42 M1512,627.22 L1476.8,662.42" stroke="#08080a" stroke-width="5.6" fill="none" opacity=".95"/><path d="M1476.8,662.42 L1512,697.62 M1512,662.42 L1476.8,697.62" stroke="#08080a" stroke-width="5.6" fill="none" opacity=".95"/><path d="M1476.8,697.62 L1512,732.82 M1512,697.62 L1476.8,732.82" stroke="#08080a" stroke-width="5.6" fill="none" opacity=".95"/><path d="M1476.8,732.82 L1512,768.02 M1512,732.82 L1476.8,768.02" stroke="#08080a" stroke-width="5.6" fill="none" opacity=".95"/><path d="M1476.8,768.02 L1512,803.22 M1512,768.02 L1476.8,803.22" stroke="#08080a" stroke-width="5.6" fill="none" opacity=".95"/><path d="M1476.8,803.22 L1512,838.42 M1512,803.22 L1476.8,838.42" stroke="#08080a" stroke-width="5.6" fill="none" opacity=".95"/><path d="M1476.8,838.42 L1512,873.62 M1512,838.42 L1476.8,873.62" stroke="#08080a" stroke-width="5.6" fill="none" opacity=".95"/><path d="M1476.8,873.62 L1512,908.82 M1512,873.62 L1476.8,908.82" stroke="#08080a" stroke-width="5.6" fill="none" opacity=".95"/><path d="M1476.8,908.82 L1512,944.02 M1512,908.82 L1476.8,944.02" stroke="#08080a" stroke-width="5.6" fill="none" opacity=".95"/><path d="M1476.8,944.02 L1512,979.22 M1512,944.02 L1476.8,979.22" stroke="#08080a" stroke-width="5.6" fill="none" opacity=".95"/><path d="M1476.8,979.22 L1512,1014.42 M1512,979.22 L1476.8,1014.42" stroke="#08080a" stroke-width="5.6" fill="none" opacity=".95"/><path d="M1476.8,1014.42 L1512,1049.62 M1512,1014.42 L1476.8,1049.62" stroke="#08080a" stroke-width="5.6" fill="none" opacity=".95"/><path d="M1476.8,1049.62 L1512,1084.82 M1512,1049.62 L1476.8,1084.82" stroke="#08080a" stroke-width="5.6" fill="none" opacity=".95"/><rect x="96" y="248.49" width="1408" height="35.2" fill="#08080a" opacity=".92"/><path d="M96,248.49 L131.2,283.69 M131.2,248.49 L96,283.69" stroke="#08080a" stroke-width="5.6" fill="none" opacity=".95"/><path d="M131.2,248.49 L166.4,283.69 M166.4,248.49 L131.2,283.69" stroke="#08080a" stroke-width="5.6" fill="none" opacity=".95"/><path d="M166.4,248.49 L201.6,283.69 M201.6,248.49 L166.4,283.69" stroke="#08080a" stroke-width="5.6" fill="none" opacity=".95"/><path d="M201.6,248.49 L236.8,283.69 M236.8,248.49 L201.6,283.69" stroke="#08080a" stroke-width="5.6" fill="none" opacity=".95"/><path d="M236.8,248.49 L272,283.69 M272,248.49 L236.8,283.69" stroke="#08080a" stroke-width="5.6" fill="none" opacity=".95"/><path d="M272,248.49 L307.2,283.69 M307.2,248.49 L272,283.69" stroke="#08080a" stroke-width="5.6" fill="none" opacity=".95"/><path d="M307.2,248.49 L342.4,283.69 M342.4,248.49 L307.2,283.69" stroke="#08080a" stroke-width="5.6" fill="none" opacity=".95"/><path d="M342.4,248.49 L377.6,283.69 M377.6,248.49 L342.4,283.69" stroke="#08080a" stroke-width="5.6" fill="none" opacity=".95"/><path d="M377.6,248.49 L412.8,283.69 M412.8,248.49 L377.6,283.69" stroke="#08080a" stroke-width="5.6" fill="none" opacity=".95"/><path d="M412.8,248.49 L448,283.69 M448,248.49 L412.8,283.69" stroke="#08080a" stroke-width="5.6" fill="none" opacity=".95"/><path d="M448,248.49 L483.2,283.69 M483.2,248.49 L448,283.69" stroke="#08080a" stroke-width="5.6" fill="none" opacity=".95"/><path d="M483.2,248.49 L518.4,283.69 M518.4,248.49 L483.2,283.69" stroke="#08080a" stroke-width="5.6" fill="none" opacity=".95"/><path d="M518.4,248.49 L553.6,283.69 M553.6,248.49 L518.4,283.69" stroke="#08080a" stroke-width="5.6" fill="none" opacity=".95"/><path d="M553.6,248.49 L588.8,283.69 M588.8,248.49 L553.6,283.69" stroke="#08080a" stroke-width="5.6" fill="none" opacity=".95"/><path d="M588.8,248.49 L624,283.69 M624,248.49 L588.8,283.69" stroke="#08080a" stroke-width="5.6" fill="none" opacity=".95"/><path d="M624,248.49 L659.2,283.69 M659.2,248.49 L624,283.69" stroke="#08080a" stroke-width="5.6" fill="none" opacity=".95"/><path d="M659.2,248.49 L694.4,283.69 M694.4,248.49 L659.2,283.69" stroke="#08080a" stroke-width="5.6" fill="none" opacity=".95"/><path d="M694.4,248.49 L729.6,283.69 M729.6,248.49 L694.4,283.69" stroke="#08080a" stroke-width="5.6" fill="none" opacity=".95"/><path d="M729.6,248.49 L764.8,283.69 M764.8,248.49 L729.6,283.69" stroke="#08080a" stroke-width="5.6" fill="none" opacity=".95"/><path d="M764.8,248.49 L800,283.69 M800,248.49 L764.8,283.69" stroke="#08080a" stroke-width="5.6" fill="none" opacity=".95"/><path d="M800,248.49 L835.2,283.69 M835.2,248.49 L800,283.69" stroke="#08080a" stroke-width="5.6" fill="none" opacity=".95"/><path d="M835.2,248.49 L870.4,283.69 M870.4,248.49 L835.2,283.69" stroke="#08080a" stroke-width="5.6" fill="none" opacity=".95"/><path d="M870.4,248.49 L905.6,283.69 M905.6,248.49 L870.4,283.69" stroke="#08080a" stroke-width="5.6" fill="none" opacity=".95"/><path d="M905.6,248.49 L940.8,283.69 M940.8,248.49 L905.6,283.69" stroke="#08080a" stroke-width="5.6" fill="none" opacity=".95"/><path d="M940.8,248.49 L976,283.69 M976,248.49 L940.8,283.69" stroke="#08080a" stroke-width="5.6" fill="none" opacity=".95"/><path d="M976,248.49 L1011.2,283.69 M1011.2,248.49 L976,283.69" stroke="#08080a" stroke-width="5.6" fill="none" opacity=".95"/><path d="M1011.2,248.49 L1046.4,283.69 M1046.4,248.49 L1011.2,283.69" stroke="#08080a" stroke-width="5.6" fill="none" opacity=".95"/><path d="M1046.4,248.49 L1081.6,283.69 M1081.6,248.49 L1046.4,283.69" stroke="#08080a" stroke-width="5.6" fill="none" opacity=".95"/><path d="M1081.6,248.49 L1116.8,283.69 M1116.8,248.49 L1081.6,283.69" stroke="#08080a" stroke-width="5.6" fill="none" opacity=".95"/><path d="M1116.8,248.49 L1152,283.69 M1152,248.49 L1116.8,283.69" stroke="#08080a" stroke-width="5.6" fill="none" opacity=".95"/><path d="M1152,248.49 L1187.2,283.69 M1187.2,248.49 L1152,283.69" stroke="#08080a" stroke-width="5.6" fill="none" opacity=".95"/><path d="M1187.2,248.49 L1222.4,283.69 M1222.4,248.49 L1187.2,283.69" stroke="#08080a" stroke-width="5.6" fill="none" opacity=".95"/><path d="M1222.4,248.49 L1257.6,283.69 M1257.6,248.49 L1222.4,283.69" stroke="#08080a" stroke-width="5.6" fill="none" opacity=".95"/><path d="M1257.6,248.49 L1292.8,283.69 M1292.8,248.49 L1257.6,283.69" stroke="#08080a" stroke-width="5.6" fill="none" opacity=".95"/><path d="M1292.8,248.49 L1328,283.69 M1328,248.49 L1292.8,283.69" stroke="#08080a" stroke-width="5.6" fill="none" opacity=".95"/><path d="M1328,248.49 L1363.2,283.69 M1363.2,248.49 L1328,283.69" stroke="#08080a" stroke-width="5.6" fill="none" opacity=".95"/><path d="M1363.2,248.49 L1398.4,283.69 M1398.4,248.49 L1363.2,283.69" stroke="#08080a" stroke-width="5.6" fill="none" opacity=".95"/><path d="M1398.4,248.49 L1433.6,283.69 M1433.6,248.49 L1398.4,283.69" stroke="#08080a" stroke-width="5.6" fill="none" opacity=".95"/><path d="M1433.6,248.49 L1468.8,283.69 M1468.8,248.49 L1433.6,283.69" stroke="#08080a" stroke-width="5.6" fill="none" opacity=".95"/><path d="M1468.8,248.49 L1504,283.69 M1504,248.49 L1468.8,283.69" stroke="#08080a" stroke-width="5.6" fill="none" opacity=".95"/><rect x="142.4" y="283.69" width="35.2" height="29.88" rx="6.4" fill="#08080a"/><circle cx="160" cy="313.56" r="9.6" fill="#ffe07a" opacity=".55"/><rect x="302.4" y="283.69" width="35.2" height="29.88" rx="6.4" fill="#08080a"/><circle cx="320" cy="313.56" r="9.6" fill="#ffe07a" opacity=".55"/><rect x="462.4" y="283.69" width="35.2" height="29.88" rx="6.4" fill="#08080a"/><circle cx="480" cy="313.56" r="9.6" fill="#ffe07a" opacity=".55"/><rect x="622.4" y="283.69" width="35.2" height="29.88" rx="6.4" fill="#08080a"/><circle cx="640" cy="313.56" r="9.6" fill="#ffe07a" opacity=".55"/><rect x="782.4" y="283.69" width="35.2" height="29.88" rx="6.4" fill="#08080a"/><circle cx="800" cy="313.56" r="9.6" fill="#ffe07a" opacity=".55"/><rect x="942.4" y="283.69" width="35.2" height="29.88" rx="6.4" fill="#08080a"/><circle cx="960" cy="313.56" r="9.6" fill="#ffe07a" opacity=".55"/><rect x="1102.4" y="283.69" width="35.2" height="29.88" rx="6.4" fill="#08080a"/><circle cx="1120" cy="313.56" r="9.6" fill="#ffe07a" opacity=".55"/><rect x="1262.4" y="283.69" width="35.2" height="29.88" rx="6.4" fill="#08080a"/><circle cx="1280" cy="313.56" r="9.6" fill="#ffe07a" opacity=".55"/><rect x="1422.4" y="283.69" width="35.2" height="29.88" rx="6.4" fill="#08080a"/><circle cx="1440" cy="313.56" r="9.6" fill="#ffe07a" opacity=".55"/><rect width="1600" height="1067" fill="url(#fl35y)"/><rect width="1600" height="1067" fill="url(#vg35y)"/></svg>