<svg xmlns="http://www.w3.org/2000/svg" viewBox="0 0 1600 1000" width="1600" height="1000" role="img" preserveAspectRatio="xMidYMid slice"><defs><linearGradient id="bg5h9" x1="0" y1="0" x2="0" y2="1"><stop offset="0" stop-color="#0d0d10"/><stop offset=".55" stop-color="#08080a"/><stop offset="1" stop-color="#050505"/></linearGradient><radialGradient id="vg5h9" cx=".5" cy=".48" r=".72"><stop offset=".4" stop-color="#000" stop-opacity="0"/><stop offset=".8" stop-color="#000" stop-opacity=".42"/><stop offset="1" stop-color="#000" stop-opacity=".82"/></radialGradient><linearGradient id="fl5h9" x1="0" y1="0" x2="0" y2="1"><stop offset="0" stop-color="#000" stop-opacity=".3"/><stop offset=".22" stop-color="#000" stop-opacity="0"/><stop offset=".82" stop-color="#000" stop-opacity="0"/><stop offset="1" stop-color="#000" stop-opacity=".45"/></linearGradient><radialGradient id="sg5h9" cx=".5" cy=".5" r=".5"><stop offset="0" stop-color="#ffe07a" stop-opacity=".3"/><stop offset=".3" stop-color="#ffc531" stop-opacity=".16"/><stop offset=".62" stop-color="#ff7a18" stop-opacity=".07"/><stop offset="1" stop-color="#ff7a18" stop-opacity="0"/></radialGradient><radialGradient id="hz5h90"><stop offset="0" stop-color="#ff7a18" stop-opacity="0.06"/><stop offset=".55" stop-color="#ff7a18" stop-opacity="0.03"/><stop offset="1" stop-color="#ff7a18" stop-opacity="0"/></radialGradient><radialGradient id="hz5h91"><stop offset="0" stop-color="#ff3b1f" stop-opacity="0.14"/><stop offset=".55" stop-color="#ff3b1f" stop-opacity="0.03"/><stop offset="1" stop-color="#ff3b1f" stop-opacity="0"/></radialGradient><radialGradient id="hz5h92"><stop offset="0" stop-color="#ff3b1f" stop-opacity="0.1"/><stop offset=".55" stop-color="#ff3b1f" stop-opacity="0.06"/><stop offset="1" stop-color="#ff3b1f" stop-opacity="0"/></radialGradient><radialGradient id="hz5h93"><stop offset="0" stop-color="#ff7a18" stop-opacity="0.12"/><stop offset=".55" stop-color="#ff7a18" stop-opacity="0.05"/><stop offset="1" stop-color="#ff7a18" stop-opacity="0"/></radialGradient><linearGradient id="bm5h90_0" x1="0" y1="0" x2="0" y2="1"><stop offset="0" stop-color="#ffc531" stop-opacity="0.03"/><stop offset=".35" stop-color="#ffc531" stop-opacity="0.01"/><stop offset=".72" stop-color="#ffc531" stop-opacity="0"/><stop offset="1" stop-color="#ffc531" stop-opacity="0"/></linearGradient><linearGradient id="bm5h90_1" x1="0" y1="0" x2="0" y2="1"><stop offset="0" stop-color="#ffc531" stop-opacity="0.06"/><stop offset=".35" stop-color="#ffc531" stop-opacity="0.03"/><stop offset=".72" stop-color="#ffc531" stop-opacity="0.01"/><stop offset="1" stop-color="#ffc531" stop-opacity="0"/></linearGradient><linearGradient id="bm5h90_2" x1="0" y1="0" x2="0" y2="1"><stop offset="0" stop-color="#ffc531" stop-opacity="0.12"/><stop offset=".35" stop-color="#ffc531" stop-opacity="0.06"/><stop offset=".72" stop-color="#ffc531" stop-opacity="0.02"/><stop offset="1" stop-color="#ffc531" stop-opacity="0"/></linearGradient><linearGradient id="bm5h91_0" x1="0" y1="0" x2="0" y2="1"><stop offset="0" stop-color="#ff7a18" stop-opacity="0.04"/><stop offset=".35" stop-color="#ff7a18" stop-opacity="0.02"/><stop offset=".72" stop-color="#ff7a18" stop-opacity="0.01"/><stop offset="1" stop-color="#ff7a18" stop-opacity="0"/></linearGradient><linearGradient id="bm5h91_1" x1="0" y1="0" x2="0" y2="1"><stop offset="0" stop-color="#ff7a18" stop-opacity="0.09"/><stop offset=".35" stop-color="#ff7a18" stop-opacity="0.04"/><stop offset=".72" stop-color="#ff7a18" stop-opacity="0.01"/><stop offset="1" stop-color="#ff7a18" stop-opacity="0"/></linearGradient><linearGradient id="bm5h91_2" x1="0" y1="0" x2="0" y2="1"><stop offset="0" stop-color="#ff7a18" stop-opacity="0.18"/><stop offset=".35" stop-color="#ff7a18" stop-opacity="0.09"/><stop offset=".72" stop-color="#ff7a18" stop-opacity="0.03"/><stop offset="1" stop-color="#ff7a18" stop-opacity="0"/></linearGradient><linearGradient id="bm5h92_0" x1="0" y1="0" x2="0" y2="1"><stop offset="0" stop-color="#ffe07a" stop-opacity="0.03"/><stop offset=".35" stop-color="#ffe07a" stop-opacity="0.01"/><stop offset=".72" stop-color="#ffe07a" stop-opacity="0"/><stop offset="1" stop-color="#ffe07a" stop-opacity="0"/></linearGradient><linearGradient id="bm5h92_1" x1="0" y1="0" x2="0" y2="1"><stop offset="0" stop-color="#ffe07a" stop-opacity="0.06"/><stop offset=".35" stop-color="#ffe07a" stop-opacity="0.03"/><stop offset=".72" stop-color="#ffe07a" stop-opacity="0.01"/><stop offset="1" stop-color="#ffe07a" stop-opacity="0"/></linearGradient><linearGradient id="bm5h92_2" x1="0" y1="0" x2="0" y2="1"><stop offset="0" stop-color="#ffe07a" stop-opacity="0.13"/><stop offset=".35" stop-color="#ffe07a" stop-opacity="0.07"/><stop offset=".72" stop-color="#ffe07a" stop-opacity="0.02"/><stop offset="1" stop-color="#ffe07a" stop-opacity="0"/></linearGradient><linearGradient id="bm5h93_0" x1="0" y1="0" x2="0" y2="1"><stop offset="0" stop-color="#ffc531" stop-opacity="0.03"/><stop offset=".35" stop-color="#ffc531" stop-opacity="0.01"/><stop offset=".72" stop-color="#ffc531" stop-opacity="0"/><stop offset="1" stop-color="#ffc531" stop-opacity="0"/></linearGradient><linearGradient id="bm5h93_1" x1="0" y1="0" x2="0" y2="1"><stop offset="0" stop-color="#ffc531" stop-opacity="0.06"/><stop offset=".35" stop-color="#ffc531" stop-opacity="0.03"/><stop offset=".72" stop-color="#ffc531" stop-opacity="0.01"/><stop offset="1" stop-color="#ffc531" stop-opacity="0"/></linearGradient><linearGradient id="bm5h93_2" x1="0" y1="0" x2="0" y2="1"><stop offset="0" stop-color="#ffc531" stop-opacity="0.12"/><stop offset=".35" stop-color="#ffc531" stop-opacity="0.06"/><stop offset=".72" stop-color="#ffc531" stop-opacity="0.02"/><stop offset="1" stop-color="#ffc531" stop-opacity="0"/></linearGradient><linearGradient id="bm5h94_0" x1="0" y1="0" x2="0" y2="1"><stop offset="0" stop-color="#ffc531" stop-opacity="0.05"/><stop offset=".35" stop-color="#ffc531" stop-opacity="0.02"/><stop offset=".72" stop-color="#ffc531" stop-opacity="0.01"/><stop offset="1" stop-color="#ffc531" stop-opacity="0"/></linearGradient><linearGradient id="bm5h94_1" x1="0" y1="0" x2="0" y2="1"><stop offset="0" stop-color="#ffc531" stop-opacity="0.1"/><stop offset=".35" stop-color="#ffc531" stop-opacity="0.05"/><stop offset=".72" stop-color="#ffc531" stop-opacity="0.02"/><stop offset="1" stop-color="#ffc531" stop-opacity="0"/></linearGradient><linearGradient id="bm5h94_2" x1="0" y1="0" x2="0" y2="1"><stop offset="0" stop-color="#ffc531" stop-opacity="0.21"/><stop offset=".35" stop-color="#ffc531" stop-opacity="0.11"/><stop offset=".72" stop-color="#ffc531" stop-opacity="0.03"/><stop offset="1" stop-color="#ffc531" stop-opacity="0"/></linearGradient><linearGradient id="bm5h95_0" x1="0" y1="0" x2="0" y2="1"><stop offset="0" stop-color="#ffc531" stop-opacity="0.05"/><stop offset=".35" stop-color="#ffc531" stop-opacity="0.03"/><stop offset=".72" stop-color="#ffc531" stop-opacity="0.01"/><stop offset="1" stop-color="#ffc531" stop-opacity="0"/></linearGradient><linearGradient id="bm5h95_1" x1="0" y1="0" x2="0" y2="1"><stop offset="0" stop-color="#ffc531" stop-opacity="0.1"/><stop offset=".35" stop-color="#ffc531" stop-opacity="0.05"/><stop offset=".72" stop-color="#ffc531" stop-opacity="0.02"/><stop offset="1" stop-color="#ffc531" stop-opacity="0"/></linearGradient><linearGradient id="bm5h95_2" x1="0" y1="0" x2="0" y2="1"><stop offset="0" stop-color="#ffc531" stop-opacity="0.22"/><stop offset=".35" stop-color="#ffc531" stop-opacity="0.11"/><stop offset=".72" stop-color="#ffc531" stop-opacity="0.04"/><stop offset="1" stop-color="#ffc531" stop-opacity="0"/></linearGradient><linearGradient id="bm5h96_0" x1="0" y1="0" x2="0" y2="1"><stop offset="0" stop-color="#ffe07a" stop-opacity="0.03"/><stop offset=".35" stop-color="#ffe07a" stop-opacity="0.02"/><stop offset=".72" stop-color="#ffe07a" stop-opacity="0"/><stop offset="1" stop-color="#ffe07a" stop-opacity="0"/></linearGradient><linearGradient id="bm5h96_1" x1="0" y1="0" x2="0" y2="1"><stop offset="0" stop-color="#ffe07a" stop-opacity="0.06"/><stop offset=".35" stop-color="#ffe07a" stop-opacity="0.03"/><stop offset=".72" stop-color="#ffe07a" stop-opacity="0.01"/><stop offset="1" stop-color="#ffe07a" stop-opacity="0"/></linearGradient><linearGradient id="bm5h96_2" x1="0" y1="0" x2="0" y2="1"><stop offset="0" stop-color="#ffe07a" stop-opacity="0.13"/><stop offset=".35" stop-color="#ffe07a" stop-opacity="0.07"/><stop offset=".72" stop-color="#ffe07a" stop-opacity="0.02"/><stop offset="1" stop-color="#ffe07a" stop-opacity="0"/></linearGradient><linearGradient id="bm5h97_0" x1="0" y1="0" x2="0" y2="1"><stop offset="0" stop-color="#ffc531" stop-opacity="0.03"/><stop offset=".35" stop-color="#ffc531" stop-opacity="0.01"/><stop offset=".72" stop-color="#ffc531" stop-opacity="0"/><stop offset="1" stop-color="#ffc531" stop-opacity="0"/></linearGradient><linearGradient id="bm5h97_1" x1="0" y1="0" x2="0" y2="1"><stop offset="0" stop-color="#ffc531" stop-opacity="0.06"/><stop offset=".35" stop-color="#ffc531" stop-opacity="0.03"/><stop offset=".72" stop-color="#ffc531" stop-opacity="0.01"/><stop offset="1" stop-color="#ffc531" stop-opacity="0"/></linearGradient><linearGradient id="bm5h97_2" x1="0" y1="0" x2="0" y2="1"><stop offset="0" stop-color="#ffc531" stop-opacity="0.12"/><stop offset=".35" stop-color="#ffc531" stop-opacity="0.06"/><stop offset=".72" stop-color="#ffc531" stop-opacity="0.02"/><stop offset="1" stop-color="#ffc531" stop-opacity="0"/></linearGradient><linearGradient id="bm5h98_0" x1="0" y1="0" x2="0" y2="1"><stop offset="0" stop-color="#ffe07a" stop-opacity="0.04"/><stop offset=".35" stop-color="#ffe07a" stop-opacity="0.02"/><stop offset=".72" stop-color="#ffe07a" stop-opacity="0.01"/><stop offset="1" stop-color="#ffe07a" stop-opacity="0"/></linearGradient><linearGradient id="bm5h98_1" x1="0" y1="0" x2="0" y2="1"><stop offset="0" stop-color="#ffe07a" stop-opacity="0.09"/><stop offset=".35" stop-color="#ffe07a" stop-opacity="0.05"/><stop offset=".72" stop-color="#ffe07a" stop-opacity="0.01"/><stop offset="1" stop-color="#ffe07a" stop-opacity="0"/></linearGradient><linearGradient id="bm5h98_2" x1="0" y1="0" x2="0" y2="1"><stop offset="0" stop-color="#ffe07a" stop-opacity="0.18"/><stop offset=".35" stop-color="#ffe07a" stop-opacity="0.09"/><stop offset=".72" stop-color="#ffe07a" stop-opacity="0.03"/><stop offset="1" stop-color="#ffe07a" stop-opacity="0"/></linearGradient><radialGradient id="bk5h9"><stop offset="0" stop-color="#fff6dd" stop-opacity=".9"/><stop offset=".4" stop-color="#ffc531" stop-opacity=".3"/><stop offset="1" stop-color="#ff7a18" stop-opacity="0"/></radialGradient></defs><rect width="1600" height="1000" fill="url(#bg5h9)"/><g style="mix-blend-mode:screen"><ellipse cx="660.63" cy="500" rx="992" ry="400" fill="url(#sg5h9)"/></g><g style="mix-blend-mode:screen"><ellipse cx="240.56" cy="727.07" rx="561.9" ry="359.87" fill="url(#hz5h90)"/><ellipse cx="305.31" cy="821.06" rx="627.49" ry="168.35" fill="url(#hz5h91)"/><ellipse cx="1234.35" cy="423.98" rx="944.98" ry="152.28" fill="url(#hz5h92)"/><ellipse cx="1336.23" cy="749.35" rx="888.89" ry="295.96" fill="url(#hz5h93)"/></g><g style="mix-blend-mode:screen"><polygon points="720.29,-60 779.8,-60 1117.14,854.48 724.03,854.48" fill="url(#bm5h90_0)"/><polygon points="734.65,-60 765.43,-60 1022.25,854.48 818.92,854.48" fill="url(#bm5h90_1)"/><polygon points="744.4,-60 755.68,-60 957.86,854.48 883.31,854.48" fill="url(#bm5h90_2)"/><polygon points="848.31,-60 928.07,-60 1073.67,908.12 301.4,908.12" fill="url(#bm5h91_0)"/><polygon points="867.57,-60 908.82,-60 887.26,908.12 487.81,908.12" fill="url(#bm5h91_1)"/><polygon points="880.63,-60 895.76,-60 760.77,908.12 614.3,908.12" fill="url(#bm5h91_2)"/><polygon points="774.5,-60 814.95,-60 790.86,849.13 396.4,849.13" fill="url(#bm5h92_0)"/><polygon points="784.26,-60 805.19,-60 695.64,849.13 491.61,849.13" fill="url(#bm5h92_1)"/><polygon points="790.89,-60 798.56,-60 631.03,849.13 556.22,849.13" fill="url(#bm5h92_2)"/><polygon points="142.46,-60 198.75,-60 316.32,854.17 -377.58,854.17" fill="url(#bm5h93_0)"/><polygon points="156.05,-60 185.16,-60 148.83,854.17 -210.09,854.17" fill="url(#bm5h93_1)"/><polygon points="165.27,-60 175.94,-60 35.17,854.17 -96.43,854.17" fill="url(#bm5h93_2)"/><polygon points="766.75,-60 800.65,-60 915.71,1136 404.39,1136" fill="url(#bm5h94_0)"/><polygon points="774.93,-60 792.47,-60 792.29,1136 527.81,1136" fill="url(#bm5h94_1)"/><polygon points="780.49,-60 786.91,-60 708.54,1136 611.56,1136" fill="url(#bm5h94_2)"/><polygon points="1149.14,-60 1228.11,-60 2204.93,902.26 1274.05,902.26" fill="url(#bm5h95_0)"/><polygon points="1168.2,-60 1209.05,-60 1980.24,902.26 1498.74,902.26" fill="url(#bm5h95_1)"/><polygon points="1181.14,-60 1196.12,-60 1827.76,902.26 1651.22,902.26" fill="url(#bm5h95_2)"/><polygon points="343.8,-60 421.62,-60 -7.69,1120.55 -445.14,1120.55" fill="url(#bm5h96_0)"/><polygon points="362.58,-60 402.84,-60 -113.28,1120.55 -339.55,1120.55" fill="url(#bm5h96_1)"/><polygon points="375.33,-60 390.09,-60 -184.93,1120.55 -267.9,1120.55" fill="url(#bm5h96_2)"/><polygon points="869.37,-60 902.85,-60 2050.02,1197.99 1160.08,1197.99" fill="url(#bm5h97_0)"/><polygon points="877.45,-60 894.77,-60 1835.21,1197.99 1374.9,1197.99" fill="url(#bm5h97_1)"/><polygon points="882.94,-60 889.28,-60 1689.44,1197.99 1520.66,1197.99" fill="url(#bm5h97_2)"/><polygon points="639.28,-60 687.38,-60 319.53,1215.03 25.57,1215.03" fill="url(#bm5h98_0)"/><polygon points="650.89,-60 675.77,-60 248.58,1215.03 96.53,1215.03" fill="url(#bm5h98_1)"/><polygon points="658.77,-60 667.89,-60 200.43,1215.03 144.68,1215.03" fill="url(#bm5h98_2)"/></g><g style="mix-blend-mode:screen"><circle cx="200.72" cy="599.59" r="2.61" fill="url(#bk5h9)" opacity="0.29"/><circle cx="239.97" cy="118.86" r="7.05" fill="url(#bk5h9)" opacity="0.77"/><circle cx="1225.82" cy="459.12" r="16.63" fill="url(#bk5h9)" opacity="0.54"/><circle cx="1527.93" cy="164.61" r="5.74" fill="url(#bk5h9)" opacity="0.65"/><circle cx="1260.65" cy="352.26" r="1.95" fill="url(#bk5h9)" opacity="0.29"/><circle cx="326.2" cy="590.18" r="16.94" fill="url(#bk5h9)" opacity="0.46"/><circle cx="1127.78" cy="793.23" r="2.01" fill="url(#bk5h9)" opacity="0.54"/><circle cx="1131.56" cy="167.17" r="1.94" fill="url(#bk5h9)" opacity="0.69"/><circle cx="92.08" cy="120.83" r="2.61" fill="url(#bk5h9)" opacity="0.62"/><circle cx="334.86" cy="563.46" r="6.82" fill="url(#bk5h9)" opacity="0.66"/><circle cx="464.38" cy="366.5" r="2.21" fill="url(#bk5h9)" opacity="0.72"/><circle cx="1231.37" cy="783.32" r="17.66" fill="url(#bk5h9)" opacity="0.82"/><circle cx="919.85" cy="79.76" r="17.11" fill="url(#bk5h9)" opacity="0.68"/><circle cx="1311.88" cy="322.31" r="2.04" fill="url(#bk5h9)" opacity="0.48"/><circle cx="1045.41" cy="517.56" r="2.63" fill="url(#bk5h9)" opacity="0.43"/><circle cx="19.02" cy="161.47" r="17.82" fill="url(#bk5h9)" opacity="0.81"/><circle cx="961.85" cy="731.34" r="9.78" fill="url(#bk5h9)" opacity="0.73"/><circle cx="61.39" cy="686.85" r="1.92" fill="url(#bk5h9)" opacity="0.35"/><circle cx="924.34" cy="759.6" r="2.08" fill="url(#bk5h9)" opacity="0.64"/><circle cx="971.55" cy="448.07" r="1.94" fill="url(#bk5h9)" opacity="0.51"/><circle cx="1296.85" cy="415.28" r="2.36" fill="url(#bk5h9)" opacity="0.54"/><circle cx="667.26" cy="182.18" r="1.92" fill="url(#bk5h9)" opacity="0.56"/><circle cx="1577.02" cy="795.72" r="13.55" fill="url(#bk5h9)" opacity="0.6"/><circle cx="162" cy="583" r="2.77" fill="url(#bk5h9)" opacity="0.41"/><circle cx="1205.9" cy="290.99" r="1.95" fill="url(#bk5h9)" opacity="0.45"/><circle cx="51.21" cy="563.51" r="2.01" fill="url(#bk5h9)" opacity="0.67"/><circle cx="1113.07" cy="578.68" r="11.87" fill="url(#bk5h9)" opacity="0.82"/><circle cx="183.63" cy="176.82" r="4.33" fill="url(#bk5h9)" opacity="0.5"/><circle cx="1338.21" cy="433.99" r="6.32" fill="url(#bk5h9)" opacity="0.6"/><circle cx="1050.65" cy="344.9" r="4.45" fill="url(#bk5h9)" opacity="0.27"/><circle cx="822.94" cy="779.21" r="5.69" fill="url(#bk5h9)" opacity="0.45"/><circle cx="1293.29" cy="63.17" r="2.22" fill="url(#bk5h9)" opacity="0.46"/><circle cx="744.52" cy="714.55" r="4.65" fill="url(#bk5h9)" opacity="0.58"/></g><rect x="88" y="60" width="35.2" height="940" fill="#08080a" opacity=".9"/><path d="M88,60 L123.2,95.2 M123.2,60 L88,95.2" stroke="#08080a" stroke-width="5.6" fill="none" opacity=".95"/><path d="M88,95.2 L123.2,130.4 M123.2,95.2 L88,130.4" stroke="#08080a" stroke-width="5.6" fill="none" opacity=".95"/><path d="M88,130.4 L123.2,165.6 M123.2,130.4 L88,165.6" stroke="#08080a" stroke-width="5.6" fill="none" opacity=".95"/><path d="M88,165.6 L123.2,200.8 M123.2,165.6 L88,200.8" stroke="#08080a" stroke-width="5.6" fill="none" opacity=".95"/><path d="M88,200.8 L123.2,236 M123.2,200.8 L88,236" stroke="#08080a" stroke-width="5.6" fill="none" opacity=".95"/><path d="M88,236 L123.2,271.2 M123.2,236 L88,271.2" stroke="#08080a" stroke-width="5.6" fill="none" opacity=".95"/><path d="M88,271.2 L123.2,306.4 M123.2,271.2 L88,306.4" stroke="#08080a" stroke-width="5.6" fill="none" opacity=".95"/><path d="M88,306.4 L123.2,341.6 M123.2,306.4 L88,341.6" stroke="#08080a" stroke-width="5.6" fill="none" opacity=".95"/><path d="M88,341.6 L123.2,376.8 M123.2,341.6 L88,376.8" stroke="#08080a" stroke-width="5.6" fill="none" opacity=".95"/><path d="M88,376.8 L123.2,412 M123.2,376.8 L88,412" stroke="#08080a" stroke-width="5.6" fill="none" opacity=".95"/><path d="M88,412 L123.2,447.2 M123.2,412 L88,447.2" stroke="#08080a" stroke-width="5.6" fill="none" opacity=".95"/><path d="M88,447.2 L123.2,482.4 M123.2,447.2 L88,482.4" stroke="#08080a" stroke-width="5.6" fill="none" opacity=".95"/><path d="M88,482.4 L123.2,517.6 M123.2,482.4 L88,517.6" stroke="#08080a" stroke-width="5.6" fill="none" opacity=".95"/><path d="M88,517.6 L123.2,552.8 M123.2,517.6 L88,552.8" stroke="#08080a" stroke-width="5.6" fill="none" opacity=".95"/><path d="M88,552.8 L123.2,588 M123.2,552.8 L88,588" stroke="#08080a" stroke-width="5.6" fill="none" opacity=".95"/><path d="M88,588 L123.2,623.2 M123.2,588 L88,623.2" stroke="#08080a" stroke-width="5.6" fill="none" opacity=".95"/><path d="M88,623.2 L123.2,658.4 M123.2,623.2 L88,658.4" stroke="#08080a" stroke-width="5.6" fill="none" opacity=".95"/><path d="M88,658.4 L123.2,693.6 M123.2,658.4 L88,693.6" stroke="#08080a" stroke-width="5.6" fill="none" opacity=".95"/><path d="M88,693.6 L123.2,728.8 M123.2,693.6 L88,728.8" stroke="#08080a" stroke-width="5.6" fill="none" opacity=".95"/><path d="M88,728.8 L123.2,764 M123.2,728.8 L88,764" stroke="#08080a" stroke-width="5.6" fill="none" opacity=".95"/><path d="M88,764 L123.2,799.2 M123.2,764 L88,799.2" stroke="#08080a" stroke-width="5.6" fill="none" opacity=".95"/><path d="M88,799.2 L123.2,834.4 M123.2,799.2 L88,834.4" stroke="#08080a" stroke-width="5.6" fill="none" opacity=".95"/><path d="M88,834.4 L123.2,869.6 M123.2,834.4 L88,869.6" stroke="#08080a" stroke-width="5.6" fill="none" opacity=".95"/><path d="M88,869.6 L123.2,904.8 M123.2,869.6 L88,904.8" stroke="#08080a" stroke-width="5.6" fill="none" opacity=".95"/><path d="M88,904.8 L123.2,940 M123.2,904.8 L88,940" stroke="#08080a" stroke-width="5.6" fill="none" opacity=".95"/><path d="M88,940 L123.2,975.2 M123.2,940 L88,975.2" stroke="#08080a" stroke-width="5.6" fill="none" opacity=".95"/><path d="M88,975.2 L123.2,1010.4 M123.2,975.2 L88,1010.4" stroke="#08080a" stroke-width="5.6" fill="none" opacity=".95"/><rect x="1476.8" y="60" width="35.2" height="940" fill="#08080a" opacity=".9"/><path d="M1476.8,60 L1512,95.2 M1512,60 L1476.8,95.2" stroke="#08080a" stroke-width="5.6" fill="none" opacity=".95"/><path d="M1476.8,95.2 L1512,130.4 M1512,95.2 L1476.8,130.4" stroke="#08080a" stroke-width="5.6" fill="none" opacity=".95"/><path d="M1476.8,130.4 L1512,165.6 M1512,130.4 L1476.8,165.6" stroke="#08080a" stroke-width="5.6" fill="none" opacity=".95"/><path d="M1476.8,165.6 L1512,200.8 M1512,165.6 L1476.8,200.8" stroke="#08080a" stroke-width="5.6" fill="none" opacity=".95"/><path d="M1476.8,200.8 L1512,236 M1512,200.8 L1476.8,236" stroke="#08080a" stroke-width="5.6" fill="none" opacity=".95"/><path d="M1476.8,236 L1512,271.2 M1512,236 L1476.8,271.2" stroke="#08080a" stroke-width="5.6" fill="none" opacity=".95"/><path d="M1476.8,271.2 L1512,306.4 M1512,271.2 L1476.8,306.4" stroke="#08080a" stroke-width="5.6" fill="none" opacity=".95"/><path d="M1476.8,306.4 L1512,341.6 M1512,306.4 L1476.8,341.6" stroke="#08080a" stroke-width="5.6" fill="none" opacity=".95"/><path d="M1476.8,341.6 L1512,376.8 M1512,341.6 L1476.8,376.8" stroke="#08080a" stroke-width="5.6" fill="none" opacity=".95"/><path d="M1476.8,376.8 L1512,412 M1512,376.8 L1476.8,412" stroke="#08080a" stroke-width="5.6" fill="none" opacity=".95"/><path d="M1476.8,412 L1512,447.2 M1512,412 L1476.8,447.2" stroke="#08080a" stroke-width="5.6" fill="none" opacity=".95"/><path d="M1476.8,447.2 L1512,482.4 M1512,447.2 L1476.8,482.4" stroke="#08080a" stroke-width="5.6" fill="none" opacity=".95"/><path d="M1476.8,482.4 L1512,517.6 M1512,482.4 L1476.8,517.6" stroke="#08080a" stroke-width="5.6" fill="none" opacity=".95"/><path d="M1476.8,517.6 L1512,552.8 M1512,517.6 L1476.8,552.8" stroke="#08080a" stroke-width="5.6" fill="none" opacity=".95"/><path d="M1476.8,552.8 L1512,588 M1512,552.8 L1476.8,588" stroke="#08080a" stroke-width="5.6" fill="none" opacity=".95"/><path d="M1476.8,588 L1512,623.2 M1512,588 L1476.8,623.2" stroke="#08080a" stroke-width="5.6" fill="none" opacity=".95"/><path d="M1476.8,623.2 L1512,658.4 M1512,623.2 L1476.8,658.4" stroke="#08080a" stroke-width="5.6" fill="none" opacity=".95"/><path d="M1476.8,658.4 L1512,693.6 M1512,658.4 L1476.8,693.6" stroke="#08080a" stroke-width="5.6" fill="none" opacity=".95"/><path d="M1476.8,693.6 L1512,728.8 M1512,693.6 L1476.8,728.8" stroke="#08080a" stroke-width="5.6" fill="none" opacity=".95"/><path d="M1476.8,728.8 L1512,764 M1512,728.8 L1476.8,764" stroke="#08080a" stroke-width="5.6" fill="none" opacity=".95"/><path d="M1476.8,764 L1512,799.2 M1512,764 L1476.8,799.2" stroke="#08080a" stroke-width="5.6" fill="none" opacity=".95"/><path d="M1476.8,799.2 L1512,834.4 M1512,799.2 L1476.8,834.4" stroke="#08080a" stroke-width="5.6" fill="none" opacity=".95"/><path d="M1476.8,834.4 L1512,869.6 M1512,834.4 L1476.8,869.6" stroke="#08080a" stroke-width="5.6" fill="none" opacity=".95"/><path d="M1476.8,869.6 L1512,904.8 M1512,869.6 L1476.8,904.8" stroke="#08080a" stroke-width="5.6" fill="none" opacity=".95"/><path d="M1476.8,904.8 L1512,940 M1512,904.8 L1476.8,940" stroke="#08080a" stroke-width="5.6" fill="none" opacity=".95"/><path d="M1476.8,940 L1512,975.2 M1512,940 L1476.8,975.2" stroke="#08080a" stroke-width="5.6" fill="none" opacity=".95"/><path d="M1476.8,975.2 L1512,1010.4 M1512,975.2 L1476.8,1010.4" stroke="#08080a" stroke-width="5.6" fill="none" opacity=".95"/><rect x="96" y="243.2" width="1408" height="35.2" fill="#08080a" opacity=".92"/><path d="M96,243.2 L131.2,278.4 M131.2,243.2 L96,278.4" stroke="#08080a" stroke-width="5.6" fill="none" opacity=".95"/><path d="M131.2,243.2 L166.4,278.4 M166.4,243.2 L131.2,278.4" stroke="#08080a" stroke-width="5.6" fill="none" opacity=".95"/><path d="M166.4,243.2 L201.6,278.4 M201.6,243.2 L166.4,278.4" stroke="#08080a" stroke-width="5.6" fill="none" opacity=".95"/><path d="M201.6,243.2 L236.8,278.4 M236.8,243.2 L201.6,278.4" stroke="#08080a" stroke-width="5.6" fill="none" opacity=".95"/><path d="M236.8,243.2 L272,278.4 M272,243.2 L236.8,278.4" stroke="#08080a" stroke-width="5.6" fill="none" opacity=".95"/><path d="M272,243.2 L307.2,278.4 M307.2,243.2 L272,278.4" stroke="#08080a" stroke-width="5.6" fill="none" opacity=".95"/><path d="M307.2,243.2 L342.4,278.4 M342.4,243.2 L307.2,278.4" stroke="#08080a" stroke-width="5.6" fill="none" opacity=".95"/><path d="M342.4,243.2 L377.6,278.4 M377.6,243.2 L342.4,278.4" stroke="#08080a" stroke-width="5.6" fill="none" opacity=".95"/><path d="M377.6,243.2 L412.8,278.4 M412.8,243.2 L377.6,278.4" stroke="#08080a" stroke-width="5.6" fill="none" opacity=".95"/><path d="M412.8,243.2 L448,278.4 M448,243.2 L412.8,278.4" stroke="#08080a" stroke-width="5.6" fill="none" opacity=".95"/><path d="M448,243.2 L483.2,278.4 M483.2,243.2 L448,278.4" stroke="#08080a" stroke-width="5.6" fill="none" opacity=".95"/><path d="M483.2,243.2 L518.4,278.4 M518.4,243.2 L483.2,278.4" stroke="#08080a" stroke-width="5.6" fill="none" opacity=".95"/><path d="M518.4,243.2 L553.6,278.4 M553.6,243.2 L518.4,278.4" stroke="#08080a" stroke-width="5.6" fill="none" opacity=".95"/><path d="M553.6,243.2 L588.8,278.4 M588.8,243.2 L553.6,278.4" stroke="#08080a" stroke-width="5.6" fill="none" opacity=".95"/><path d="M588.8,243.2 L624,278.4 M624,243.2 L588.8,278.4" stroke="#08080a" stroke-width="5.6" fill="none" opacity=".95"/><path d="M624,243.2 L659.2,278.4 M659.2,243.2 L624,278.4" stroke="#08080a" stroke-width="5.6" fill="none" opacity=".95"/><path d="M659.2,243.2 L694.4,278.4 M694.4,243.2 L659.2,278.4" stroke="#08080a" stroke-width="5.6" fill="none" opacity=".95"/><path d="M694.4,243.2 L729.6,278.4 M729.6,243.2 L694.4,278.4" stroke="#08080a" stroke-width="5.6" fill="none" opacity=".95"/><path d="M729.6,243.2 L764.8,278.4 M764.8,243.2 L729.6,278.4" stroke="#08080a" stroke-width="5.6" fill="none" opacity=".95"/><path d="M764.8,243.2 L800,278.4 M800,243.2 L764.8,278.4" stroke="#08080a" stroke-width="5.6" fill="none" opacity=".95"/><path d="M800,243.2 L835.2,278.4 M835.2,243.2 L800,278.4" stroke="#08080a" stroke-width="5.6" fill="none" opacity=".95"/><path d="M835.2,243.2 L870.4,278.4 M870.4,243.2 L835.2,278.4" stroke="#08080a" stroke-width="5.6" fill="none" opacity=".95"/><path d="M870.4,243.2 L905.6,278.4 M905.6,243.2 L870.4,278.4" stroke="#08080a" stroke-width="5.6" fill="none" opacity=".95"/><path d="M905.6,243.2 L940.8,278.4 M940.8,243.2 L905.6,278.4" stroke="#08080a" stroke-width="5.6" fill="none" opacity=".95"/><path d="M940.8,243.2 L976,278.4 M976,243.2 L940.8,278.4" stroke="#08080a" stroke-width="5.6" fill="none" opacity=".95"/><path d="M976,243.2 L1011.2,278.4 M1011.2,243.2 L976,278.4" stroke="#08080a" stroke-width="5.6" fill="none" opacity=".95"/><path d="M1011.2,243.2 L1046.4,278.4 M1046.4,243.2 L1011.2,278.4" stroke="#08080a" stroke-width="5.6" fill="none" opacity=".95"/><path d="M1046.4,243.2 L1081.6,278.4 M1081.6,243.2 L1046.4,278.4" stroke="#08080a" stroke-width="5.6" fill="none" opacity=".95"/><path d="M1081.6,243.2 L1116.8,278.4 M1116.8,243.2 L1081.6,278.4" stroke="#08080a" stroke-width="5.6" fill="none" opacity=".95"/><path d="M1116.8,243.2 L1152,278.4 M1152,243.2 L1116.8,278.4" stroke="#08080a" stroke-width="5.6" fill="none" opacity=".95"/><path d="M1152,243.2 L1187.2,278.4 M1187.2,243.2 L1152,278.4" stroke="#08080a" stroke-width="5.6" fill="none" opacity=".95"/><path d="M1187.2,243.2 L1222.4,278.4 M1222.4,243.2 L1187.2,278.4" stroke="#08080a" stroke-width="5.6" fill="none" opacity=".95"/><path d="M1222.4,243.2 L1257.6,278.4 M1257.6,243.2 L1222.4,278.4" stroke="#08080a" stroke-width="5.6" fill="none" opacity=".95"/><path d="M1257.6,243.2 L1292.8,278.4 M1292.8,243.2 L1257.6,278.4" stroke="#08080a" stroke-width="5.6" fill="none" opacity=".95"/><path d="M1292.8,243.2 L1328,278.4 M1328,243.2 L1292.8,278.4" stroke="#08080a" stroke-width="5.6" fill="none" opacity=".95"/><path d="M1328,243.2 L1363.2,278.4 M1363.2,243.2 L1328,278.4" stroke="#08080a" stroke-width="5.6" fill="none" opacity=".95"/><path d="M1363.2,243.2 L1398.4,278.4 M1398.4,243.2 L1363.2,278.4" stroke="#08080a" stroke-width="5.6" fill="none" opacity=".95"/><path d="M1398.4,243.2 L1433.6,278.4 M1433.6,243.2 L1398.4,278.4" stroke="#08080a" stroke-width="5.6" fill="none" opacity=".95"/><path d="M1433.6,243.2 L1468.8,278.4 M1468.8,243.2 L1433.6,278.4" stroke="#08080a" stroke-width="5.6" fill="none" opacity=".95"/><path d="M1468.8,243.2 L1504,278.4 M1504,243.2 L1468.8,278.4" stroke="#08080a" stroke-width="5.6" fill="none" opacity=".95"/><rect x="142.4" y="278.4" width="35.2" height="28" rx="6.4" fill="#08080a"/><circle cx="160" cy="306.4" r="9.6" fill="#ffe07a" opacity=".55"/><rect x="302.4" y="278.4" width="35.2" height="28" rx="6.4" fill="#08080a"/><circle cx="320" cy="306.4" r="9.6" fill="#ffe07a" opacity=".55"/><rect x="462.4" y="278.4" width="35.2" height="28" rx="6.4" fill="#08080a"/><circle cx="480" cy="306.4" r="9.6" fill="#ffe07a" opacity=".55"/><rect x="622.4" y="278.4" width="35.2" height="28" rx="6.4" fill="#08080a"/><circle cx="640" cy="306.4" r="9.6" fill="#ffe07a" opacity=".55"/><rect x="782.4" y="278.4" width="35.2" height="28" rx="6.4" fill="#08080a"/><circle cx="800" cy="306.4" r="9.6" fill="#ffe07a" opacity=".55"/><rect x="942.4" y="278.4" width="35.2" height="28" rx="6.4" fill="#08080a"/><circle cx="960" cy="306.4" r="9.6" fill="#ffe07a" opacity=".55"/><rect x="1102.4" y="278.4" width="35.2" height="28" rx="6.4" fill="#08080a"/><circle cx="1120" cy="306.4" r="9.6" fill="#ffe07a" opacity=".55"/><rect x="1262.4" y="278.4" width="35.2" height="28" rx="6.4" fill="#08080a"/><circle cx="1280" cy="306.4" r="9.6" fill="#ffe07a" opacity=".55"/><rect x="1422.4" y="278.4" width="35.2" height="28" rx="6.4" fill="#08080a"/><circle cx="1440" cy="306.4" r="9.6" fill="#ffe07a" opacity=".55"/><rect width="1600" height="1000" fill="url(#fl5h9)"/><rect width="1600" height="1000" fill="url(#vg5h9)"/></svg>