<svg xmlns="http://www.w3.org/2000/svg" viewBox="0 0 900 1200" width="900" height="1200" role="img" preserveAspectRatio="xMidYMid slice"><defs><linearGradient id="bg4pq" x1="0" y1="0" x2="0" y2="1"><stop offset="0" stop-color="#0d0d10"/><stop offset=".55" stop-color="#08080a"/><stop offset="1" stop-color="#050505"/></linearGradient><radialGradient id="vg4pq" cx=".5" cy=".48" r=".72"><stop offset=".4" stop-color="#000" stop-opacity="0"/><stop offset=".8" stop-color="#000" stop-opacity=".42"/><stop offset="1" stop-color="#000" stop-opacity=".82"/></radialGradient><linearGradient id="fl4pq" x1="0" y1="0" x2="0" y2="1"><stop offset="0" stop-color="#000" stop-opacity=".3"/><stop offset=".22" stop-color="#000" stop-opacity="0"/><stop offset=".82" stop-color="#000" stop-opacity="0"/><stop offset="1" stop-color="#000" stop-opacity=".45"/></linearGradient><radialGradient id="sg4pq" cx=".5" cy=".5" r=".5"><stop offset="0" stop-color="#ffe07a" stop-opacity=".3"/><stop offset=".3" stop-color="#ffc531" stop-opacity=".16"/><stop offset=".62" stop-color="#ff7a18" stop-opacity=".07"/><stop offset="1" stop-color="#ff7a18" stop-opacity="0"/></radialGradient><radialGradient id="hz4pq0"><stop offset="0" stop-color="#ff7a18" stop-opacity="0.1"/><stop offset=".55" stop-color="#ff7a18" stop-opacity="0.04"/><stop offset="1" stop-color="#ff7a18" stop-opacity="0"/></radialGradient><radialGradient id="hz4pq1"><stop offset="0" stop-color="#ffc531" stop-opacity="0.14"/><stop offset=".55" stop-color="#ffc531" stop-opacity="0.02"/><stop offset="1" stop-color="#ffc531" stop-opacity="0"/></radialGradient><radialGradient id="hz4pq2"><stop offset="0" stop-color="#ff7a18" stop-opacity="0.1"/><stop offset=".55" stop-color="#ff7a18" stop-opacity="0.04"/><stop offset="1" stop-color="#ff7a18" stop-opacity="0"/></radialGradient><linearGradient id="bm4pq0_0" x1="0" y1="0" x2="0" y2="1"><stop offset="0" stop-color="#ffe07a" stop-opacity="0.03"/><stop offset=".35" stop-color="#ffe07a" stop-opacity="0.01"/><stop offset=".72" stop-color="#ffe07a" stop-opacity="0"/><stop offset="1" stop-color="#ffe07a" stop-opacity="0"/></linearGradient><linearGradient id="bm4pq0_1" x1="0" y1="0" x2="0" y2="1"><stop offset="0" stop-color="#ffe07a" stop-opacity="0.06"/><stop offset=".35" stop-color="#ffe07a" stop-opacity="0.03"/><stop offset=".72" stop-color="#ffe07a" stop-opacity="0.01"/><stop offset="1" stop-color="#ffe07a" stop-opacity="0"/></linearGradient><linearGradient id="bm4pq0_2" x1="0" y1="0" x2="0" y2="1"><stop offset="0" stop-color="#ffe07a" stop-opacity="0.13"/><stop offset=".35" stop-color="#ffe07a" stop-opacity="0.07"/><stop offset=".72" stop-color="#ffe07a" stop-opacity="0.02"/><stop offset="1" stop-color="#ffe07a" stop-opacity="0"/></linearGradient><linearGradient id="bm4pq1_0" x1="0" y1="0" x2="0" y2="1"><stop offset="0" stop-color="#ffe07a" stop-opacity="0.05"/><stop offset=".35" stop-color="#ffe07a" stop-opacity="0.03"/><stop offset=".72" stop-color="#ffe07a" stop-opacity="0.01"/><stop offset="1" stop-color="#ffe07a" stop-opacity="0"/></linearGradient><linearGradient id="bm4pq1_1" x1="0" y1="0" x2="0" y2="1"><stop offset="0" stop-color="#ffe07a" stop-opacity="0.11"/><stop offset=".35" stop-color="#ffe07a" stop-opacity="0.06"/><stop offset=".72" stop-color="#ffe07a" stop-opacity="0.02"/><stop offset="1" stop-color="#ffe07a" stop-opacity="0"/></linearGradient><linearGradient id="bm4pq1_2" x1="0" y1="0" x2="0" y2="1"><stop offset="0" stop-color="#ffe07a" stop-opacity="0.24"/><stop offset=".35" stop-color="#ffe07a" stop-opacity="0.12"/><stop offset=".72" stop-color="#ffe07a" stop-opacity="0.04"/><stop offset="1" stop-color="#ffe07a" stop-opacity="0"/></linearGradient><linearGradient id="bm4pq2_0" x1="0" y1="0" x2="0" y2="1"><stop offset="0" stop-color="#ffe07a" stop-opacity="0.04"/><stop offset=".35" stop-color="#ffe07a" stop-opacity="0.02"/><stop offset=".72" stop-color="#ffe07a" stop-opacity="0.01"/><stop offset="1" stop-color="#ffe07a" stop-opacity="0"/></linearGradient><linearGradient id="bm4pq2_1" x1="0" y1="0" x2="0" y2="1"><stop offset="0" stop-color="#ffe07a" stop-opacity="0.08"/><stop offset=".35" stop-color="#ffe07a" stop-opacity="0.04"/><stop offset=".72" stop-color="#ffe07a" stop-opacity="0.01"/><stop offset="1" stop-color="#ffe07a" stop-opacity="0"/></linearGradient><linearGradient id="bm4pq2_2" x1="0" y1="0" x2="0" y2="1"><stop offset="0" stop-color="#ffe07a" stop-opacity="0.16"/><stop offset=".35" stop-color="#ffe07a" stop-opacity="0.08"/><stop offset=".72" stop-color="#ffe07a" stop-opacity="0.03"/><stop offset="1" stop-color="#ffe07a" stop-opacity="0"/></linearGradient><linearGradient id="bm4pq3_0" x1="0" y1="0" x2="0" y2="1"><stop offset="0" stop-color="#ffc531" stop-opacity="0.03"/><stop offset=".35" stop-color="#ffc531" stop-opacity="0.02"/><stop offset=".72" stop-color="#ffc531" stop-opacity="0.01"/><stop offset="1" stop-color="#ffc531" stop-opacity="0"/></linearGradient><linearGradient id="bm4pq3_1" x1="0" y1="0" x2="0" y2="1"><stop offset="0" stop-color="#ffc531" stop-opacity="0.07"/><stop offset=".35" stop-color="#ffc531" stop-opacity="0.04"/><stop offset=".72" stop-color="#ffc531" stop-opacity="0.01"/><stop offset="1" stop-color="#ffc531" stop-opacity="0"/></linearGradient><linearGradient id="bm4pq3_2" x1="0" y1="0" x2="0" y2="1"><stop offset="0" stop-color="#ffc531" stop-opacity="0.14"/><stop offset=".35" stop-color="#ffc531" stop-opacity="0.07"/><stop offset=".72" stop-color="#ffc531" stop-opacity="0.02"/><stop offset="1" stop-color="#ffc531" stop-opacity="0"/></linearGradient><linearGradient id="bm4pq4_0" x1="0" y1="0" x2="0" y2="1"><stop offset="0" stop-color="#ff7a18" stop-opacity="0.03"/><stop offset=".35" stop-color="#ff7a18" stop-opacity="0.02"/><stop offset=".72" stop-color="#ff7a18" stop-opacity="0.01"/><stop offset="1" stop-color="#ff7a18" stop-opacity="0"/></linearGradient><linearGradient id="bm4pq4_1" x1="0" y1="0" x2="0" y2="1"><stop offset="0" stop-color="#ff7a18" stop-opacity="0.07"/><stop offset=".35" stop-color="#ff7a18" stop-opacity="0.04"/><stop offset=".72" stop-color="#ff7a18" stop-opacity="0.01"/><stop offset="1" stop-color="#ff7a18" stop-opacity="0"/></linearGradient><linearGradient id="bm4pq4_2" x1="0" y1="0" x2="0" y2="1"><stop offset="0" stop-color="#ff7a18" stop-opacity="0.14"/><stop offset=".35" stop-color="#ff7a18" stop-opacity="0.07"/><stop offset=".72" stop-color="#ff7a18" stop-opacity="0.02"/><stop offset="1" stop-color="#ff7a18" stop-opacity="0"/></linearGradient><linearGradient id="bm4pq5_0" x1="0" y1="0" x2="0" y2="1"><stop offset="0" stop-color="#7c5cff" stop-opacity="0.04"/><stop offset=".35" stop-color="#7c5cff" stop-opacity="0.02"/><stop offset=".72" stop-color="#7c5cff" stop-opacity="0.01"/><stop offset="1" stop-color="#7c5cff" stop-opacity="0"/></linearGradient><linearGradient id="bm4pq5_1" x1="0" y1="0" x2="0" y2="1"><stop offset="0" stop-color="#7c5cff" stop-opacity="0.09"/><stop offset=".35" stop-color="#7c5cff" stop-opacity="0.05"/><stop offset=".72" stop-color="#7c5cff" stop-opacity="0.01"/><stop offset="1" stop-color="#7c5cff" stop-opacity="0"/></linearGradient><linearGradient id="bm4pq5_2" x1="0" y1="0" x2="0" y2="1"><stop offset="0" stop-color="#7c5cff" stop-opacity="0.18"/><stop offset=".35" stop-color="#7c5cff" stop-opacity="0.1"/><stop offset=".72" stop-color="#7c5cff" stop-opacity="0.03"/><stop offset="1" stop-color="#7c5cff" stop-opacity="0"/></linearGradient><linearGradient id="bm4pq6_0" x1="0" y1="0" x2="0" y2="1"><stop offset="0" stop-color="#ff7a18" stop-opacity="0.05"/><stop offset=".35" stop-color="#ff7a18" stop-opacity="0.03"/><stop offset=".72" stop-color="#ff7a18" stop-opacity="0.01"/><stop offset="1" stop-color="#ff7a18" stop-opacity="0"/></linearGradient><linearGradient id="bm4pq6_1" x1="0" y1="0" x2="0" y2="1"><stop offset="0" stop-color="#ff7a18" stop-opacity="0.11"/><stop offset=".35" stop-color="#ff7a18" stop-opacity="0.06"/><stop offset=".72" stop-color="#ff7a18" stop-opacity="0.02"/><stop offset="1" stop-color="#ff7a18" stop-opacity="0"/></linearGradient><linearGradient id="bm4pq6_2" x1="0" y1="0" x2="0" y2="1"><stop offset="0" stop-color="#ff7a18" stop-opacity="0.23"/><stop offset=".35" stop-color="#ff7a18" stop-opacity="0.12"/><stop offset=".72" stop-color="#ff7a18" stop-opacity="0.04"/><stop offset="1" stop-color="#ff7a18" stop-opacity="0"/></linearGradient><linearGradient id="bm4pq7_0" x1="0" y1="0" x2="0" y2="1"><stop offset="0" stop-color="#ff7a18" stop-opacity="0.04"/><stop offset=".35" stop-color="#ff7a18" stop-opacity="0.02"/><stop offset=".72" stop-color="#ff7a18" stop-opacity="0.01"/><stop offset="1" stop-color="#ff7a18" stop-opacity="0"/></linearGradient><linearGradient id="bm4pq7_1" x1="0" y1="0" x2="0" y2="1"><stop offset="0" stop-color="#ff7a18" stop-opacity="0.09"/><stop offset=".35" stop-color="#ff7a18" stop-opacity="0.05"/><stop offset=".72" stop-color="#ff7a18" stop-opacity="0.01"/><stop offset="1" stop-color="#ff7a18" stop-opacity="0"/></linearGradient><linearGradient id="bm4pq7_2" x1="0" y1="0" x2="0" y2="1"><stop offset="0" stop-color="#ff7a18" stop-opacity="0.18"/><stop offset=".35" stop-color="#ff7a18" stop-opacity="0.09"/><stop offset=".72" stop-color="#ff7a18" stop-opacity="0.03"/><stop offset="1" stop-color="#ff7a18" stop-opacity="0"/></linearGradient><radialGradient id="bk4pq"><stop offset="0" stop-color="#fff6dd" stop-opacity=".9"/><stop offset=".4" stop-color="#ffc531" stop-opacity=".3"/><stop offset="1" stop-color="#ff7a18" stop-opacity="0"/></radialGradient><linearGradient id="fg4pq" x1="0" y1="0" x2="0" y2="1"><stop offset="0" stop-color="#020203" stop-opacity="0"/><stop offset="1" stop-color="#020203" stop-opacity="1"/></linearGradient></defs><rect width="900" height="1200" fill="url(#bg4pq)"/><g style="mix-blend-mode:screen"><ellipse cx="451.38" cy="864" rx="558" ry="480" fill="url(#sg4pq)"/></g><g style="mix-blend-mode:screen"><ellipse cx="274.17" cy="785.38" rx="443.13" ry="212.65" fill="url(#hz4pq0)"/><ellipse cx="686.76" cy="444.23" rx="210.91" ry="275.64" fill="url(#hz4pq1)"/><ellipse cx="410.39" cy="885.15" rx="248.51" ry="200.57" fill="url(#hz4pq2)"/></g><g style="mix-blend-mode:screen"><polygon points="714.09,-72 752.23,-72 1723.66,1299.2 1252.49,1299.2" fill="url(#bm4pq0_0)"/><polygon points="723.29,-72 743.02,-72 1609.93,1299.2 1366.22,1299.2" fill="url(#bm4pq0_1)"/><polygon points="729.54,-72 736.78,-72 1532.75,1299.2 1443.39,1299.2" fill="url(#bm4pq0_2)"/><polygon points="552.5,-72 583.54,-72 266.88,1366.28 12.15,1366.28" fill="url(#bm4pq1_0)"/><polygon points="559.99,-72 576.05,-72 205.39,1366.28 73.64,1366.28" fill="url(#bm4pq1_1)"/><polygon points="565.08,-72 570.96,-72 163.67,1366.28 115.36,1366.28" fill="url(#bm4pq1_2)"/><polygon points="533.29,-72 560.69,-72 158.44,1230.29 -336.29,1230.29" fill="url(#bm4pq2_0)"/><polygon points="539.9,-72 554.08,-72 39.02,1230.29 -216.87,1230.29" fill="url(#bm4pq2_1)"/><polygon points="544.39,-72 549.59,-72 -42.01,1230.29 -135.84,1230.29" fill="url(#bm4pq2_2)"/><polygon points="763.1,-72 793.23,-72 726.6,1262.39 215.82,1262.39" fill="url(#bm4pq3_0)"/><polygon points="770.38,-72 785.96,-72 603.31,1262.39 339.11,1262.39" fill="url(#bm4pq3_1)"/><polygon points="775.31,-72 781.02,-72 519.65,1262.39 422.77,1262.39" fill="url(#bm4pq3_2)"/><polygon points="257.2,-72 295.14,-72 1059.83,1185.07 661.32,1185.07" fill="url(#bm4pq4_0)"/><polygon points="266.36,-72 285.98,-72 963.64,1185.07 757.51,1185.07" fill="url(#bm4pq4_1)"/><polygon points="272.57,-72 279.77,-72 898.36,1185.07 822.78,1185.07" fill="url(#bm4pq4_2)"/><polygon points="640.35,-72 662.78,-72 1154.06,1530.63 724.42,1530.63" fill="url(#bm4pq5_0)"/><polygon points="645.76,-72 657.36,-72 1050.35,1530.63 828.12,1530.63" fill="url(#bm4pq5_1)"/><polygon points="649.43,-72 653.69,-72 979.98,1530.63 898.5,1530.63" fill="url(#bm4pq5_2)"/><polygon points="337.44,-72 364.1,-72 969.05,1121.15 607.82,1121.15" fill="url(#bm4pq6_0)"/><polygon points="343.87,-72 357.66,-72 881.86,1121.15 695.01,1121.15" fill="url(#bm4pq6_1)"/><polygon points="348.24,-72 353.3,-72 822.69,1121.15 754.18,1121.15" fill="url(#bm4pq6_2)"/><polygon points="644.06,-72 664.37,-72 1358.24,1498.73 928.53,1498.73" fill="url(#bm4pq7_0)"/><polygon points="648.96,-72 659.47,-72 1254.52,1498.73 1032.25,1498.73" fill="url(#bm4pq7_1)"/><polygon points="652.29,-72 656.14,-72 1184.13,1498.73 1102.64,1498.73" fill="url(#bm4pq7_2)"/></g><g style="mix-blend-mode:screen"><circle cx="29.08" cy="600.69" r="1.08" fill="url(#bk4pq)" opacity="0.79"/><circle cx="724.95" cy="276.81" r="2.5" fill="url(#bk4pq)" opacity="0.37"/><circle cx="703.8" cy="851.66" r="1.82" fill="url(#bk4pq)" opacity="0.62"/><circle cx="782.65" cy="749.11" r="1.21" fill="url(#bk4pq)" opacity="0.3"/><circle cx="465.16" cy="910.61" r="7.05" fill="url(#bk4pq)" opacity="0.34"/><circle cx="735.89" cy="473.06" r="1.08" fill="url(#bk4pq)" opacity="0.81"/><circle cx="414.95" cy="920.2" r="1.8" fill="url(#bk4pq)" opacity="0.62"/><circle cx="10.35" cy="892.96" r="9.79" fill="url(#bk4pq)" opacity="0.35"/><circle cx="238.99" cy="805.08" r="1.2" fill="url(#bk4pq)" opacity="0.85"/><circle cx="706.92" cy="76.51" r="1.08" fill="url(#bk4pq)" opacity="0.71"/><circle cx="397.78" cy="595.3" r="1.27" fill="url(#bk4pq)" opacity="0.62"/><circle cx="366.37" cy="221.75" r="8.16" fill="url(#bk4pq)" opacity="0.41"/><circle cx="261.64" cy="618.1" r="1.4" fill="url(#bk4pq)" opacity="0.48"/><circle cx="246.5" cy="82.18" r="1.56" fill="url(#bk4pq)" opacity="0.69"/><circle cx="516.48" cy="882.34" r="1.53" fill="url(#bk4pq)" opacity="0.6"/><circle cx="835.76" cy="223.17" r="2.82" fill="url(#bk4pq)" opacity="0.51"/><circle cx="450.01" cy="797.1" r="10.57" fill="url(#bk4pq)" opacity="0.57"/><circle cx="194.93" cy="445.74" r="1.99" fill="url(#bk4pq)" opacity="0.29"/><circle cx="207.51" cy="642.37" r="1.22" fill="url(#bk4pq)" opacity="0.82"/><circle cx="472.96" cy="985.26" r="5.1" fill="url(#bk4pq)" opacity="0.56"/><circle cx="94.27" cy="615.13" r="3.34" fill="url(#bk4pq)" opacity="0.46"/><circle cx="5.47" cy="369.46" r="1.58" fill="url(#bk4pq)" opacity="0.53"/><circle cx="853.87" cy="140.01" r="1.35" fill="url(#bk4pq)" opacity="0.56"/><circle cx="302.11" cy="287.93" r="2.09" fill="url(#bk4pq)" opacity="0.3"/><circle cx="12.11" cy="875.27" r="1.9" fill="url(#bk4pq)" opacity="0.43"/><circle cx="196.24" cy="941.4" r="1.12" fill="url(#bk4pq)" opacity="0.32"/><circle cx="369" cy="242.25" r="4.04" fill="url(#bk4pq)" opacity="0.35"/><circle cx="19.89" cy="483.96" r="9.02" fill="url(#bk4pq)" opacity="0.8"/><circle cx="141.54" cy="180.57" r="1.23" fill="url(#bk4pq)" opacity="0.8"/><circle cx="794.99" cy="551.02" r="7.3" fill="url(#bk4pq)" opacity="0.41"/></g><g><g transform="translate(749.94,896.74) rotate(6.23)"><path d="M-11.04,20.16 Q-9.6,7.2 0,6.48 Q9.6,7.2 11.04,20.16 Z" fill="#0c0c0c"/><circle cx="0" cy="0" r="4.8" fill="#0c0c0c"/></g><g transform="translate(681.04,908.92) rotate(-10.49)"><path d="M-10.38,18.96 Q-9.03,6.77 0,6.09 Q9.03,6.77 10.38,18.96 Z" fill="#0c0c0c"/><circle cx="0" cy="0" r="4.51" fill="#0c0c0c"/></g><g transform="translate(650.56,910.65) rotate(3.64)"><path d="M-10.21,18.65 Q-8.88,6.66 0,6 Q8.88,6.66 10.21,18.65 Z" fill="#0c0c0c"/><circle cx="0" cy="0" r="4.44" fill="#0c0c0c"/></g><g transform="translate(573.05,910.69) rotate(-0.76)"><path d="M-14.63,26.71 Q-12.72,9.54 0,8.59 Q12.72,9.54 14.63,26.71 Z" fill="#0c0c0c"/><circle cx="0" cy="0" r="6.36" fill="#0c0c0c"/></g><g transform="translate(684.17,914.51) rotate(-7.3)"><path d="M-11.25,20.54 Q-9.78,7.33 0,6.6 Q9.78,7.33 11.25,20.54 Z" fill="#0b0b0b"/><circle cx="0" cy="0" r="4.89" fill="#0b0b0b"/></g><g transform="translate(235.7,915.31) rotate(1.12)"><path d="M-12.67,23.14 Q-11.02,8.26 0,7.44 Q11.02,8.26 12.67,23.14 Z" fill="#0c0c0c"/><circle cx="0" cy="0" r="5.51" fill="#0c0c0c"/></g><g transform="translate(238.81,919.5) rotate(-10.43)"><path d="M-13.16,24.03 Q-11.44,8.58 0,7.72 Q11.44,8.58 13.16,24.03 Z" fill="#0c0c0c"/><circle cx="0" cy="0" r="5.72" fill="#0c0c0c"/><path d="M4,12.59 Q11.4,-11.95 -0.22,-34.16" fill="none" stroke="#0c0c0c" stroke-width="1.37" stroke-linecap="round"/></g><g transform="translate(408.23,921.46) rotate(-7.82)"><path d="M-10.55,19.27 Q-9.18,6.88 0,6.19 Q9.18,6.88 10.55,19.27 Z" fill="#0b0b0b"/><circle cx="0" cy="0" r="4.59" fill="#0b0b0b"/></g><g transform="translate(433.03,922) rotate(-5.75)"><path d="M-13.27,24.23 Q-11.54,8.65 0,7.79 Q11.54,8.65 13.27,24.23 Z" fill="#0c0c0c"/><circle cx="0" cy="0" r="5.77" fill="#0c0c0c"/></g><g transform="translate(570.72,924.44) rotate(-3.92)"><path d="M-12.49,22.82 Q-10.86,8.15 0,7.33 Q10.86,8.15 12.49,22.82 Z" fill="#0b0b0b"/><circle cx="0" cy="0" r="5.43" fill="#0b0b0b"/></g><g transform="translate(21.16,925) rotate(10.09)"><path d="M-13.6,24.83 Q-11.83,8.87 0,7.98 Q11.83,8.87 13.6,24.83 Z" fill="#0b0b0b"/><circle cx="0" cy="0" r="5.91" fill="#0b0b0b"/></g><g transform="translate(543.47,925.59) rotate(-8.87)"><path d="M-12.23,22.33 Q-10.63,7.97 0,7.18 Q10.63,7.97 12.23,22.33 Z" fill="#0b0b0b"/><circle cx="0" cy="0" r="5.32" fill="#0b0b0b"/></g><g transform="translate(265.12,928.02) rotate(-5.54)"><path d="M-14.5,26.48 Q-12.61,9.46 0,8.51 Q12.61,9.46 14.5,26.48 Z" fill="#0b0b0b"/><circle cx="0" cy="0" r="6.31" fill="#0b0b0b"/></g><g transform="translate(54.7,931.29) rotate(-6.7)"><path d="M-15.26,27.87 Q-13.27,9.95 0,8.96 Q13.27,9.95 15.26,27.87 Z" fill="#0b0b0b"/><circle cx="0" cy="0" r="6.64" fill="#0b0b0b"/></g><g transform="translate(547.17,946.96) rotate(-10.74)"><path d="M-16.42,29.98 Q-14.28,10.71 0,9.64 Q14.28,10.71 16.42,29.98 Z" fill="#0b0b0b"/><circle cx="0" cy="0" r="7.14" fill="#0b0b0b"/></g><g transform="translate(654.74,947.8) rotate(10.2)"><path d="M-14.91,27.22 Q-12.96,9.72 0,8.75 Q12.96,9.72 14.91,27.22 Z" fill="#0b0b0b"/><circle cx="0" cy="0" r="6.48" fill="#0b0b0b"/></g><g transform="translate(322.2,950.76) rotate(-8.37)"><path d="M-15.19,27.73 Q-13.21,9.9 0,8.91 Q13.21,9.9 15.19,27.73 Z" fill="#0a0a0a"/><circle cx="0" cy="0" r="6.6" fill="#0a0a0a"/><path d="M4.62,14.53 Q17.93,-20.07 23.63,-57.34" fill="none" stroke="#0a0a0a" stroke-width="1.58" stroke-linecap="round"/></g><g transform="translate(869.11,951.59) rotate(4.31)"><path d="M-16.71,30.52 Q-14.53,10.9 0,9.81 Q14.53,10.9 16.71,30.52 Z" fill="#0a0a0a"/><circle cx="0" cy="0" r="7.27" fill="#0a0a0a"/></g><g transform="translate(494.16,954.81) rotate(-10.22)"><path d="M-17.07,31.16 Q-14.84,11.13 0,10.02 Q14.84,11.13 17.07,31.16 Z" fill="#0a0a0a"/><circle cx="0" cy="0" r="7.42" fill="#0a0a0a"/></g><g transform="translate(203.51,954.91) rotate(6.7)"><path d="M-16.33,29.82 Q-14.2,10.65 0,9.59 Q14.2,10.65 16.33,29.82 Z" fill="#0a0a0a"/><circle cx="0" cy="0" r="7.1" fill="#0a0a0a"/></g><g transform="translate(655.14,957.76) rotate(8.1)"><path d="M-17.93,32.75 Q-15.59,11.7 0,10.53 Q15.59,11.7 17.93,32.75 Z" fill="#0a0a0a"/><circle cx="0" cy="0" r="7.8" fill="#0a0a0a"/></g><g transform="translate(440.55,959.94) rotate(-1.14)"><path d="M-17.57,32.09 Q-15.28,11.46 0,10.31 Q15.28,11.46 17.57,32.09 Z" fill="#0a0a0a"/><circle cx="0" cy="0" r="7.64" fill="#0a0a0a"/></g><g transform="translate(372.76,962.1) rotate(8.26)"><path d="M-17.81,32.53 Q-15.49,11.62 0,10.46 Q15.49,11.62 17.81,32.53 Z" fill="#0a0a0a"/><circle cx="0" cy="0" r="7.74" fill="#0a0a0a"/></g><g transform="translate(259.77,962.8) rotate(-3.13)"><path d="M-17.03,31.11 Q-14.81,11.11 0,10 Q14.81,11.11 17.03,31.11 Z" fill="#0a0a0a"/><circle cx="0" cy="0" r="7.41" fill="#0a0a0a"/></g><g transform="translate(431.73,964.88) rotate(-9.39)"><path d="M-15.81,28.86 Q-13.75,10.31 0,9.28 Q13.75,10.31 15.81,28.86 Z" fill="#0a0a0a"/><circle cx="0" cy="0" r="6.87" fill="#0a0a0a"/></g><g transform="translate(824.03,965.97) rotate(-9.02)"><path d="M-17.36,31.7 Q-15.1,11.32 0,10.19 Q15.1,11.32 17.36,31.7 Z" fill="#0a0a0a"/><circle cx="0" cy="0" r="7.55" fill="#0a0a0a"/></g><g transform="translate(116.05,966.55) rotate(-2.61)"><path d="M-15.47,28.26 Q-13.46,10.09 0,9.08 Q13.46,10.09 15.47,28.26 Z" fill="#0a0a0a"/><circle cx="0" cy="0" r="6.73" fill="#0a0a0a"/></g><g transform="translate(715.53,969.24) rotate(8.03)"><path d="M-16.46,30.05 Q-14.31,10.73 0,9.66 Q14.31,10.73 16.46,30.05 Z" fill="#0a0a0a"/><circle cx="0" cy="0" r="7.15" fill="#0a0a0a"/></g><g transform="translate(200.62,971.05) rotate(7.63)"><path d="M-20.24,36.95 Q-17.6,13.2 0,11.88 Q17.6,13.2 20.24,36.95 Z" fill="#0a0a0a"/><circle cx="0" cy="0" r="8.8" fill="#0a0a0a"/></g><g transform="translate(637.41,972.53) rotate(-8)"><path d="M-18.59,33.95 Q-16.17,12.12 0,10.91 Q16.17,12.12 18.59,33.95 Z" fill="#0a0a0a"/><circle cx="0" cy="0" r="8.08" fill="#0a0a0a"/></g><g transform="translate(905.36,977.78) rotate(9.32)"><path d="M-15.31,27.95 Q-13.31,9.98 0,8.98 Q13.31,9.98 15.31,27.95 Z" fill="#090909"/><circle cx="0" cy="0" r="6.65" fill="#090909"/></g><g transform="translate(612.44,978.51) rotate(-9.05)"><path d="M-18.96,34.63 Q-16.49,12.37 0,11.13 Q16.49,12.37 18.96,34.63 Z" fill="#090909"/><circle cx="0" cy="0" r="8.24" fill="#090909"/></g><g transform="translate(790.02,987.21) rotate(5.13)"><path d="M-17.21,31.43 Q-14.97,11.23 0,10.1 Q14.97,11.23 17.21,31.43 Z" fill="#090909"/><circle cx="0" cy="0" r="7.48" fill="#090909"/></g><g transform="translate(718.86,999.19) rotate(-1.11)"><path d="M-16.87,30.81 Q-14.67,11 0,9.9 Q14.67,11 16.87,30.81 Z" fill="#080808"/><circle cx="0" cy="0" r="7.34" fill="#080808"/></g><g transform="translate(817.42,1000.96) rotate(6.77)"><path d="M-19.1,34.87 Q-16.61,12.46 0,11.21 Q16.61,12.46 19.1,34.87 Z" fill="#090909"/><circle cx="0" cy="0" r="8.3" fill="#090909"/></g><g transform="translate(301.8,1005.23) rotate(8.65)"><path d="M-21.2,38.71 Q-18.43,13.82 0,12.44 Q18.43,13.82 21.2,38.71 Z" fill="#080808"/><circle cx="0" cy="0" r="9.22" fill="#080808"/></g><g transform="translate(218.36,1006.39) rotate(3.07)"><path d="M-21.98,40.15 Q-19.12,14.34 0,12.9 Q19.12,14.34 21.98,40.15 Z" fill="#080808"/><circle cx="0" cy="0" r="9.56" fill="#080808"/></g><g transform="translate(177.21,1008.44) rotate(-1.4)"><path d="M-19.17,35 Q-16.67,12.5 0,11.25 Q16.67,12.5 19.17,35 Z" fill="#080808"/><circle cx="0" cy="0" r="8.33" fill="#080808"/></g><g transform="translate(665.52,1011.17) rotate(6.74)"><path d="M-19.83,36.21 Q-17.24,12.93 0,11.64 Q17.24,12.93 19.83,36.21 Z" fill="#080808"/><circle cx="0" cy="0" r="8.62" fill="#080808"/></g><g transform="translate(596.39,1013.53) rotate(9.91)"><path d="M-17.61,32.16 Q-15.31,11.49 0,10.34 Q15.31,11.49 17.61,32.16 Z" fill="#080808"/><circle cx="0" cy="0" r="7.66" fill="#080808"/></g><g transform="translate(682.62,1015.14) rotate(-9.38)"><path d="M-22.28,40.68 Q-19.37,14.53 0,13.08 Q19.37,14.53 22.28,40.68 Z" fill="#080808"/><circle cx="0" cy="0" r="9.69" fill="#080808"/></g><g transform="translate(597.09,1015.67) rotate(-9.44)"><path d="M-22.47,41.04 Q-19.54,14.66 0,13.19 Q19.54,14.66 22.47,41.04 Z" fill="#080808"/><circle cx="0" cy="0" r="9.77" fill="#080808"/></g><g transform="translate(239.57,1016.24) rotate(-6.3)"><path d="M-19.77,36.11 Q-17.19,12.9 0,11.61 Q17.19,12.9 19.77,36.11 Z" fill="#080808"/><circle cx="0" cy="0" r="8.6" fill="#080808"/></g><g transform="translate(786.25,1016.3) rotate(1.1)"><path d="M-18.03,32.92 Q-15.68,11.76 0,10.58 Q15.68,11.76 18.03,32.92 Z" fill="#080808"/><circle cx="0" cy="0" r="7.84" fill="#080808"/></g><g transform="translate(274.28,1016.31) rotate(-7.34)"><path d="M-24.23,44.24 Q-21.07,15.8 0,14.22 Q21.07,15.8 24.23,44.24 Z" fill="#080808"/><circle cx="0" cy="0" r="10.53" fill="#080808"/></g><g transform="translate(314.12,1016.86) rotate(6.17)"><path d="M-24.67,45.06 Q-21.46,16.09 0,14.48 Q21.46,16.09 24.67,45.06 Z" fill="#080808"/><circle cx="0" cy="0" r="10.73" fill="#080808"/></g><g transform="translate(317.89,1017.39) rotate(-6.16)"><path d="M-25.24,46.08 Q-21.94,16.46 0,14.81 Q21.94,16.46 25.24,46.08 Z" fill="#080808"/><circle cx="0" cy="0" r="10.97" fill="#080808"/></g><g transform="translate(350.76,1018.31) rotate(8.64)"><path d="M-17.2,31.42 Q-14.96,11.22 0,10.1 Q14.96,11.22 17.2,31.42 Z" fill="#080808"/><circle cx="0" cy="0" r="7.48" fill="#080808"/></g><g transform="translate(357.96,1019.15) rotate(9.3)"><path d="M-22.22,40.58 Q-19.32,14.49 0,13.04 Q19.32,14.49 22.22,40.58 Z" fill="#080808"/><circle cx="0" cy="0" r="9.66" fill="#080808"/></g><g transform="translate(688.09,1025.45) rotate(-3.76)"><path d="M-24.31,44.4 Q-21.14,15.86 0,14.27 Q21.14,15.86 24.31,44.4 Z" fill="#080808"/><circle cx="0" cy="0" r="10.57" fill="#080808"/></g><g transform="translate(607.87,1028.74) rotate(0.49)"><path d="M-19.11,34.89 Q-16.61,12.46 0,11.21 Q16.61,12.46 19.11,34.89 Z" fill="#070707"/><circle cx="0" cy="0" r="8.31" fill="#070707"/></g><g transform="translate(-9.87,1029.76) rotate(7.09)"><path d="M-20.14,36.77 Q-17.51,13.13 0,11.82 Q17.51,13.13 20.14,36.77 Z" fill="#080808"/><circle cx="0" cy="0" r="8.75" fill="#080808"/></g><g transform="translate(522.4,1033.05) rotate(-4.6)"><path d="M-22.31,40.74 Q-19.4,14.55 0,13.1 Q19.4,14.55 22.31,40.74 Z" fill="#070707"/><circle cx="0" cy="0" r="9.7" fill="#070707"/></g><g transform="translate(589.72,1044.15) rotate(7.86)"><path d="M-21.93,40.04 Q-19.07,14.3 0,12.87 Q19.07,14.3 21.93,40.04 Z" fill="#070707"/><circle cx="0" cy="0" r="9.53" fill="#070707"/></g><g transform="translate(387.6,1044.32) rotate(-3.33)"><path d="M-23.93,43.7 Q-20.81,15.61 0,14.05 Q20.81,15.61 23.93,43.7 Z" fill="#070707"/><circle cx="0" cy="0" r="10.41" fill="#070707"/></g><g transform="translate(527.18,1045.36) rotate(-7.28)"><path d="M-27.84,50.85 Q-24.21,18.16 0,16.34 Q24.21,18.16 27.84,50.85 Z" fill="#070707"/><circle cx="0" cy="0" r="12.11" fill="#070707"/></g><g transform="translate(676.37,1049.51) rotate(1.98)"><path d="M-28,51.14 Q-24.35,18.26 0,16.44 Q24.35,18.26 28,51.14 Z" fill="#070707"/><circle cx="0" cy="0" r="12.18" fill="#070707"/></g><g transform="translate(784.71,1049.76) rotate(-10.44)"><path d="M-23.17,42.31 Q-20.15,15.11 0,13.6 Q20.15,15.11 23.17,42.31 Z" fill="#070707"/><circle cx="0" cy="0" r="10.07" fill="#070707"/></g><g transform="translate(374.89,1050.09) rotate(10.96)"><path d="M-23.15,42.28 Q-20.13,15.1 0,13.59 Q20.13,15.1 23.15,42.28 Z" fill="#070707"/><circle cx="0" cy="0" r="10.07" fill="#070707"/></g><g transform="translate(471.4,1051.63) rotate(10.44)"><path d="M-28.95,52.86 Q-25.17,18.88 0,16.99 Q25.17,18.88 28.95,52.86 Z" fill="#060606"/><circle cx="0" cy="0" r="12.59" fill="#060606"/></g><g transform="translate(126.98,1052.55) rotate(-9.16)"><path d="M-27.71,50.59 Q-24.09,18.07 0,16.26 Q24.09,18.07 27.71,50.59 Z" fill="#070707"/><circle cx="0" cy="0" r="12.05" fill="#070707"/><path d="M8.43,26.5 Q25.19,-26.74 5.5,-76.4" fill="none" stroke="#070707" stroke-width="2.89" stroke-linecap="round"/></g><g transform="translate(630.51,1053.45) rotate(-1.36)"><path d="M-21.94,40.06 Q-19.07,14.31 0,12.88 Q19.07,14.31 21.94,40.06 Z" fill="#060606"/><circle cx="0" cy="0" r="9.54" fill="#060606"/></g><g transform="translate(367.11,1053.82) rotate(-2.72)"><path d="M-23.46,42.84 Q-20.4,15.3 0,13.77 Q20.4,15.3 23.46,42.84 Z" fill="#060606"/><circle cx="0" cy="0" r="10.2" fill="#060606"/></g><g transform="translate(796.76,1054.82) rotate(2.69)"><path d="M-20.37,37.2 Q-17.72,13.29 0,11.96 Q17.72,13.29 20.37,37.2 Z" fill="#070707"/><circle cx="0" cy="0" r="8.86" fill="#070707"/></g><g transform="translate(197.7,1055.03) rotate(-4.92)"><path d="M-20.69,37.78 Q-17.99,13.49 0,12.15 Q17.99,13.49 20.69,37.78 Z" fill="#070707"/><circle cx="0" cy="0" r="9" fill="#070707"/></g><g transform="translate(-10.02,1058.4) rotate(8.07)"><path d="M-21.03,38.41 Q-18.29,13.72 0,12.34 Q18.29,13.72 21.03,38.41 Z" fill="#070707"/><circle cx="0" cy="0" r="9.14" fill="#070707"/><path d="M6.4,20.12 Q17.62,-18.33 -3.33,-52.37" fill="none" stroke="#070707" stroke-width="2.19" stroke-linecap="round"/></g><g transform="translate(91.44,1059.18) rotate(-4.38)"><path d="M-20.56,37.55 Q-17.88,13.41 0,12.07 Q17.88,13.41 20.56,37.55 Z" fill="#060606"/><circle cx="0" cy="0" r="8.94" fill="#060606"/><path d="M6.26,19.67 Q21.88,-24.02 20,-68.64" fill="none" stroke="#060606" stroke-width="2.15" stroke-linecap="round"/></g><g transform="translate(904.29,1061.42) rotate(9.24)"><path d="M-28.9,52.78 Q-25.13,18.85 0,16.96 Q25.13,18.85 28.9,52.78 Z" fill="#070707"/><circle cx="0" cy="0" r="12.57" fill="#070707"/></g><g transform="translate(373.36,1064.21) rotate(10.43)"><path d="M-21.48,39.22 Q-18.67,14.01 0,12.61 Q18.67,14.01 21.48,39.22 Z" fill="#060606"/><circle cx="0" cy="0" r="9.34" fill="#060606"/></g><g transform="translate(728.03,1064.34) rotate(4.14)"><path d="M-22.31,40.74 Q-19.4,14.55 0,13.1 Q19.4,14.55 22.31,40.74 Z" fill="#060606"/><circle cx="0" cy="0" r="9.7" fill="#060606"/></g><g transform="translate(713.01,1065.41) rotate(2.9)"><path d="M-19.68,35.94 Q-17.11,12.83 0,11.55 Q17.11,12.83 19.68,35.94 Z" fill="#060606"/><circle cx="0" cy="0" r="8.56" fill="#060606"/></g><g transform="translate(577.52,1066.53) rotate(-0.25)"><path d="M-21.43,39.13 Q-18.63,13.97 0,12.58 Q18.63,13.97 21.43,39.13 Z" fill="#060606"/><circle cx="0" cy="0" r="9.32" fill="#060606"/></g><g transform="translate(383.32,1067.85) rotate(-0.82)"><path d="M-26.9,49.12 Q-23.39,17.54 0,15.79 Q23.39,17.54 26.9,49.12 Z" fill="#060606"/><circle cx="0" cy="0" r="11.7" fill="#060606"/></g><g transform="translate(63.27,1067.88) rotate(8.93)"><path d="M-27.83,50.82 Q-24.2,18.15 0,16.34 Q24.2,18.15 27.83,50.82 Z" fill="#060606"/><circle cx="0" cy="0" r="12.1" fill="#060606"/></g><g transform="translate(757.23,1068.67) rotate(-8.14)"><path d="M-23.68,43.23 Q-20.59,15.44 0,13.9 Q20.59,15.44 23.68,43.23 Z" fill="#060606"/><circle cx="0" cy="0" r="10.29" fill="#060606"/></g><g transform="translate(576.49,1069.57) rotate(0.99)"><path d="M-28.35,51.77 Q-24.65,18.49 0,16.64 Q24.65,18.49 28.35,51.77 Z" fill="#060606"/><circle cx="0" cy="0" r="12.33" fill="#060606"/></g><g transform="translate(104.77,1069.67) rotate(4.47)"><path d="M-21.81,39.82 Q-18.96,14.22 0,12.8 Q18.96,14.22 21.81,39.82 Z" fill="#060606"/><circle cx="0" cy="0" r="9.48" fill="#060606"/></g><g transform="translate(726.48,1070.2) rotate(0.33)"><path d="M-29.91,54.62 Q-26.01,19.51 0,17.56 Q26.01,19.51 29.91,54.62 Z" fill="#060606"/><circle cx="0" cy="0" r="13.01" fill="#060606"/></g><g transform="translate(804.5,1071.04) rotate(-3.02)"><path d="M-21.83,39.86 Q-18.98,14.24 0,12.81 Q18.98,14.24 21.83,39.86 Z" fill="#060606"/><circle cx="0" cy="0" r="9.49" fill="#060606"/></g><g transform="translate(778.26,1072.31) rotate(2.16)"><path d="M-24.87,45.42 Q-21.63,16.22 0,14.6 Q21.63,16.22 24.87,45.42 Z" fill="#060606"/><circle cx="0" cy="0" r="10.81" fill="#060606"/></g><g transform="translate(233.97,1072.89) rotate(-9)"><path d="M-21.46,39.19 Q-18.66,14 0,12.6 Q18.66,14 21.46,39.19 Z" fill="#060606"/><circle cx="0" cy="0" r="9.33" fill="#060606"/></g><g transform="translate(487.41,1073.78) rotate(-8.43)"><path d="M-28.67,52.35 Q-24.93,18.7 0,16.83 Q24.93,18.7 28.67,52.35 Z" fill="#050505"/><circle cx="0" cy="0" r="12.46" fill="#050505"/></g><g transform="translate(837.98,1074.76) rotate(-6.52)"><path d="M-23.22,42.4 Q-20.19,15.14 0,13.63 Q20.19,15.14 23.22,42.4 Z" fill="#050505"/><circle cx="0" cy="0" r="10.09" fill="#050505"/></g><g transform="translate(-4.75,1075.34) rotate(-2.54)"><path d="M-21.51,39.27 Q-18.7,14.03 0,12.62 Q18.7,14.03 21.51,39.27 Z" fill="#060606"/><circle cx="0" cy="0" r="9.35" fill="#060606"/></g><g transform="translate(901.31,1076.66) rotate(8.61)"><path d="M-30.85,56.33 Q-26.83,20.12 0,18.11 Q26.83,20.12 30.85,56.33 Z" fill="#050505"/><circle cx="0" cy="0" r="13.41" fill="#050505"/></g><g transform="translate(-1.55,1077.64) rotate(-3.07)"><path d="M-23.08,42.14 Q-20.07,15.05 0,13.54 Q20.07,15.05 23.08,42.14 Z" fill="#050505"/><circle cx="0" cy="0" r="10.03" fill="#050505"/></g><g transform="translate(679.52,1079.4) rotate(-1.15)"><path d="M-26.46,48.32 Q-23.01,17.26 0,15.53 Q23.01,17.26 26.46,48.32 Z" fill="#060606"/><circle cx="0" cy="0" r="11.5" fill="#060606"/></g><g transform="translate(28.83,1079.65) rotate(8.31)"><path d="M-22.62,41.3 Q-19.67,14.75 0,13.27 Q19.67,14.75 22.62,41.3 Z" fill="#050505"/><circle cx="0" cy="0" r="9.83" fill="#050505"/></g><g transform="translate(336.41,1080.16) rotate(-9.36)"><path d="M-23.8,43.47 Q-20.7,15.52 0,13.97 Q20.7,15.52 23.8,43.47 Z" fill="#060606"/><circle cx="0" cy="0" r="10.35" fill="#060606"/></g><g transform="translate(738.03,1080.39) rotate(-9.95)"><path d="M-28.66,52.33 Q-24.92,18.69 0,16.82 Q24.92,18.69 28.66,52.33 Z" fill="#060606"/><circle cx="0" cy="0" r="12.46" fill="#060606"/><path d="M8.72,27.41 Q23.88,-24.8 -5.19,-70.86" fill="none" stroke="#060606" stroke-width="2.99" stroke-linecap="round"/></g><g transform="translate(851.58,1084.17) rotate(-5.21)"><path d="M-29.96,54.71 Q-26.05,19.54 0,17.59 Q26.05,19.54 29.96,54.71 Z" fill="#050505"/><circle cx="0" cy="0" r="13.03" fill="#050505"/></g><g transform="translate(534.01,1087.56) rotate(-7.01)"><path d="M-26.6,48.58 Q-23.13,17.35 0,15.61 Q23.13,17.35 26.6,48.58 Z" fill="#050505"/><circle cx="0" cy="0" r="11.57" fill="#050505"/><path d="M8.1,25.44 Q24.13,-25.6 5.01,-73.15" fill="none" stroke="#050505" stroke-width="2.78" stroke-linecap="round"/></g><g transform="translate(386.42,1092.02) rotate(-5.81)"><path d="M-33.26,60.74 Q-28.92,21.69 0,19.52 Q28.92,21.69 33.26,60.74 Z" fill="#050505"/><circle cx="0" cy="0" r="14.46" fill="#050505"/><path d="M10.12,31.81 Q38.99,-43.58 50.34,-124.53" fill="none" stroke="#050505" stroke-width="3.47" stroke-linecap="round"/></g><g transform="translate(195.65,1095.02) rotate(-10.01)"><path d="M-24.04,43.9 Q-20.91,15.68 0,14.11 Q20.91,15.68 24.04,43.9 Z" fill="#050505"/><circle cx="0" cy="0" r="10.45" fill="#050505"/></g><g transform="translate(325.2,1096.84) rotate(10.86)"><path d="M-24.34,44.46 Q-21.17,15.88 0,14.29 Q21.17,15.88 24.34,44.46 Z" fill="#050505"/><circle cx="0" cy="0" r="10.58" fill="#050505"/></g><g transform="translate(925.96,1097.31) rotate(1.89)"><path d="M-23.7,43.28 Q-20.61,15.46 0,13.91 Q20.61,15.46 23.7,43.28 Z" fill="#050505"/><circle cx="0" cy="0" r="10.3" fill="#050505"/></g><g transform="translate(512.01,1097.85) rotate(-2.18)"><path d="M-25.25,46.11 Q-21.96,16.47 0,14.82 Q21.96,16.47 25.25,46.11 Z" fill="#050505"/><circle cx="0" cy="0" r="10.98" fill="#050505"/></g><g transform="translate(471.1,1098.21) rotate(-2.68)"><path d="M-24.08,43.98 Q-20.94,15.71 0,14.14 Q20.94,15.71 24.08,43.98 Z" fill="#050505"/><circle cx="0" cy="0" r="10.47" fill="#050505"/><path d="M7.33,23.04 Q20.01,-20.77 -4.67,-59.33" fill="none" stroke="#050505" stroke-width="2.51" stroke-linecap="round"/></g><g transform="translate(522.22,1100.35) rotate(-1.99)"><path d="M-31.24,57.05 Q-27.17,20.37 0,18.34 Q27.17,20.37 31.24,57.05 Z" fill="#050505"/><circle cx="0" cy="0" r="13.58" fill="#050505"/></g><g transform="translate(227.98,1100.49) rotate(10.11)"><path d="M-32.78,59.86 Q-28.5,21.38 0,19.24 Q28.5,21.38 32.78,59.86 Z" fill="#050505"/><circle cx="0" cy="0" r="14.25" fill="#050505"/><path d="M9.98,31.35 Q36.94,-41.01 42.21,-117.17" fill="none" stroke="#050505" stroke-width="3.42" stroke-linecap="round"/></g><g transform="translate(316.53,1100.96) rotate(0.48)"><path d="M-30.09,54.95 Q-26.16,19.62 0,17.66 Q26.16,19.62 30.09,54.95 Z" fill="#050505"/><circle cx="0" cy="0" r="13.08" fill="#050505"/></g><g transform="translate(269.7,1102.91) rotate(-2.54)"><path d="M-28.02,51.17 Q-24.37,18.28 0,16.45 Q24.37,18.28 28.02,51.17 Z" fill="#050505"/><circle cx="0" cy="0" r="12.18" fill="#050505"/></g><g transform="translate(89.23,1103.67) rotate(0.89)"><path d="M-25.93,47.35 Q-22.55,16.91 0,15.22 Q22.55,16.91 25.93,47.35 Z" fill="#050505"/><circle cx="0" cy="0" r="11.27" fill="#050505"/></g><g transform="translate(467.98,1104.99) rotate(2.15)"><path d="M-31.39,57.32 Q-27.29,20.47 0,18.42 Q27.29,20.47 31.39,57.32 Z" fill="#050505"/><circle cx="0" cy="0" r="13.65" fill="#050505"/></g><g transform="translate(228.14,1107) rotate(-4.22)"><path d="M-31.05,56.7 Q-27,20.25 0,18.22 Q27,20.25 31.05,56.7 Z" fill="#040404"/><circle cx="0" cy="0" r="13.5" fill="#040404"/><path d="M9.45,29.7 Q26.44,-27.61 -2.82,-78.88" fill="none" stroke="#040404" stroke-width="3.24" stroke-linecap="round"/></g><g transform="translate(919.5,1107.08) rotate(-1.46)"><path d="M-26.63,48.63 Q-23.16,17.37 0,15.63 Q23.16,17.37 26.63,48.63 Z" fill="#040404"/><circle cx="0" cy="0" r="11.58" fill="#040404"/></g><g transform="translate(6.29,1107.18) rotate(-6.52)"><path d="M-29.89,54.58 Q-25.99,19.49 0,17.54 Q25.99,19.49 29.89,54.58 Z" fill="#050505"/><circle cx="0" cy="0" r="13" fill="#050505"/></g><g transform="translate(300.66,1107.18) rotate(-4.81)"><path d="M-25.42,46.43 Q-22.11,16.58 0,14.92 Q22.11,16.58 25.42,46.43 Z" fill="#040404"/><circle cx="0" cy="0" r="11.05" fill="#040404"/></g><g transform="translate(341.18,1107.58) rotate(-3.34)"><path d="M-31.84,58.15 Q-27.69,20.77 0,18.69 Q27.69,20.77 31.84,58.15 Z" fill="#050505"/><circle cx="0" cy="0" r="13.84" fill="#050505"/></g><g transform="translate(926.54,1108.2) rotate(9.09)"><path d="M-27.15,49.58 Q-23.61,17.71 0,15.94 Q23.61,17.71 27.15,49.58 Z" fill="#050505"/><circle cx="0" cy="0" r="11.8" fill="#050505"/></g><g transform="translate(718.31,1108.47) rotate(5.77)"><path d="M-31.75,57.97 Q-27.61,20.71 0,18.63 Q27.61,20.71 31.75,57.97 Z" fill="#040404"/><circle cx="0" cy="0" r="13.8" fill="#040404"/></g><g transform="translate(672.83,1110.6) rotate(-6.17)"><path d="M-27.31,49.86 Q-23.74,17.81 0,16.03 Q23.74,17.81 27.31,49.86 Z" fill="#040404"/><circle cx="0" cy="0" r="11.87" fill="#040404"/></g><g transform="translate(-12.68,1110.65) rotate(10.19)"><path d="M-26.25,47.94 Q-22.83,17.12 0,15.41 Q22.83,17.12 26.25,47.94 Z" fill="#050505"/><circle cx="0" cy="0" r="11.41" fill="#050505"/></g><g transform="translate(713.02,1111.98) rotate(-3.65)"><path d="M-33.29,60.78 Q-28.94,21.71 0,19.54 Q28.94,21.71 33.29,60.78 Z" fill="#050505"/><circle cx="0" cy="0" r="14.47" fill="#050505"/><path d="M10.13,31.84 Q28.21,-29.42 -3.7,-84.06" fill="none" stroke="#050505" stroke-width="3.47" stroke-linecap="round"/></g><g transform="translate(595.1,1114.2) rotate(8.52)"><path d="M-27.14,49.57 Q-23.6,17.7 0,15.93 Q23.6,17.7 27.14,49.57 Z" fill="#040404"/><circle cx="0" cy="0" r="11.8" fill="#040404"/></g><g transform="translate(56.73,1114.25) rotate(3.78)"><path d="M-32.09,58.6 Q-27.91,20.93 0,18.84 Q27.91,20.93 32.09,58.6 Z" fill="#040404"/><circle cx="0" cy="0" r="13.95" fill="#040404"/></g><g transform="translate(344.54,1114.3) rotate(-1.99)"><path d="M-33.19,60.61 Q-28.86,21.65 0,19.48 Q28.86,21.65 33.19,60.61 Z" fill="#040404"/><circle cx="0" cy="0" r="14.43" fill="#040404"/></g><g transform="translate(489.17,1114.31) rotate(10.15)"><path d="M-29.28,53.47 Q-25.46,19.1 0,17.19 Q25.46,19.1 29.28,53.47 Z" fill="#040404"/><circle cx="0" cy="0" r="12.73" fill="#040404"/></g><g transform="translate(125.21,1115.55) rotate(-8.42)"><path d="M-34.82,63.58 Q-30.28,22.71 0,20.44 Q30.28,22.71 34.82,63.58 Z" fill="#040404"/><circle cx="0" cy="0" r="15.14" fill="#040404"/></g><g transform="translate(286.91,1117.51) rotate(6.76)"><path d="M-31.16,56.9 Q-27.1,20.32 0,18.29 Q27.1,20.32 31.16,56.9 Z" fill="#040404"/><circle cx="0" cy="0" r="13.55" fill="#040404"/></g><g transform="translate(274.46,1118.01) rotate(0.23)"><path d="M-30.56,55.81 Q-26.58,19.93 0,17.94 Q26.58,19.93 30.56,55.81 Z" fill="#040404"/><circle cx="0" cy="0" r="13.29" fill="#040404"/></g><g transform="translate(678.32,1118.1) rotate(-10.04)"><path d="M-27.19,49.66 Q-23.65,17.73 0,15.96 Q23.65,17.73 27.19,49.66 Z" fill="#040404"/><circle cx="0" cy="0" r="11.82" fill="#040404"/></g><g transform="translate(564.16,1119.07) rotate(-5.4)"><path d="M-27.95,51.04 Q-24.3,18.23 0,16.41 Q24.3,18.23 27.95,51.04 Z" fill="#040404"/><circle cx="0" cy="0" r="12.15" fill="#040404"/></g><g transform="translate(391.43,1119.84) rotate(7.88)"><path d="M-32.84,59.97 Q-28.56,21.42 0,19.27 Q28.56,21.42 32.84,59.97 Z" fill="#040404"/><circle cx="0" cy="0" r="14.28" fill="#040404"/></g><g transform="translate(775.58,1122.96) rotate(4.68)"><path d="M-31.8,58.06 Q-27.65,20.74 0,18.66 Q27.65,20.74 31.8,58.06 Z" fill="#040404"/><circle cx="0" cy="0" r="13.82" fill="#040404"/></g><g transform="translate(272.87,1125.79) rotate(-8.17)"><path d="M-26.69,48.74 Q-23.21,17.41 0,15.67 Q23.21,17.41 26.69,48.74 Z" fill="#040404"/><circle cx="0" cy="0" r="11.6" fill="#040404"/></g><g transform="translate(363.22,1127.66) rotate(10.72)"><path d="M-29.67,54.17 Q-25.8,19.35 0,17.41 Q25.8,19.35 29.67,54.17 Z" fill="#040404"/><circle cx="0" cy="0" r="12.9" fill="#040404"/></g><g transform="translate(4.06,1128.1) rotate(-5.82)"><path d="M-31.63,57.75 Q-27.5,20.63 0,18.56 Q27.5,20.63 31.63,57.75 Z" fill="#040404"/><circle cx="0" cy="0" r="13.75" fill="#040404"/></g><g transform="translate(717.52,1130.12) rotate(-9.91)"><path d="M-35.07,64.04 Q-30.5,22.87 0,20.58 Q30.5,22.87 35.07,64.04 Z" fill="#030303"/><circle cx="0" cy="0" r="15.25" fill="#030303"/></g><g transform="translate(680.12,1134.65) rotate(-8.27)"><path d="M-32.6,59.53 Q-28.35,21.26 0,19.13 Q28.35,21.26 32.6,59.53 Z" fill="#040404"/><circle cx="0" cy="0" r="14.17" fill="#040404"/></g><g transform="translate(222.3,1134.75) rotate(-4.1)"><path d="M-25.44,46.46 Q-22.12,16.59 0,14.93 Q22.12,16.59 25.44,46.46 Z" fill="#040404"/><circle cx="0" cy="0" r="11.06" fill="#040404"/></g><g transform="translate(322.4,1134.79) rotate(-6.64)"><path d="M-34.12,62.31 Q-29.67,22.25 0,20.03 Q29.67,22.25 34.12,62.31 Z" fill="#030303"/><circle cx="0" cy="0" r="14.84" fill="#030303"/></g><g transform="translate(465.21,1136.38) rotate(4.32)"><path d="M-26.11,47.67 Q-22.7,17.03 0,15.32 Q22.7,17.03 26.11,47.67 Z" fill="#030303"/><circle cx="0" cy="0" r="11.35" fill="#030303"/></g><g transform="translate(391.73,1138.5) rotate(-4.9)"><path d="M-27.89,50.93 Q-24.25,18.19 0,16.37 Q24.25,18.19 27.89,50.93 Z" fill="#030303"/><circle cx="0" cy="0" r="12.13" fill="#030303"/></g><g transform="translate(859.98,1138.62) rotate(-0.8)"><path d="M-29.48,53.84 Q-25.64,19.23 0,17.3 Q25.64,19.23 29.48,53.84 Z" fill="#030303"/><circle cx="0" cy="0" r="12.82" fill="#030303"/></g><g transform="translate(541.02,1138.79) rotate(5.2)"><path d="M-36.75,67.12 Q-31.96,23.97 0,21.57 Q31.96,23.97 36.75,67.12 Z" fill="#030303"/><circle cx="0" cy="0" r="15.98" fill="#030303"/></g><g transform="translate(648.21,1140.82) rotate(0.87)"><path d="M-32.7,59.72 Q-28.44,21.33 0,19.19 Q28.44,21.33 32.7,59.72 Z" fill="#030303"/><circle cx="0" cy="0" r="14.22" fill="#030303"/></g><g transform="translate(123.63,1142.3) rotate(-5.42)"><path d="M-36.09,65.91 Q-31.39,23.54 0,21.19 Q31.39,23.54 36.09,65.91 Z" fill="#030303"/><circle cx="0" cy="0" r="15.69" fill="#030303"/></g><g transform="translate(350.49,1144.04) rotate(9.42)"><path d="M-35.74,65.27 Q-31.08,23.31 0,20.98 Q31.08,23.31 35.74,65.27 Z" fill="#030303"/><circle cx="0" cy="0" r="15.54" fill="#030303"/></g><g transform="translate(280.86,1145.02) rotate(-5.72)"><path d="M-34.73,63.42 Q-30.2,22.65 0,20.39 Q30.2,22.65 34.73,63.42 Z" fill="#030303"/><circle cx="0" cy="0" r="15.1" fill="#030303"/><path d="M10.57,33.22 Q31.14,-32.94 4.67,-94.11" fill="none" stroke="#030303" stroke-width="3.62" stroke-linecap="round"/></g><g transform="translate(251.97,1145.06) rotate(9.61)"><path d="M-29.61,54.07 Q-25.75,19.31 0,17.38 Q25.75,19.31 29.61,54.07 Z" fill="#030303"/><circle cx="0" cy="0" r="12.87" fill="#030303"/><path d="M9.01,28.32 Q25.45,-26.65 -1.47,-76.14" fill="none" stroke="#030303" stroke-width="3.09" stroke-linecap="round"/></g><g transform="translate(161.74,1145.38) rotate(-10.71)"><path d="M-33.74,61.61 Q-29.34,22 0,19.8 Q29.34,22 33.74,61.61 Z" fill="#030303"/><circle cx="0" cy="0" r="14.67" fill="#030303"/></g><g transform="translate(612.32,1148.16) rotate(-2.03)"><path d="M-26.28,47.99 Q-22.85,17.14 0,15.43 Q22.85,17.14 26.28,47.99 Z" fill="#030303"/><circle cx="0" cy="0" r="11.43" fill="#030303"/></g><g transform="translate(714.41,1148.34) rotate(-0.71)"><path d="M-28.63,52.28 Q-24.9,18.67 0,16.8 Q24.9,18.67 28.63,52.28 Z" fill="#030303"/><circle cx="0" cy="0" r="12.45" fill="#030303"/></g><g transform="translate(755.8,1148.35) rotate(-10.86)"><path d="M-28.33,51.74 Q-24.64,18.48 0,16.63 Q24.64,18.48 28.33,51.74 Z" fill="#030303"/><circle cx="0" cy="0" r="12.32" fill="#030303"/></g><g transform="translate(239.4,1149.12) rotate(-2.38)"><path d="M-32.45,59.25 Q-28.21,21.16 0,19.04 Q28.21,21.16 32.45,59.25 Z" fill="#030303"/><circle cx="0" cy="0" r="14.11" fill="#030303"/></g><g transform="translate(346.15,1149.95) rotate(-8.76)"><path d="M-30.7,56.05 Q-26.69,20.02 0,18.02 Q26.69,20.02 30.7,56.05 Z" fill="#030303"/><circle cx="0" cy="0" r="13.35" fill="#030303"/></g><g transform="translate(383.93,1151.07) rotate(5.11)"><path d="M-38.82,70.88 Q-33.75,25.32 0,22.78 Q33.75,25.32 38.82,70.88 Z" fill="#030303"/><circle cx="0" cy="0" r="16.88" fill="#030303"/></g><g transform="translate(476.12,1151.53) rotate(-10.99)"><path d="M-34.86,63.66 Q-30.31,22.74 0,20.46 Q30.31,22.74 34.86,63.66 Z" fill="#030303"/><circle cx="0" cy="0" r="15.16" fill="#030303"/></g><g transform="translate(162.53,1152.55) rotate(-10.76)"><path d="M-38.92,71.07 Q-33.84,25.38 0,22.84 Q33.84,25.38 38.92,71.07 Z" fill="#030303"/><circle cx="0" cy="0" r="16.92" fill="#030303"/></g><g transform="translate(284.59,1152.87) rotate(-9.51)"><path d="M-30.7,56.06 Q-26.7,20.02 0,18.02 Q26.7,20.02 30.7,56.06 Z" fill="#030303"/><circle cx="0" cy="0" r="13.35" fill="#030303"/></g><g transform="translate(913.97,1153.19) rotate(-7.76)"><path d="M-31.59,57.69 Q-27.47,20.61 0,18.54 Q27.47,20.61 31.59,57.69 Z" fill="#030303"/><circle cx="0" cy="0" r="13.74" fill="#030303"/></g><g transform="translate(240.14,1154.92) rotate(10.63)"><path d="M-28.36,51.79 Q-24.66,18.5 0,16.65 Q24.66,18.5 28.36,51.79 Z" fill="#030303"/><circle cx="0" cy="0" r="12.33" fill="#030303"/></g><g transform="translate(-11.87,1155.95) rotate(9.47)"><path d="M-38.94,71.11 Q-33.86,25.4 0,22.86 Q33.86,25.4 38.94,71.11 Z" fill="#030303"/><circle cx="0" cy="0" r="16.93" fill="#030303"/></g><g transform="translate(111.67,1156.48) rotate(-6.4)"><path d="M-33.73,61.59 Q-29.33,22 0,19.8 Q29.33,22 33.73,61.59 Z" fill="#030303"/><circle cx="0" cy="0" r="14.66" fill="#030303"/></g><g transform="translate(664.65,1160.02) rotate(7.36)"><path d="M-34.08,62.23 Q-29.64,22.23 0,20 Q29.64,22.23 34.08,62.23 Z" fill="#030303"/><circle cx="0" cy="0" r="14.82" fill="#030303"/></g><g transform="translate(551.92,1160.49) rotate(6.87)"><path d="M-37.27,68.06 Q-32.41,24.31 0,21.88 Q32.41,24.31 37.27,68.06 Z" fill="#030303"/><circle cx="0" cy="0" r="16.21" fill="#030303"/></g><g transform="translate(170.35,1164.65) rotate(-0.46)"><path d="M-34.84,63.63 Q-30.3,22.72 0,20.45 Q30.3,22.72 34.84,63.63 Z" fill="#030303"/><circle cx="0" cy="0" r="15.15" fill="#030303"/></g><g transform="translate(524.25,1165.43) rotate(-10.99)"><path d="M-30.91,56.44 Q-26.88,20.16 0,18.14 Q26.88,20.16 30.91,56.44 Z" fill="#020202"/><circle cx="0" cy="0" r="13.44" fill="#020202"/></g><g transform="translate(794.52,1166.33) rotate(-5.82)"><path d="M-33.12,60.47 Q-28.8,21.6 0,19.44 Q28.8,21.6 33.12,60.47 Z" fill="#020202"/><circle cx="0" cy="0" r="14.4" fill="#020202"/></g><g transform="translate(509.24,1166.95) rotate(-7.81)"><path d="M-31.75,57.97 Q-27.6,20.7 0,18.63 Q27.6,20.7 31.75,57.97 Z" fill="#020202"/><circle cx="0" cy="0" r="13.8" fill="#020202"/></g><g transform="translate(228.5,1166.95) rotate(-2.17)"><path d="M-36.31,66.31 Q-31.57,23.68 0,21.31 Q31.57,23.68 36.31,66.31 Z" fill="#020202"/><circle cx="0" cy="0" r="15.79" fill="#020202"/><path d="M11.05,34.73 Q26.58,-26.59 -24.98,-75.98" fill="none" stroke="#020202" stroke-width="3.79" stroke-linecap="round"/></g><g transform="translate(497.34,1168.09) rotate(-9.77)"><path d="M-38.1,69.57 Q-33.13,24.84 0,22.36 Q33.13,24.84 38.1,69.57 Z" fill="#020202"/><circle cx="0" cy="0" r="16.56" fill="#020202"/></g><g transform="translate(865.14,1168.36) rotate(-9.87)"><path d="M-40.48,73.91 Q-35.2,26.4 0,23.76 Q35.2,26.4 40.48,73.91 Z" fill="#020202"/><circle cx="0" cy="0" r="17.6" fill="#020202"/></g><g transform="translate(699.32,1170.44) rotate(0.71)"><path d="M-35.13,64.14 Q-30.55,22.91 0,20.62 Q30.55,22.91 35.13,64.14 Z" fill="#020202"/><circle cx="0" cy="0" r="15.27" fill="#020202"/></g><g transform="translate(366.03,1170.96) rotate(8.72)"><path d="M-32.59,59.51 Q-28.34,21.25 0,19.13 Q28.34,21.25 32.59,59.51 Z" fill="#030303"/><circle cx="0" cy="0" r="14.17" fill="#030303"/><path d="M9.92,31.17 Q26.4,-27.21 -9.7,-77.73" fill="none" stroke="#030303" stroke-width="3.4" stroke-linecap="round"/></g><g transform="translate(850.28,1171.75) rotate(7.37)"><path d="M-38.64,70.57 Q-33.6,25.2 0,22.68 Q33.6,25.2 38.64,70.57 Z" fill="#030303"/><circle cx="0" cy="0" r="16.8" fill="#030303"/></g><g transform="translate(548.6,1172.91) rotate(-8.21)"><path d="M-39.37,71.89 Q-34.23,25.68 0,23.11 Q34.23,25.68 39.37,71.89 Z" fill="#020202"/><circle cx="0" cy="0" r="17.12" fill="#020202"/></g><g transform="translate(442.39,1172.93) rotate(6.53)"><path d="M-32.86,60 Q-28.57,21.43 0,19.29 Q28.57,21.43 32.86,60 Z" fill="#020202"/><circle cx="0" cy="0" r="14.29" fill="#020202"/></g></g><g style="mix-blend-mode:screen"><path transform="translate(322.2,950.76) rotate(-8.37)" d="M6.57,0.62 A6.6,6.6 0 0 1 -1.19,6.5" fill="none" stroke="#ffe07a" stroke-width="0.73" stroke-linecap="round" opacity="0.36"/><path transform="translate(790.02,987.21) rotate(5.13)" d="M1.58,-7.32 A7.48,7.48 0 0 1 7.15,2.21" fill="none" stroke="#ffe07a" stroke-width="0.82" stroke-linecap="round" opacity="0.34"/><path transform="translate(786.25,1016.3) rotate(1.1)" d="M7.83,0.42 A7.84,7.84 0 0 1 -1.1,7.76" fill="none" stroke="#ffe07a" stroke-width="0.86" stroke-linecap="round" opacity="0.3"/><path transform="translate(274.28,1016.31) rotate(-7.34)" d="M4.75,9.4 A10.53,10.53 0 0 1 -9.78,3.91" fill="none" stroke="#ffe07a" stroke-width="1.16" stroke-linecap="round" opacity="0.31"/><path transform="translate(-9.87,1029.76) rotate(7.09)" d="M-3.69,-7.94 A8.75,8.75 0 0 1 8.23,-2.98" fill="none" stroke="#ffe07a" stroke-width="0.96" stroke-linecap="round" opacity="0.3"/><path transform="translate(233.97,1072.89) rotate(-9)" d="M7.28,5.84 A9.33,9.33 0 0 1 -6.45,6.74" fill="none" stroke="#ffe07a" stroke-width="1.03" stroke-linecap="round" opacity="0.25"/><path transform="translate(837.98,1074.76) rotate(-6.52)" d="M10.06,0.79 A10.09,10.09 0 0 1 -1.67,9.96" fill="none" stroke="#ffe07a" stroke-width="1.11" stroke-linecap="round" opacity="0.24"/><path transform="translate(901.31,1076.66) rotate(8.61)" d="M-6.02,-11.99 A13.41,13.41 0 0 1 12.47,-4.95" fill="none" stroke="#ffe07a" stroke-width="1.48" stroke-linecap="round" opacity="0.24"/><path transform="translate(679.52,1079.4) rotate(-1.15)" d="M11.4,1.54 A11.5,11.5 0 0 1 -2.53,11.22" fill="none" stroke="#ffe07a" stroke-width="1.27" stroke-linecap="round" opacity="0.25"/><path transform="translate(386.42,1092.02) rotate(-5.81)" d="M-14.25,-2.44 A14.46,14.46 0 0 1 3.67,-13.99" fill="none" stroke="#ffe07a" stroke-width="1.59" stroke-linecap="round" opacity="0.23"/><path transform="translate(195.65,1095.02) rotate(-10.01)" d="M-7.6,7.18 A10.45,10.45 0 0 1 -6.49,-8.2" fill="none" stroke="#ffe07a" stroke-width="1.15" stroke-linecap="round" opacity="0.24"/><path transform="translate(325.2,1096.84) rotate(10.86)" d="M-2.01,-10.39 A10.58,10.58 0 0 1 10.53,-1.1" fill="none" stroke="#ffe07a" stroke-width="1.16" stroke-linecap="round" opacity="0.23"/><path transform="translate(227.98,1100.49) rotate(10.11)" d="M-0.2,-14.25 A14.25,14.25 0 0 1 14.21,1.05" fill="none" stroke="#ffe07a" stroke-width="1.57" stroke-linecap="round" opacity="0.24"/><path transform="translate(89.23,1103.67) rotate(0.89)" d="M-11.26,0.5 A11.27,11.27 0 0 1 0.49,-11.26" fill="none" stroke="#ffe07a" stroke-width="1.24" stroke-linecap="round" opacity="0.23"/><path transform="translate(467.98,1104.99) rotate(2.15)" d="M-13.31,3.01 A13.65,13.65 0 0 1 -1.84,-13.52" fill="none" stroke="#ffe07a" stroke-width="1.5" stroke-linecap="round" opacity="0.22"/><path transform="translate(718.31,1108.47) rotate(5.77)" d="M-10.01,-9.5 A13.8,13.8 0 0 1 10.34,-9.15" fill="none" stroke="#ffe07a" stroke-width="1.52" stroke-linecap="round" opacity="0.22"/><path transform="translate(4.06,1128.1) rotate(-5.82)" d="M-3.21,-13.37 A13.75,13.75 0 0 1 13.6,-2.03" fill="none" stroke="#ffe07a" stroke-width="1.51" stroke-linecap="round" opacity="0.21"/><path transform="translate(161.74,1145.38) rotate(-10.71)" d="M14.5,-2.21 A14.67,14.67 0 0 1 0.94,14.64" fill="none" stroke="#ffe07a" stroke-width="1.61" stroke-linecap="round" opacity="0.19"/><path transform="translate(865.14,1168.36) rotate(-9.87)" d="M-3.78,17.19 A17.6,17.6 0 0 1 -16.79,-5.27" fill="none" stroke="#ffe07a" stroke-width="1.94" stroke-linecap="round" opacity="0.16"/><path transform="translate(699.32,1170.44) rotate(0.71)" d="M14.71,4.11 A15.27,15.27 0 0 1 -5.37,14.3" fill="none" stroke="#ffe07a" stroke-width="1.68" stroke-linecap="round" opacity="0.16"/><path transform="translate(442.39,1172.93) rotate(6.53)" d="M-14.23,1.26 A14.29,14.29 0 0 1 -0.01,-14.29" fill="none" stroke="#ffe07a" stroke-width="1.57" stroke-linecap="round" opacity="0.17"/></g><rect x="0" y="1116" width="900" height="84" fill="url(#fg4pq)"/><rect width="900" height="1200" fill="url(#fl4pq)"/><rect width="900" height="1200" fill="url(#vg4pq)"/></svg>